<svg xmlns="http://www.w3.org/2000/svg" width="68.839" height="68.839" viewBox="0 0 68.839 68.839">
  <g id="Grupo_1099424" data-name="Grupo 1099424" transform="translate(11935.752 11766.839)">
    <path id="Trazado_873363" data-name="Trazado 873363" d="M217.311,36.055A34.419,34.419,0,1,1,182.894,1.639a34.421,34.421,0,0,1,34.416,34.416" transform="translate(-12084.225 -11768.478)" fill="#ff4e5a"/>
    <g id="rayo" transform="translate(-12023.235 -11759.748)">
      <g id="Grupo_1099334" data-name="Grupo 1099334" transform="translate(106.686 0.8)">
        <path id="Trazado_873269" data-name="Trazado 873269" d="M129,37.723a.534.534,0,0,1,.528.612l-2.905,19.754a2.475,2.475,0,0,0-.023.584,1.958,1.958,0,0,0,1.917,1.9,2.141,2.141,0,0,0,1.808-1.219l13.329-26.2a3.169,3.169,0,0,0-2.939-4.357l-9.151-.183a.534.534,0,0,1-.49-.718l6.521-17.724a2.135,2.135,0,0,0-2.07-2.657H122.65a2.255,2.255,0,0,0-2.12,1.881l-6.941,24.316a3.082,3.082,0,0,0,3,4.016Z" transform="translate(-113.47 -7.51)" fill="#f5de46"/>
        <g id="Grupo_1099333" data-name="Grupo 1099333" transform="translate(0)">
          <path id="Trazado_873270" data-name="Trazado 873270" d="M122.65,7.51h3.2a2.254,2.254,0,0,0-2.119,1.881l-6.941,24.316a3.082,3.082,0,0,0,3,4.015h-3.2a3.082,3.082,0,0,1-3-4.015L120.53,9.391A2.254,2.254,0,0,1,122.65,7.51Z" transform="translate(-113.47 -7.51)" fill="#f3d332"/>
          <path id="Trazado_873271" data-name="Trazado 873271" d="M242.509,291.122l-3.241,21.443a2.452,2.452,0,0,0-.028.516,1.777,1.777,0,0,1-.946.276,1.957,1.957,0,0,1-1.916-1.9,2.489,2.489,0,0,1,.022-.584l2.906-19.754a.534.534,0,0,0-.528-.612h3.2A.534.534,0,0,1,242.509,291.122Z" transform="translate(-223.248 -260.297)" fill="#f3d332"/>
        </g>
      </g>
      <g id="Grupo_1099335" data-name="Grupo 1099335" transform="translate(105.875 -0.002)">
        <path id="Trazado_873272" data-name="Trazado 873272" d="M165.2,6.249a.8.8,0,0,0,.99-.55c.017-.064.8-2.782.811-2.846A1.478,1.478,0,0,1,168.341,1.6h12.874a1.342,1.342,0,0,1,1.3,1.624l-6.5,17.68a1.344,1.344,0,0,0,1.226,1.8l3.551.071h.016a.8.8,0,0,0,.016-1.6l-3.177-.064,6.392-17.373A2.948,2.948,0,0,0,181.215,0H168.341a3.044,3.044,0,0,0-2.9,2.484l-.792,2.776a.8.8,0,0,0,.55.99Z" transform="translate(-158.35 0.002)"/>
        <path id="Trazado_873273" data-name="Trazado 873273" d="M247.177,200.932a4.062,4.062,0,0,0-3.365-1.884l-1.863-.037h-.016a.8.8,0,0,0-.016,1.6l1.867.037a2.384,2.384,0,0,1,2.227,3.213L232.7,230.027a1.421,1.421,0,0,1-1.1.8,1.168,1.168,0,0,1-1.12-1.169c-.1.144.864-6.025.858-6.1a.8.8,0,1,0-1.584-.233c-.039.484-.991,6.165-.868,6.482a2.757,2.757,0,0,0,2.715,2.625,2.917,2.917,0,0,0,2.522-1.656l13.329-26.2A3.748,3.748,0,0,0,247.177,200.932Z" transform="translate(-215.741 -177.765)"/>
        <path id="Trazado_873274" data-name="Trazado 873274" d="M120.43,111.109a.8.8,0,1,0,1.584.233L123.535,101a1.343,1.343,0,0,0-1.32-1.529H109.808a2.292,2.292,0,0,1-2.231-3l5.113-17.912a.8.8,0,1,0-1.54-.44l-5.115,17.92a3.9,3.9,0,0,0,3.773,5.036h12.1Z" transform="translate(-105.875 -69.257)"/>
      </g>
    </g>
  </g>
</svg>
