<svg xmlns="http://www.w3.org/2000/svg" xmlns:xlink="http://www.w3.org/1999/xlink" width="1093.224" height="415.911" viewBox="0 0 1093.224 415.911">
  <defs>
    <clipPath id="clip-path">
      <rect id="Rectángulo_402594" data-name="Rectángulo 402594" width="1093.224" height="345.905" fill="none"/>
    </clipPath>
  </defs>
  <g id="Grupo_1102697" data-name="Grupo 1102697" transform="translate(-267.444 -7027.994)">
    <g id="Grupo_1102622" data-name="Grupo 1102622" transform="translate(267.444 7098)" clip-path="url(#clip-path)">
      <path id="Trazado_882859" data-name="Trazado 882859" d="M233.552,168.794l-20-4.556a92.346,92.346,0,0,0-3.468-13.323l15.183-14.074a1.724,1.724,0,0,0,.321-2.126L214.53,115.571a1.721,1.721,0,0,0-2-.785l-19.6,6.054a93.911,93.911,0,0,0-9.679-9.771l6.12-19.812a1.723,1.723,0,0,0-.784-2L169.444,78.2a1.727,1.727,0,0,0-2.126.321L153.391,93.548a92.728,92.728,0,0,0-13.286-3.615l-4.6-20.208a1.724,1.724,0,0,0-1.68-1.34H111.715a1.724,1.724,0,0,0-1.68,1.34l-4.556,20A92.348,92.348,0,0,0,92.156,93.2L78.082,78.015a1.727,1.727,0,0,0-2.126-.321L56.812,88.747a1.722,1.722,0,0,0-.785,2l6.055,19.6a93.635,93.635,0,0,0-9.772,9.679L32.5,113.9a1.721,1.721,0,0,0-2,.785L19.444,133.833a1.724,1.724,0,0,0,.321,2.126l15.024,13.927a92.5,92.5,0,0,0-3.615,13.287l-20.206,4.6a1.725,1.725,0,0,0-1.342,1.68v22.107a1.723,1.723,0,0,0,1.342,1.68l20,4.556a92.447,92.447,0,0,0,3.468,13.323L19.257,225.2a1.723,1.723,0,0,0-.322,2.126l11.053,19.145a1.722,1.722,0,0,0,2,.784l19.6-6.055a93.635,93.635,0,0,0,9.679,9.772l-6.12,19.812a1.722,1.722,0,0,0,.785,2l19.144,11.053a1.727,1.727,0,0,0,2.126-.321l13.927-15.024a92.5,92.5,0,0,0,13.287,3.615l4.6,20.208a1.726,1.726,0,0,0,1.682,1.34H132.8a1.723,1.723,0,0,0,1.68-1.34l4.556-20a92.344,92.344,0,0,0,13.323-3.468l14.074,15.183a1.727,1.727,0,0,0,2.126.321l19.145-11.053a1.723,1.723,0,0,0,.784-2l-6.054-19.6a93.766,93.766,0,0,0,9.771-9.679l19.812,6.12a1.722,1.722,0,0,0,2-.784L225.074,228.2a1.724,1.724,0,0,0-.321-2.126L209.729,212.15a92.5,92.5,0,0,0,3.615-13.287l20.208-4.6a1.724,1.724,0,0,0,1.34-1.68V170.474a1.726,1.726,0,0,0-1.34-1.68m-33.8,12.225a77.5,77.5,0,1,1-77.5-77.5,77.585,77.585,0,0,1,77.5,77.5" transform="translate(4.663 33.13)" fill="#ffda57"/>
      <path id="Trazado_882860" data-name="Trazado 882860" d="M110.794,247.049a77.5,77.5,0,1,1,77.5-77.5,77.585,77.585,0,0,1-77.5,77.5" transform="translate(16.13 44.596)" fill="#fff"/>
      <path id="Trazado_882861" data-name="Trazado 882861" d="M111.355,94.34a75.774,75.774,0,1,1-75.774,75.774A75.861,75.861,0,0,1,111.355,94.34m0-3.447a79.221,79.221,0,1,0,79.221,79.221,79.31,79.31,0,0,0-79.221-79.221" transform="translate(15.568 44.034)" fill="#b98515"/>
      <path id="Trazado_882862" data-name="Trazado 882862" d="M126.92,264.763A132.248,132.248,0,0,1,.031,168.549a.83.83,0,1,1,1.6-.45A130.586,130.586,0,0,0,126.92,263.1c57.267,0,108.588-38.379,124.8-93.328a.83.83,0,0,1,1.591.469c-16.423,55.649-68.4,94.517-126.4,94.517" transform="translate(0 81.143)" fill="#54d9e1"/>
      <path id="Trazado_882863" data-name="Trazado 882863" d="M177.647,178.355a.833.833,0,0,1-.726-.426l-4.18-7.494-7.492,4.18a.83.83,0,1,1-.809-1.449l8.216-4.585a.85.85,0,0,1,.631-.074.835.835,0,0,1,.5.395l4.585,8.218a.831.831,0,0,1-.724,1.235" transform="translate(79.458 81.62)" fill="#54d9e1"/>
      <path id="Trazado_882864" data-name="Trazado 882864" d="M374.441,112.273l-20.208-4.6a92.492,92.492,0,0,0-3.615-13.287l15.024-13.927a1.724,1.724,0,0,0,.321-2.126L354.91,59.188a1.721,1.721,0,0,0-2-.785L333.1,64.523c-3.042-3.487-9.771-9.679-9.771-9.679l6.054-19.6a1.723,1.723,0,0,0-.784-2L309.451,22.192a1.727,1.727,0,0,0-2.126.321L293.251,37.7a92.347,92.347,0,0,0-13.323-3.468l-4.556-20a1.723,1.723,0,0,0-1.68-1.34h-22.1a1.726,1.726,0,0,0-1.682,1.34l-4.6,20.208a92.5,92.5,0,0,0-13.287,3.615L218.089,23.023a1.725,1.725,0,0,0-2.126-.322L196.82,33.754a1.722,1.722,0,0,0-.785,2l6.12,19.812a93.918,93.918,0,0,0-9.679,9.771l-19.6-6.054a1.721,1.721,0,0,0-2,.785L159.824,79.213a1.724,1.724,0,0,0,.321,2.126l15.183,14.074a92.346,92.346,0,0,0-3.468,13.323l-20,4.556a1.724,1.724,0,0,0-1.342,1.68v22.107a1.724,1.724,0,0,0,1.342,1.68l20.206,4.6a92.692,92.692,0,0,0,3.615,13.287l-15.024,13.927a1.724,1.724,0,0,0-.321,2.126l11.053,19.144a1.721,1.721,0,0,0,2,.785l19.812-6.12a93.631,93.631,0,0,0,9.772,9.679l-6.055,19.6a1.722,1.722,0,0,0,.785,2l19.144,11.053a1.727,1.727,0,0,0,2.126-.321l14.074-15.183a92.347,92.347,0,0,0,13.323,3.468l4.556,20a1.724,1.724,0,0,0,1.68,1.34h22.107a1.724,1.724,0,0,0,1.68-1.34l4.6-20.208a92.533,92.533,0,0,0,13.286-3.615l13.927,15.024a1.727,1.727,0,0,0,2.126.321l19.145-11.053a1.723,1.723,0,0,0,.784-2l-6.12-19.812a93.632,93.632,0,0,0,9.679-9.772l19.6,6.055a1.722,1.722,0,0,0,2-.784l11.053-19.145a1.724,1.724,0,0,0-.321-2.126l-15.183-14.074a92.44,92.44,0,0,0,3.468-13.323l20-4.556a1.723,1.723,0,0,0,1.341-1.68V113.954a1.724,1.724,0,0,0-1.341-1.68m-33.8,13.243a77.5,77.5,0,1,1-77.5-77.5,77.586,77.586,0,0,1,77.5,77.5" transform="translate(72.918 6.241)" fill="#69ccd1"/>
      <path id="Trazado_882865" data-name="Trazado 882865" d="M251.682,191.547a77.5,77.5,0,1,1,77.5-77.5,77.585,77.585,0,0,1-77.5,77.5" transform="translate(84.385 17.708)" fill="#fff"/>
      <path id="Trazado_882866" data-name="Trazado 882866" d="M252.244,38.839a75.774,75.774,0,1,1-75.774,75.774,75.86,75.86,0,0,1,75.774-75.774m0-3.447a79.221,79.221,0,1,0,79.221,79.221,79.31,79.31,0,0,0-79.221-79.221" transform="translate(83.822 17.146)" fill="#00565a"/>
      <path id="Trazado_882867" data-name="Trazado 882867" d="M393.25,95.581a.83.83,0,0,1-.8-.6C376.238,40.037,324.916,1.66,267.65,1.66S159.06,40.037,142.846,94.986a.83.83,0,0,1-1.591-.469C157.675,38.866,209.652,0,267.65,0s109.973,38.866,126.4,94.517a.829.829,0,0,1-.561,1.03.808.808,0,0,1-.235.034" transform="translate(68.415)" fill="#54d9e1"/>
      <path id="Trazado_882868" data-name="Trazado 882868" d="M314.058,67.718a.837.837,0,0,1-.349-.077l-8.543-3.946a.83.83,0,1,1,.7-1.507l7.792,3.6,3.6-7.789a.83.83,0,0,1,1.507.7l-3.946,8.542a.83.83,0,0,1-.754.482" transform="translate(147.606 27.864)" fill="#54d9e1"/>
      <path id="Trazado_882869" data-name="Trazado 882869" d="M656.218,113.292l-20-4.556a92.364,92.364,0,0,0-3.468-13.323l15.183-14.074a1.724,1.724,0,0,0,.321-2.126L637.2,60.069a1.721,1.721,0,0,0-2-.785l-19.6,6.054a93.764,93.764,0,0,0-9.679-9.771l6.12-19.812a1.723,1.723,0,0,0-.784-2L592.11,22.7a1.725,1.725,0,0,0-2.126.322L576.057,38.046a92.447,92.447,0,0,0-13.287-3.615l-4.6-20.208a1.724,1.724,0,0,0-1.68-1.34H534.381a1.724,1.724,0,0,0-1.68,1.34l-4.556,20A92.346,92.346,0,0,0,514.822,37.7L500.748,22.513a1.727,1.727,0,0,0-2.126-.321L479.478,33.245a1.722,1.722,0,0,0-.785,2l6.055,19.6a93.639,93.639,0,0,0-9.772,9.679L455.164,58.4a1.721,1.721,0,0,0-2,.785L442.11,78.331a1.723,1.723,0,0,0,.322,2.126l15.023,13.927a92.691,92.691,0,0,0-3.615,13.287l-20.206,4.6a1.724,1.724,0,0,0-1.342,1.68V136.06a1.723,1.723,0,0,0,1.342,1.68l20,4.556a92.456,92.456,0,0,0,3.468,13.323l-15.182,14.074a1.723,1.723,0,0,0-.322,2.126l11.053,19.145a1.722,1.722,0,0,0,2,.784l19.6-6.055a93.771,93.771,0,0,0,9.679,9.772l-6.12,19.812a1.722,1.722,0,0,0,.785,2l19.144,11.053a1.727,1.727,0,0,0,2.126-.321l13.927-15.024A92.5,92.5,0,0,0,527.08,216.6l4.6,20.208a1.726,1.726,0,0,0,1.682,1.34h22.105a1.723,1.723,0,0,0,1.68-1.34l4.556-20a92.342,92.342,0,0,0,13.323-3.468L589.1,228.52a1.727,1.727,0,0,0,2.126.321l19.145-11.053a1.723,1.723,0,0,0,.784-2l-6.054-19.6a93.766,93.766,0,0,0,9.771-9.679l19.811,6.12a1.721,1.721,0,0,0,2-.785L647.74,172.7a1.724,1.724,0,0,0-.321-2.126L632.4,156.648a92.545,92.545,0,0,0,3.615-13.287l20.208-4.6a1.724,1.724,0,0,0,1.34-1.68V114.972a1.724,1.724,0,0,0-1.34-1.68m-33.8,12.225a77.5,77.5,0,1,1-77.5-77.5,77.585,77.585,0,0,1,77.5,77.5" transform="translate(209.427 6.241)" fill="#ea3a70"/>
      <path id="Trazado_882870" data-name="Trazado 882870" d="M533.458,191.547a77.5,77.5,0,1,1,77.5-77.5,77.586,77.586,0,0,1-77.5,77.5" transform="translate(220.893 17.708)" fill="#fff"/>
      <path id="Trazado_882871" data-name="Trazado 882871" d="M534.021,38.839a75.774,75.774,0,1,1-75.774,75.774,75.86,75.86,0,0,1,75.774-75.774m0-3.447a79.221,79.221,0,1,0,79.221,79.221,79.31,79.31,0,0,0-79.221-79.221" transform="translate(220.331 17.146)" fill="#83042b"/>
      <path id="Trazado_882872" data-name="Trazado 882872" d="M675.029,95.581a.832.832,0,0,1-.8-.6C658.018,40.037,606.7,1.66,549.43,1.66S440.84,40.037,424.625,94.986a.83.83,0,1,1-1.591-.469C439.457,38.866,491.43,0,549.43,0S659.4,38.866,675.825,94.517a.83.83,0,0,1-.561,1.03.8.8,0,0,1-.235.034" transform="translate(204.925)" fill="#54d9e1"/>
      <path id="Trazado_882873" data-name="Trazado 882873" d="M595.838,67.717a.826.826,0,0,1-.347-.077l-8.543-3.946a.83.83,0,1,1,.695-1.507l7.79,3.6,3.6-7.789a.831.831,0,0,1,1.508.7l-3.947,8.542a.83.83,0,0,1-.754.482" transform="translate(284.117 27.864)" fill="#54d9e1"/>
      <path id="Trazado_882874" data-name="Trazado 882874" d="M515.33,167.775l-20.208-4.6a92.5,92.5,0,0,0-3.615-13.287l15.024-13.927a1.724,1.724,0,0,0,.321-2.126L495.8,114.69a1.721,1.721,0,0,0-2-.785l-19.812,6.12a93.757,93.757,0,0,0-9.771-9.679l6.054-19.6a1.723,1.723,0,0,0-.784-2L450.34,77.694a1.727,1.727,0,0,0-2.126.321L434.14,93.2a92.351,92.351,0,0,0-13.323-3.468l-4.556-20a1.723,1.723,0,0,0-1.68-1.34H392.476a1.723,1.723,0,0,0-1.68,1.34l-4.6,20.208a92.694,92.694,0,0,0-13.287,3.615L358.978,78.524a1.727,1.727,0,0,0-2.126-.321L337.709,89.256a1.722,1.722,0,0,0-.785,2l6.12,19.812a94.061,94.061,0,0,0-9.679,9.771l-19.6-6.054a1.721,1.721,0,0,0-2,.785l-11.053,19.144a1.724,1.724,0,0,0,.321,2.126l15.183,14.074a92.547,92.547,0,0,0-3.468,13.323l-20,4.556a1.726,1.726,0,0,0-1.34,1.68v22.107a1.724,1.724,0,0,0,1.34,1.68l20.208,4.6a92.687,92.687,0,0,0,3.615,13.287l-15.024,13.927a1.724,1.724,0,0,0-.321,2.126l11.053,19.145a1.722,1.722,0,0,0,2,.784l19.812-6.12a93.633,93.633,0,0,0,9.772,9.679l-6.055,19.6a1.722,1.722,0,0,0,.785,2l19.144,11.053a1.727,1.727,0,0,0,2.126-.321l14.074-15.183a92.342,92.342,0,0,0,13.323,3.468l4.556,20a1.726,1.726,0,0,0,1.68,1.34H415.6a1.724,1.724,0,0,0,1.68-1.34l4.6-20.208a92.538,92.538,0,0,0,13.286-3.615L449.1,283.512a1.727,1.727,0,0,0,2.126.321l19.145-11.053a1.723,1.723,0,0,0,.784-2l-6.12-19.812a93.633,93.633,0,0,0,9.679-9.772l19.6,6.055a1.722,1.722,0,0,0,2-.784l11.053-19.145a1.724,1.724,0,0,0-.321-2.126l-15.183-14.074a92.636,92.636,0,0,0,3.469-13.323l20-4.556a1.723,1.723,0,0,0,1.34-1.68V169.456a1.726,1.726,0,0,0-1.34-1.68m-33.8,13.243a77.5,77.5,0,1,1-77.5-77.5,77.586,77.586,0,0,1,77.5,77.5" transform="translate(141.173 33.13)" fill="#ffc03c"/>
      <path id="Trazado_882875" data-name="Trazado 882875" d="M392.571,247.049a77.5,77.5,0,1,1,77.5-77.5,77.586,77.586,0,0,1-77.5,77.5" transform="translate(152.639 44.596)" fill="#fff"/>
      <path id="Trazado_882876" data-name="Trazado 882876" d="M393.133,94.34a75.774,75.774,0,1,1-75.774,75.774A75.861,75.861,0,0,1,393.133,94.34m0-3.447a79.221,79.221,0,1,0,79.221,79.221,79.31,79.31,0,0,0-79.221-79.221" transform="translate(152.077 44.034)" fill="#8e6307"/>
      <path id="Trazado_882877" data-name="Trazado 882877" d="M408.54,264.211c-58,0-109.973-38.868-126.4-94.517a.83.83,0,1,1,1.591-.469c16.216,54.949,67.537,93.328,124.8,93.328s108.588-38.379,124.8-93.328a.83.83,0,1,1,1.591.469c-16.423,55.649-68.4,94.517-126.4,94.517" transform="translate(136.67 81.694)" fill="#54d9e1"/>
      <path id="Trazado_882878" data-name="Trazado 882878" d="M459.416,178.509a.831.831,0,0,1-.726-.426l-4.182-7.494-7.494,4.182a.829.829,0,1,1-.807-1.449l8.218-4.587a.844.844,0,0,1,.629-.074.83.83,0,0,1,.5.395l4.585,8.218a.831.831,0,0,1-.723,1.235" transform="translate(215.961 81.694)" fill="#54d9e1"/>
      <path id="Trazado_882879" data-name="Trazado 882879" d="M797.107,167.775l-20.208-4.6a92.484,92.484,0,0,0-3.615-13.287l15.024-13.927a1.725,1.725,0,0,0,.321-2.126L777.576,114.69a1.721,1.721,0,0,0-2-.785l-19.812,6.12a93.754,93.754,0,0,0-9.771-9.679l6.054-19.6a1.723,1.723,0,0,0-.784-2L732.117,77.694a1.727,1.727,0,0,0-2.126.321L715.917,93.2a92.349,92.349,0,0,0-13.323-3.468l-4.556-20a1.723,1.723,0,0,0-1.68-1.34h-22.1a1.723,1.723,0,0,0-1.68,1.34l-4.6,20.208a92.692,92.692,0,0,0-13.287,3.615L640.755,78.524a1.727,1.727,0,0,0-2.126-.321L619.486,89.256a1.722,1.722,0,0,0-.785,2l6.12,19.812a94.06,94.06,0,0,0-9.679,9.771l-19.6-6.054a1.721,1.721,0,0,0-2,.785L582.49,134.715a1.724,1.724,0,0,0,.321,2.126l15.183,14.074a92.539,92.539,0,0,0-3.468,13.323l-20,4.556a1.725,1.725,0,0,0-1.342,1.68v22.107a1.724,1.724,0,0,0,1.342,1.68l20.206,4.6a92.492,92.492,0,0,0,3.615,13.287l-15.023,13.927A1.723,1.723,0,0,0,583,228.2l11.053,19.145a1.722,1.722,0,0,0,2,.784l19.812-6.12a93.634,93.634,0,0,0,9.772,9.679l-6.055,19.6a1.722,1.722,0,0,0,.785,2l19.144,11.053a1.727,1.727,0,0,0,2.126-.321l14.076-15.183a92.274,92.274,0,0,0,13.322,3.468l4.556,20a1.726,1.726,0,0,0,1.68,1.34h22.106a1.724,1.724,0,0,0,1.68-1.34l4.6-20.208a92.533,92.533,0,0,0,13.286-3.615l13.927,15.024a1.727,1.727,0,0,0,2.126.321l19.145-11.053a1.723,1.723,0,0,0,.784-2l-6.12-19.812a93.646,93.646,0,0,0,9.679-9.772l19.6,6.055a1.722,1.722,0,0,0,2-.784l11.053-19.145a1.724,1.724,0,0,0-.321-2.126l-15.183-14.074A92.628,92.628,0,0,0,777.1,197.8l20-4.556a1.723,1.723,0,0,0,1.341-1.68V169.456a1.726,1.726,0,0,0-1.341-1.68m-33.8,13.243a77.5,77.5,0,1,1-77.5-77.5,77.586,77.586,0,0,1,77.5,77.5" transform="translate(277.681 33.13)" fill="#54a3a7"/>
      <path id="Trazado_882880" data-name="Trazado 882880" d="M674.348,247.049a77.5,77.5,0,1,1,77.5-77.5,77.586,77.586,0,0,1-77.5,77.5" transform="translate(289.148 44.596)" fill="#fff"/>
      <path id="Trazado_882881" data-name="Trazado 882881" d="M674.91,94.34a75.774,75.774,0,1,1-75.774,75.774A75.86,75.86,0,0,1,674.91,94.34m0-3.447a79.221,79.221,0,1,0,79.221,79.221A79.31,79.31,0,0,0,674.91,90.893" transform="translate(288.586 44.034)" fill="#00565a"/>
      <path id="Trazado_882882" data-name="Trazado 882882" d="M689.462,264.211c-58,0-109.972-38.868-126.4-94.517a.83.83,0,0,1,1.593-.469c16.216,54.949,67.537,93.328,124.8,93.328s108.588-38.379,124.8-93.328a.83.83,0,0,1,1.591.469c-16.423,55.649-68.4,94.517-126.4,94.517" transform="translate(272.765 81.694)" fill="#54d9e1"/>
      <path id="Trazado_882883" data-name="Trazado 882883" d="M740.338,178.509a.831.831,0,0,1-.726-.426l-4.182-7.494-7.492,4.182a.83.83,0,0,1-.809-1.449l8.218-4.587a.845.845,0,0,1,.63-.074.83.83,0,0,1,.5.395l4.585,8.218a.831.831,0,0,1-.723,1.235" transform="translate(352.057 81.694)" fill="#54d9e1"/>
    </g>
    <path id="Trazado_882897" data-name="Trazado 882897" d="M-32.612-4.824V0H-36.04V-14.219h5.674a6.608,6.608,0,0,1,2.886.6,4.526,4.526,0,0,1,1.943,1.709,4.667,4.667,0,0,1,.688,2.515,4.114,4.114,0,0,1-1.489,3.325,6.179,6.179,0,0,1-4.087,1.245Zm0-2.646h2.246a2.118,2.118,0,0,0,1.519-.5,1.85,1.85,0,0,0,.522-1.406,2.287,2.287,0,0,0-.537-1.592,1.9,1.9,0,0,0-1.465-.605h-2.285Zm15.83-.117-1.084-.078a1.947,1.947,0,0,0-1.992.977V0h-3.291V-10.566h3.086l.107,1.357a2.548,2.548,0,0,1,2.314-1.553,3.209,3.209,0,0,1,.918.117Zm.42,2.207A6.236,6.236,0,0,1-15.747-8.2a4.4,4.4,0,0,1,1.768-1.9,5.323,5.323,0,0,1,2.705-.664,4.858,4.858,0,0,1,3.74,1.47,5.64,5.64,0,0,1,1.367,4v.117A5.472,5.472,0,0,1-7.539-1.255,4.871,4.871,0,0,1-11.255.2a4.927,4.927,0,0,1-3.623-1.353,5.29,5.29,0,0,1-1.475-3.667Zm3.291.205a3.932,3.932,0,0,0,.459,2.148,1.529,1.529,0,0,0,1.357.684q1.758,0,1.8-2.705v-.332q0-2.842-1.816-2.842-1.65,0-1.787,2.451ZM-.249-2.344A1.464,1.464,0,0,0,.825-2.72,1.379,1.379,0,0,0,1.2-3.77H4.282A3.653,3.653,0,0,1,3.037-.918,4.631,4.631,0,0,1-.171.2,4.689,4.689,0,0,1-3.8-1.25a5.7,5.7,0,0,1-1.328-4v-.137a6.436,6.436,0,0,1,.591-2.827,4.3,4.3,0,0,1,1.7-1.885A5.081,5.081,0,0,1-.2-10.762,4.573,4.573,0,0,1,3.071-9.619a4.053,4.053,0,0,1,1.211,3.1H1.2a1.807,1.807,0,0,0-.4-1.26A1.382,1.382,0,0,0-.278-8.223q-1.279,0-1.494,1.631a11.508,11.508,0,0,0-.068,1.426A4.52,4.52,0,0,0-1.46-2.959,1.319,1.319,0,0,0-.249-2.344ZM10.786.2a5.432,5.432,0,0,1-3.936-1.45,5.008,5.008,0,0,1-1.5-3.774V-5.3a6.489,6.489,0,0,1,.6-2.861A4.395,4.395,0,0,1,7.7-10.083a5.292,5.292,0,0,1,2.734-.679A4.574,4.574,0,0,1,13.95-9.38a5.43,5.43,0,0,1,1.289,3.853v1.279H8.7a2.372,2.372,0,0,0,.771,1.4,2.3,2.3,0,0,0,1.543.508,2.958,2.958,0,0,0,2.441-1.094l1.5,1.777A4.2,4.2,0,0,1,13.213-.308,5.891,5.891,0,0,1,10.786.2Zm-.371-8.418Q8.97-8.223,8.7-6.309h3.32v-.254a1.63,1.63,0,0,0-.4-1.226A1.593,1.593,0,0,0,10.415-8.223Zm11.68,5.254a.76.76,0,0,0-.439-.674,6.685,6.685,0,0,0-1.67-.527,7.615,7.615,0,0,1-2.031-.718,3.4,3.4,0,0,1-1.221-1.079,2.577,2.577,0,0,1-.42-1.455,2.92,2.92,0,0,1,1.2-2.4,4.948,4.948,0,0,1,3.145-.942,5.482,5.482,0,0,1,3.359.947,2.962,2.962,0,0,1,1.27,2.49h-3.3q0-1.27-1.338-1.27a1.326,1.326,0,0,0-.869.288.892.892,0,0,0-.352.718.819.819,0,0,0,.43.713,4.06,4.06,0,0,0,1.372.449,11.857,11.857,0,0,1,1.655.42,3.007,3.007,0,0,1,2.383,2.939A2.767,2.767,0,0,1,23.984-.713,5.631,5.631,0,0,1,20.659.2a5.747,5.747,0,0,1-2.422-.488,4.05,4.05,0,0,1-1.66-1.328,3.007,3.007,0,0,1-.6-1.768h3.076a1.272,1.272,0,0,0,.488,1.069,2.009,2.009,0,0,0,1.2.337,1.58,1.58,0,0,0,1.011-.273A.875.875,0,0,0,22.095-2.969Zm4.3-2.412A6.236,6.236,0,0,1,27.007-8.2a4.4,4.4,0,0,1,1.768-1.9,5.323,5.323,0,0,1,2.705-.664,4.858,4.858,0,0,1,3.74,1.47,5.64,5.64,0,0,1,1.367,4v.117a5.472,5.472,0,0,1-1.372,3.921A4.871,4.871,0,0,1,31.5.2a4.927,4.927,0,0,1-3.623-1.353A5.29,5.29,0,0,1,26.4-4.824Zm3.291.205a3.932,3.932,0,0,0,.459,2.148,1.529,1.529,0,0,0,1.357.684q1.758,0,1.8-2.705v-.332q0-2.842-1.816-2.842-1.65,0-1.787,2.451ZM-38.066,27.2A5.432,5.432,0,0,1-42,25.745a5.008,5.008,0,0,1-1.5-3.774V21.7a6.489,6.489,0,0,1,.6-2.861,4.395,4.395,0,0,1,1.753-1.919,5.292,5.292,0,0,1,2.734-.679A4.574,4.574,0,0,1-34.9,17.62a5.43,5.43,0,0,1,1.289,3.853v1.279h-6.543a2.372,2.372,0,0,0,.771,1.4,2.3,2.3,0,0,0,1.543.508A2.958,2.958,0,0,0-35.4,23.563l1.5,1.777a4.2,4.2,0,0,1-1.743,1.353A5.891,5.891,0,0,1-38.066,27.2Zm-.371-8.418q-1.445,0-1.719,1.914h3.32v-.254a1.63,1.63,0,0,0-.4-1.226A1.593,1.593,0,0,0-38.437,18.777Zm5.732,2.861a6.455,6.455,0,0,1,1.084-3.955,3.568,3.568,0,0,1,3.027-1.445,3.035,3.035,0,0,1,2.383,1.113V12h3.3V27h-2.959l-.166-1.133A3.116,3.116,0,0,1-28.613,27.2,3.562,3.562,0,0,1-31.6,25.75,6.659,6.659,0,0,1-32.705,21.639Zm3.291.205q0,2.813,1.641,2.813a1.62,1.62,0,0,0,1.563-.918V19.715a1.576,1.576,0,0,0-1.543-.937q-1.523,0-1.65,2.461Zm14.668,4.014A3.393,3.393,0,0,1-17.568,27.2,3.328,3.328,0,0,1-20.2,26.185a4.251,4.251,0,0,1-.894-2.905V16.434H-17.8V23.3a1.183,1.183,0,0,0,1.318,1.357,1.72,1.72,0,0,0,1.611-.811V16.434h3.311V27h-3.086Zm9.453-1.2a1.464,1.464,0,0,0,1.074-.376,1.379,1.379,0,0,0,.371-1.05H-.762a3.653,3.653,0,0,1-1.245,2.852A4.631,4.631,0,0,1-5.215,27.2,4.689,4.689,0,0,1-8.848,25.75a5.7,5.7,0,0,1-1.328-4v-.137a6.436,6.436,0,0,1,.591-2.827,4.3,4.3,0,0,1,1.7-1.885,5.081,5.081,0,0,1,2.637-.659,4.573,4.573,0,0,1,3.271,1.143,4.053,4.053,0,0,1,1.211,3.1H-3.848a1.807,1.807,0,0,0-.4-1.26,1.382,1.382,0,0,0-1.074-.439q-1.279,0-1.494,1.631a11.508,11.508,0,0,0-.068,1.426A4.52,4.52,0,0,0-6.5,24.041,1.319,1.319,0,0,0-5.293,24.656ZM6.582,27a3.716,3.716,0,0,1-.312-.947A3.06,3.06,0,0,1,3.73,27.2a3.749,3.749,0,0,1-2.539-.9A2.875,2.875,0,0,1,.146,24.021a2.955,2.955,0,0,1,1.27-2.6,6.468,6.468,0,0,1,3.691-.879H6.123v-.559q0-1.462-1.26-1.462a1.03,1.03,0,0,0-1.172,1.158H.4a2.95,2.95,0,0,1,1.3-2.487,5.479,5.479,0,0,1,3.325-.956,4.8,4.8,0,0,1,3.193.986,3.429,3.429,0,0,1,1.2,2.705v4.678a4.79,4.79,0,0,0,.449,2.227V27ZM4.521,24.852a1.836,1.836,0,0,0,1.021-.264,1.653,1.653,0,0,0,.581-.6V22.3H5.166q-1.719,0-1.719,1.543a.942.942,0,0,0,.3.728A1.1,1.1,0,0,0,4.521,24.852ZM15.078,13.807v2.627h1.738v2.285H15.078v4.834a1.234,1.234,0,0,0,.215.83,1.152,1.152,0,0,0,.85.234,4.828,4.828,0,0,0,.82-.059v2.354a6.074,6.074,0,0,1-1.855.283,3.448,3.448,0,0,1-2.51-.8,3.282,3.282,0,0,1-.811-2.432V18.719H10.439V16.434h1.348V13.807ZM21.582,27h-3.3V16.434h3.3Zm-3.5-13.3a1.482,1.482,0,0,1,.508-1.159,2.149,2.149,0,0,1,2.637,0,1.577,1.577,0,0,1,0,2.319,2.149,2.149,0,0,1-2.637,0A1.482,1.482,0,0,1,18.086,13.7Zm9.736,9.385,1.67-6.65h3.467L29.512,27H26.152L22.705,16.434h3.477Zm5.557-1.465a6.236,6.236,0,0,1,.615-2.817,4.4,4.4,0,0,1,1.768-1.9,5.323,5.323,0,0,1,2.705-.664,4.858,4.858,0,0,1,3.74,1.47,5.64,5.64,0,0,1,1.367,4v.117A5.472,5.472,0,0,1,42.2,25.745a4.871,4.871,0,0,1-3.716,1.45,4.927,4.927,0,0,1-3.623-1.353,5.29,5.29,0,0,1-1.475-3.667Zm3.291.205a3.932,3.932,0,0,0,.459,2.148,1.529,1.529,0,0,0,1.357.684q1.758,0,1.8-2.705v-.332q0-2.842-1.816-2.842-1.65,0-1.787,2.451Z" transform="translate(391.718 7305.453)" fill="#12263f"/>
    <path id="Trazado_882896" data-name="Trazado 882896" d="M-43.936-5.029h-1.855V0h-3.428V-14.219h5.6A6.246,6.246,0,0,1-39.668-13.1a3.8,3.8,0,0,1,1.426,3.17,4.616,4.616,0,0,1-.6,2.458,4.263,4.263,0,0,1-1.88,1.58l2.969,5.741V0h-3.672Zm-1.855-2.637h2.168a1.946,1.946,0,0,0,1.47-.514,1.987,1.987,0,0,0,.493-1.434,2.01,2.01,0,0,0-.5-1.444,1.928,1.928,0,0,0-1.465-.524h-2.168ZM-31.211.2a5.432,5.432,0,0,1-3.936-1.45,5.008,5.008,0,0,1-1.5-3.774V-5.3a6.489,6.489,0,0,1,.6-2.861A4.395,4.395,0,0,1-34.3-10.083a5.292,5.292,0,0,1,2.734-.679A4.574,4.574,0,0,1-28.047-9.38a5.43,5.43,0,0,1,1.289,3.853v1.279H-33.3a2.372,2.372,0,0,0,.771,1.4,2.3,2.3,0,0,0,1.543.508,2.958,2.958,0,0,0,2.441-1.094l1.5,1.777A4.2,4.2,0,0,1-28.784-.308,5.891,5.891,0,0,1-31.211.2Zm-.371-8.418q-1.445,0-1.719,1.914h3.32v-.254a1.63,1.63,0,0,0-.4-1.226A1.593,1.593,0,0,0-31.582-8.223ZM-19.9-2.969a.76.76,0,0,0-.439-.674,6.685,6.685,0,0,0-1.67-.527,7.615,7.615,0,0,1-2.031-.718,3.4,3.4,0,0,1-1.221-1.079,2.577,2.577,0,0,1-.42-1.455,2.92,2.92,0,0,1,1.2-2.4,4.948,4.948,0,0,1,3.145-.942,5.482,5.482,0,0,1,3.359.947,2.962,2.962,0,0,1,1.27,2.49h-3.3q0-1.27-1.338-1.27a1.326,1.326,0,0,0-.869.288.892.892,0,0,0-.352.718.819.819,0,0,0,.43.713,4.06,4.06,0,0,0,1.372.449,11.857,11.857,0,0,1,1.655.42,3.007,3.007,0,0,1,2.383,2.939A2.767,2.767,0,0,1-18.013-.713,5.631,5.631,0,0,1-21.338.2,5.747,5.747,0,0,1-23.76-.293a4.05,4.05,0,0,1-1.66-1.328,3.007,3.007,0,0,1-.6-1.768h3.076a1.272,1.272,0,0,0,.488,1.069,2.009,2.009,0,0,0,1.2.337,1.58,1.58,0,0,0,1.011-.273A.875.875,0,0,0-19.9-2.969Zm4.3-2.412A6.236,6.236,0,0,1-14.99-8.2a4.4,4.4,0,0,1,1.768-1.9,5.323,5.323,0,0,1,2.705-.664,4.858,4.858,0,0,1,3.74,1.47,5.64,5.64,0,0,1,1.367,4v.117A5.472,5.472,0,0,1-6.782-1.255,4.871,4.871,0,0,1-10.5.2a4.927,4.927,0,0,1-3.623-1.353A5.29,5.29,0,0,1-15.6-4.824Zm3.291.205a3.932,3.932,0,0,0,.459,2.148,1.529,1.529,0,0,0,1.357.684q1.758,0,1.8-2.705v-.332q0-2.842-1.816-2.842-1.65,0-1.787,2.451ZM-.488,0h-3.3V-15h3.3Zm8.32-1.143A3.393,3.393,0,0,1,5.01.2,3.328,3.328,0,0,1,2.378-.815a4.251,4.251,0,0,1-.894-2.905v-6.846H4.775V-3.7A1.183,1.183,0,0,0,6.094-2.344a1.72,1.72,0,0,0,1.611-.811v-7.412h3.311V0H7.93Zm9.453-1.2a1.464,1.464,0,0,0,1.074-.376,1.379,1.379,0,0,0,.371-1.05h3.086A3.653,3.653,0,0,1,20.571-.918,4.631,4.631,0,0,1,17.363.2,4.689,4.689,0,0,1,13.73-1.25a5.7,5.7,0,0,1-1.328-4v-.137a6.436,6.436,0,0,1,.591-2.827A4.3,4.3,0,0,1,14.7-10.1a5.081,5.081,0,0,1,2.637-.659,4.573,4.573,0,0,1,3.271,1.143,4.053,4.053,0,0,1,1.211,3.1H18.73a1.807,1.807,0,0,0-.4-1.26,1.382,1.382,0,0,0-1.074-.439q-1.279,0-1.494,1.631a11.508,11.508,0,0,0-.068,1.426,4.52,4.52,0,0,0,.381,2.207A1.319,1.319,0,0,0,17.285-2.344ZM26.68,0h-3.3V-10.566h3.3Zm-3.5-13.3a1.482,1.482,0,0,1,.508-1.159,1.909,1.909,0,0,1,1.318-.452,1.909,1.909,0,0,1,1.318.452,1.482,1.482,0,0,1,.508,1.159,1.482,1.482,0,0,1-.508,1.159,1.909,1.909,0,0,1-1.318.452,1.909,1.909,0,0,1-1.318-.452A1.482,1.482,0,0,1,23.184-13.3Zm5.107,7.92A6.236,6.236,0,0,1,28.906-8.2a4.4,4.4,0,0,1,1.768-1.9,5.323,5.323,0,0,1,2.705-.664,4.858,4.858,0,0,1,3.74,1.47,5.64,5.64,0,0,1,1.367,4v.117a5.472,5.472,0,0,1-1.372,3.921A4.871,4.871,0,0,1,33.4.2a4.927,4.927,0,0,1-3.623-1.353A5.29,5.29,0,0,1,28.3-4.824Zm3.291.205a3.932,3.932,0,0,0,.459,2.148,1.529,1.529,0,0,0,1.357.684q1.758,0,1.8-2.705v-.332q0-2.842-1.816-2.842-1.65,0-1.787,2.451ZM33.828-15H37.3L34.59-11.934l-2.686,0Zm9.131,4.434.107,1.24a3.583,3.583,0,0,1,3.018-1.436,3.015,3.015,0,0,1,2.466.986,4.7,4.7,0,0,1,.845,2.969V0h-3.3V-6.67a1.783,1.783,0,0,0-.322-1.177A1.491,1.491,0,0,0,44.6-8.223a1.569,1.569,0,0,0-1.436.762V0H39.873V-10.566ZM-21.108,21.639a6.455,6.455,0,0,1,1.084-3.955A3.568,3.568,0,0,1-17,16.238a3.035,3.035,0,0,1,2.383,1.113V12h3.3V27h-2.959l-.166-1.133A3.116,3.116,0,0,1-17.017,27.2,3.562,3.562,0,0,1-20,25.75,6.659,6.659,0,0,1-21.108,21.639Zm3.291.205q0,2.813,1.641,2.813a1.62,1.62,0,0,0,1.563-.918V19.715a1.576,1.576,0,0,0-1.543-.937q-1.523,0-1.65,2.461ZM-4.331,27.2a5.432,5.432,0,0,1-3.936-1.45,5.008,5.008,0,0,1-1.5-3.774V21.7a6.489,6.489,0,0,1,.6-2.861,4.395,4.395,0,0,1,1.753-1.919,5.292,5.292,0,0,1,2.734-.679A4.574,4.574,0,0,1-1.167,17.62,5.43,5.43,0,0,1,.122,21.473v1.279H-6.421a2.372,2.372,0,0,0,.771,1.4,2.3,2.3,0,0,0,1.543.508,2.958,2.958,0,0,0,2.441-1.094l1.5,1.777A4.2,4.2,0,0,1-1.9,26.692,5.891,5.891,0,0,1-4.331,27.2ZM-4.7,18.777q-1.445,0-1.719,1.914H-3.1v-.254a1.63,1.63,0,0,0-.4-1.226A1.593,1.593,0,0,0-4.7,18.777ZM9.9,27H6.6V12H9.9Zm7.979,0a3.716,3.716,0,0,1-.312-.947A3.06,3.06,0,0,1,15.024,27.2a3.749,3.749,0,0,1-2.539-.9,2.875,2.875,0,0,1-1.045-2.271,2.955,2.955,0,0,1,1.27-2.6,6.468,6.468,0,0,1,3.691-.879h1.016v-.559q0-1.462-1.26-1.462a1.03,1.03,0,0,0-1.172,1.158H11.694A2.95,2.95,0,0,1,13,17.194a5.479,5.479,0,0,1,3.325-.956,4.8,4.8,0,0,1,3.193.986,3.429,3.429,0,0,1,1.2,2.705v4.678a4.79,4.79,0,0,0,.449,2.227V27Zm-2.061-2.148a1.836,1.836,0,0,0,1.021-.264,1.653,1.653,0,0,0,.581-.6V22.3H16.46q-1.719,0-1.719,1.543a.942.942,0,0,0,.3.728A1.1,1.1,0,0,0,15.815,24.852ZM-50.142,54h-3.3V43.434h3.3Zm-3.5-13.3a1.482,1.482,0,0,1,.508-1.159,1.909,1.909,0,0,1,1.318-.452,1.909,1.909,0,0,1,1.318.452,1.482,1.482,0,0,1,.508,1.159,1.482,1.482,0,0,1-.508,1.159,1.909,1.909,0,0,1-1.318.452,1.909,1.909,0,0,1-1.318-.452A1.482,1.482,0,0,1-53.638,40.7Zm8.545,2.734.107,1.24a3.583,3.583,0,0,1,3.018-1.436,3.015,3.015,0,0,1,2.466.986,4.7,4.7,0,0,1,.845,2.969V54h-3.3V47.33a1.783,1.783,0,0,0-.322-1.177,1.491,1.491,0,0,0-1.172-.376,1.569,1.569,0,0,0-1.436.762V54h-3.291V43.434ZM-36.108,54V45.719h-1.533V43.434h1.533v-.84a3.651,3.651,0,0,1,1.064-2.8,4.206,4.206,0,0,1,2.988-1A6.544,6.544,0,0,1-30.513,39l.01,2.422a3.007,3.007,0,0,0-.811-.088q-1.494,0-1.494,1.289v.811h2.061v2.285h-2.061V54Zm6.1-5.381A6.236,6.236,0,0,1-29.39,45.8a4.4,4.4,0,0,1,1.768-1.9,5.323,5.323,0,0,1,2.705-.664,4.858,4.858,0,0,1,3.74,1.47,5.64,5.64,0,0,1,1.367,4v.117a5.472,5.472,0,0,1-1.372,3.921A4.871,4.871,0,0,1-24.9,54.2a4.927,4.927,0,0,1-3.623-1.353A5.29,5.29,0,0,1-30,49.176Zm3.291.205a3.932,3.932,0,0,0,.459,2.148,1.529,1.529,0,0,0,1.357.684q1.758,0,1.8-2.705v-.332q0-2.842-1.816-2.842-1.65,0-1.787,2.451Zm14.746-2.412-1.084-.078a1.947,1.947,0,0,0-1.992.977V54h-3.291V43.434h3.086l.107,1.357a2.548,2.548,0,0,1,2.314-1.553,3.209,3.209,0,0,1,.918.117Zm4.3-2.979.107,1.24a3.633,3.633,0,0,1,3.018-1.436A2.675,2.675,0,0,1-1.841,44.83a3.516,3.516,0,0,1,3.105-1.592q3.213,0,3.3,3.887V54h-3.3V47.33a2.014,2.014,0,0,0-.273-1.182,1.164,1.164,0,0,0-1-.371,1.559,1.559,0,0,0-1.455.869l.01.137V54h-3.3V47.35a2.117,2.117,0,0,0-.264-1.2,1.161,1.161,0,0,0-1.006-.371,1.578,1.578,0,0,0-1.445.869V54h-3.291V43.434ZM12.4,54a3.716,3.716,0,0,1-.312-.947A3.06,3.06,0,0,1,9.546,54.2a3.749,3.749,0,0,1-2.539-.9,2.875,2.875,0,0,1-1.045-2.271,2.955,2.955,0,0,1,1.27-2.6,6.468,6.468,0,0,1,3.691-.879h1.016v-.559q0-1.462-1.26-1.462a1.03,1.03,0,0,0-1.172,1.158H6.216a2.95,2.95,0,0,1,1.3-2.487,5.479,5.479,0,0,1,3.325-.956,4.8,4.8,0,0,1,3.193.986,3.429,3.429,0,0,1,1.2,2.705v4.678a4.79,4.79,0,0,0,.449,2.227V54Zm-2.061-2.148a1.836,1.836,0,0,0,1.021-.264,1.653,1.653,0,0,0,.581-.6V49.3h-.957q-1.719,0-1.719,1.543a.942.942,0,0,0,.3.728A1.1,1.1,0,0,0,10.337,51.852Zm11.191-.2A1.464,1.464,0,0,0,22.6,51.28a1.379,1.379,0,0,0,.371-1.05H26.06a3.653,3.653,0,0,1-1.245,2.852A4.631,4.631,0,0,1,21.606,54.2a4.689,4.689,0,0,1-3.633-1.445,5.7,5.7,0,0,1-1.328-4v-.137a6.436,6.436,0,0,1,.591-2.827,4.3,4.3,0,0,1,1.7-1.885,5.081,5.081,0,0,1,2.637-.659,4.573,4.573,0,0,1,3.271,1.143,4.053,4.053,0,0,1,1.211,3.1H22.974a1.807,1.807,0,0,0-.4-1.26,1.382,1.382,0,0,0-1.074-.439q-1.279,0-1.494,1.631a11.508,11.508,0,0,0-.068,1.426,4.52,4.52,0,0,0,.381,2.207A1.319,1.319,0,0,0,21.528,51.656ZM30.923,54h-3.3V43.434h3.3Zm-3.5-13.3a1.482,1.482,0,0,1,.508-1.159,2.149,2.149,0,0,1,2.637,0,1.577,1.577,0,0,1,0,2.319,2.149,2.149,0,0,1-2.637,0A1.482,1.482,0,0,1,27.427,40.7Zm5.107,7.92a6.236,6.236,0,0,1,.615-2.817,4.4,4.4,0,0,1,1.768-1.9,5.323,5.323,0,0,1,2.705-.664,4.858,4.858,0,0,1,3.74,1.47,5.64,5.64,0,0,1,1.367,4v.117a5.472,5.472,0,0,1-1.372,3.921,4.871,4.871,0,0,1-3.716,1.45,4.927,4.927,0,0,1-3.623-1.353,5.29,5.29,0,0,1-1.475-3.667Zm3.291.205a3.932,3.932,0,0,0,.459,2.148,1.529,1.529,0,0,0,1.357.684q1.758,0,1.8-2.705v-.332q0-2.842-1.816-2.842-1.65,0-1.787,2.451ZM38.071,39h3.477l-2.715,3.066-2.686,0ZM47.2,43.434l.107,1.24a3.583,3.583,0,0,1,3.018-1.436,3.015,3.015,0,0,1,2.466.986,4.7,4.7,0,0,1,.845,2.969V54h-3.3V47.33a1.783,1.783,0,0,0-.322-1.177,1.491,1.491,0,0,0-1.172-.376,1.569,1.569,0,0,0-1.436.762V54H44.116V43.434Z" transform="translate(1231.718 7291.953)" fill="#12263f"/>
    <path id="Trazado_882898" data-name="Trazado 882898" d="M-46.172-4.824V0H-49.6V-14.219h5.674a6.608,6.608,0,0,1,2.886.6A4.526,4.526,0,0,1-39.1-11.909a4.667,4.667,0,0,1,.688,2.515A4.114,4.114,0,0,1-39.9-6.069a6.179,6.179,0,0,1-4.087,1.245Zm0-2.646h2.246a2.118,2.118,0,0,0,1.519-.5,1.85,1.85,0,0,0,.522-1.406,2.287,2.287,0,0,0-.537-1.592,1.9,1.9,0,0,0-1.465-.605h-2.285Zm15.83-.117-1.084-.078a1.947,1.947,0,0,0-1.992.977V0h-3.291V-10.566h3.086l.107,1.357A2.548,2.548,0,0,1-31.2-10.762a3.209,3.209,0,0,1,.918.117Zm.42,2.207A6.236,6.236,0,0,1-29.307-8.2a4.4,4.4,0,0,1,1.768-1.9,5.323,5.323,0,0,1,2.705-.664,4.858,4.858,0,0,1,3.74,1.47,5.64,5.64,0,0,1,1.367,4v.117A5.472,5.472,0,0,1-21.1-1.255,4.871,4.871,0,0,1-24.814.2a4.927,4.927,0,0,1-3.623-1.353,5.29,5.29,0,0,1-1.475-3.667Zm3.291.205a3.932,3.932,0,0,0,.459,2.148,1.529,1.529,0,0,0,1.357.684q1.758,0,1.8-2.705v-.332q0-2.842-1.816-2.842-1.65,0-1.787,2.451Zm12.822,2.832a1.464,1.464,0,0,0,1.074-.376,1.379,1.379,0,0,0,.371-1.05h3.086A3.653,3.653,0,0,1-10.522-.918,4.631,4.631,0,0,1-13.73.2,4.689,4.689,0,0,1-17.363-1.25a5.7,5.7,0,0,1-1.328-4v-.137A6.436,6.436,0,0,1-18.1-8.218,4.3,4.3,0,0,1-16.4-10.1a5.081,5.081,0,0,1,2.637-.659,4.573,4.573,0,0,1,3.271,1.143,4.053,4.053,0,0,1,1.211,3.1h-3.086a1.807,1.807,0,0,0-.4-1.26,1.382,1.382,0,0,0-1.074-.439q-1.279,0-1.494,1.631A11.508,11.508,0,0,0-15.4-5.166a4.52,4.52,0,0,0,.381,2.207A1.319,1.319,0,0,0-13.809-2.344ZM-2.773.2a5.432,5.432,0,0,1-3.936-1.45,5.008,5.008,0,0,1-1.5-3.774V-5.3a6.489,6.489,0,0,1,.6-2.861,4.395,4.395,0,0,1,1.753-1.919,5.292,5.292,0,0,1,2.734-.679A4.574,4.574,0,0,1,.391-9.38,5.43,5.43,0,0,1,1.68-5.527v1.279H-4.863a2.372,2.372,0,0,0,.771,1.4,2.3,2.3,0,0,0,1.543.508A2.958,2.958,0,0,0-.107-3.437L1.4-1.66A4.2,4.2,0,0,1-.347-.308,5.891,5.891,0,0,1-2.773.2Zm-.371-8.418q-1.445,0-1.719,1.914h3.32v-.254a1.63,1.63,0,0,0-.4-1.226A1.593,1.593,0,0,0-3.145-8.223ZM8.535-2.969A.76.76,0,0,0,8.1-3.643a6.685,6.685,0,0,0-1.67-.527,7.615,7.615,0,0,1-2.031-.718A3.4,3.4,0,0,1,3.174-5.967a2.577,2.577,0,0,1-.42-1.455,2.92,2.92,0,0,1,1.2-2.4A4.948,4.948,0,0,1,7.1-10.762a5.482,5.482,0,0,1,3.359.947,2.962,2.962,0,0,1,1.27,2.49h-3.3q0-1.27-1.338-1.27a1.326,1.326,0,0,0-.869.288.892.892,0,0,0-.352.718.819.819,0,0,0,.43.713,4.06,4.06,0,0,0,1.372.449,11.857,11.857,0,0,1,1.655.42,3.007,3.007,0,0,1,2.383,2.939A2.767,2.767,0,0,1,10.425-.713,5.632,5.632,0,0,1,7.1.2,5.747,5.747,0,0,1,4.678-.293a4.05,4.05,0,0,1-1.66-1.328,3.007,3.007,0,0,1-.6-1.768H5.5a1.272,1.272,0,0,0,.488,1.069,2.009,2.009,0,0,0,1.2.337A1.58,1.58,0,0,0,8.2-2.256.875.875,0,0,0,8.535-2.969Zm4.3-2.412A6.236,6.236,0,0,1,13.447-8.2a4.4,4.4,0,0,1,1.768-1.9,5.323,5.323,0,0,1,2.705-.664,4.858,4.858,0,0,1,3.74,1.47,5.64,5.64,0,0,1,1.367,4v.117a5.472,5.472,0,0,1-1.372,3.921A4.871,4.871,0,0,1,17.939.2a4.927,4.927,0,0,1-3.623-1.353,5.29,5.29,0,0,1-1.475-3.667Zm3.291.205a3.932,3.932,0,0,0,.459,2.148,1.529,1.529,0,0,0,1.357.684q1.758,0,1.8-2.705v-.332q0-2.842-1.816-2.842-1.65,0-1.787,2.451Zm12.92-.186a6.455,6.455,0,0,1,1.084-3.955,3.568,3.568,0,0,1,3.027-1.445,3.035,3.035,0,0,1,2.383,1.113V-15h3.3V0H35.879l-.166-1.133A3.116,3.116,0,0,1,33.135.2,3.562,3.562,0,0,1,30.146-1.25,6.659,6.659,0,0,1,29.043-5.361Zm3.291.205q0,2.813,1.641,2.813a1.62,1.62,0,0,0,1.563-.918V-7.285a1.576,1.576,0,0,0-1.543-.937q-1.523,0-1.65,2.461ZM45.82.2a5.432,5.432,0,0,1-3.936-1.45,5.008,5.008,0,0,1-1.5-3.774V-5.3a6.489,6.489,0,0,1,.6-2.861,4.395,4.395,0,0,1,1.753-1.919,5.292,5.292,0,0,1,2.734-.679A4.574,4.574,0,0,1,48.984-9.38a5.43,5.43,0,0,1,1.289,3.853v1.279H43.73a2.372,2.372,0,0,0,.771,1.4,2.3,2.3,0,0,0,1.543.508,2.958,2.958,0,0,0,2.441-1.094l1.5,1.777A4.2,4.2,0,0,1,48.247-.308,5.891,5.891,0,0,1,45.82.2Zm-.371-8.418Q44-8.223,43.73-6.309h3.32v-.254a1.63,1.63,0,0,0-.4-1.226A1.593,1.593,0,0,0,45.449-8.223ZM-45.122,21.639a6.455,6.455,0,0,1,1.084-3.955,3.568,3.568,0,0,1,3.027-1.445,3.035,3.035,0,0,1,2.383,1.113V12h3.3V27h-2.959l-.166-1.133A3.116,3.116,0,0,1-41.03,27.2a3.562,3.562,0,0,1-2.988-1.445A6.659,6.659,0,0,1-45.122,21.639Zm3.291.205q0,2.813,1.641,2.813a1.62,1.62,0,0,0,1.563-.918V19.715a1.576,1.576,0,0,0-1.543-.937q-1.523,0-1.65,2.461ZM-28.345,27.2a5.432,5.432,0,0,1-3.936-1.45,5.008,5.008,0,0,1-1.5-3.774V21.7a6.489,6.489,0,0,1,.6-2.861,4.395,4.395,0,0,1,1.753-1.919,5.292,5.292,0,0,1,2.734-.679,4.574,4.574,0,0,1,3.516,1.382,5.43,5.43,0,0,1,1.289,3.853v1.279h-6.543a2.372,2.372,0,0,0,.771,1.4,2.3,2.3,0,0,0,1.543.508,2.958,2.958,0,0,0,2.441-1.094l1.5,1.777a4.2,4.2,0,0,1-1.743,1.353A5.891,5.891,0,0,1-28.345,27.2Zm-.371-8.418q-1.445,0-1.719,1.914h3.32v-.254a1.63,1.63,0,0,0-.4-1.226A1.593,1.593,0,0,0-28.716,18.777Zm11.68,5.254a.76.76,0,0,0-.439-.674,6.684,6.684,0,0,0-1.67-.527,7.615,7.615,0,0,1-2.031-.718A3.4,3.4,0,0,1-22.4,21.033a2.577,2.577,0,0,1-.42-1.455,2.92,2.92,0,0,1,1.2-2.4,4.948,4.948,0,0,1,3.145-.942,5.482,5.482,0,0,1,3.359.947,2.962,2.962,0,0,1,1.27,2.49h-3.3q0-1.27-1.338-1.27a1.326,1.326,0,0,0-.869.288.892.892,0,0,0-.352.718.819.819,0,0,0,.43.713,4.06,4.06,0,0,0,1.372.449,11.857,11.857,0,0,1,1.655.42,3.007,3.007,0,0,1,2.383,2.939,2.767,2.767,0,0,1-1.284,2.354,5.631,5.631,0,0,1-3.325.908,5.747,5.747,0,0,1-2.422-.488,4.05,4.05,0,0,1-1.66-1.328,3.007,3.007,0,0,1-.6-1.768h3.076a1.272,1.272,0,0,0,.488,1.069,2.009,2.009,0,0,0,1.2.337,1.58,1.58,0,0,0,1.011-.273A.875.875,0,0,0-17.036,24.031ZM-6.372,27a3.716,3.716,0,0,1-.312-.947A3.06,3.06,0,0,1-9.224,27.2a3.749,3.749,0,0,1-2.539-.9,2.875,2.875,0,0,1-1.045-2.271,2.955,2.955,0,0,1,1.27-2.6,6.468,6.468,0,0,1,3.691-.879h1.016v-.559q0-1.462-1.26-1.462a1.03,1.03,0,0,0-1.172,1.158h-3.291a2.95,2.95,0,0,1,1.3-2.487,5.479,5.479,0,0,1,3.325-.956,4.8,4.8,0,0,1,3.193.986,3.429,3.429,0,0,1,1.2,2.705v4.678a4.79,4.79,0,0,0,.449,2.227V27Zm-2.061-2.148a1.836,1.836,0,0,0,1.021-.264,1.653,1.653,0,0,0,.581-.6V22.3h-.957q-1.719,0-1.719,1.543a.942.942,0,0,0,.3.728A1.1,1.1,0,0,0-8.433,24.852ZM4.683,19.412,3.6,19.334a1.947,1.947,0,0,0-1.992.977V27H-1.685V16.434H1.4l.107,1.357a2.548,2.548,0,0,1,2.314-1.553,3.209,3.209,0,0,1,.918.117Zm7.578,0-1.084-.078a1.947,1.947,0,0,0-1.992.977V27H5.894V16.434H8.979l.107,1.357A2.548,2.548,0,0,1,11.4,16.238a3.209,3.209,0,0,1,.918.117Zm.42,2.207A6.236,6.236,0,0,1,13.3,18.8a4.4,4.4,0,0,1,1.768-1.9,5.323,5.323,0,0,1,2.705-.664,4.858,4.858,0,0,1,3.74,1.47,5.64,5.64,0,0,1,1.367,4v.117A5.472,5.472,0,0,1,21.5,25.745a4.871,4.871,0,0,1-3.716,1.45,4.927,4.927,0,0,1-3.623-1.353,5.29,5.29,0,0,1-1.475-3.667Zm3.291.205a3.932,3.932,0,0,0,.459,2.148,1.529,1.529,0,0,0,1.357.684q1.758,0,1.8-2.705v-.332q0-2.842-1.816-2.842-1.65,0-1.787,2.451ZM27.8,27H24.5V12h3.3Zm5.5,0H30V12h3.3Zm1.611-5.381a6.236,6.236,0,0,1,.615-2.817,4.4,4.4,0,0,1,1.768-1.9A5.323,5.323,0,0,1,40,16.238a4.858,4.858,0,0,1,3.74,1.47,5.64,5.64,0,0,1,1.367,4v.117a5.472,5.472,0,0,1-1.372,3.921,4.871,4.871,0,0,1-3.716,1.45,4.927,4.927,0,0,1-3.623-1.353,5.29,5.29,0,0,1-1.475-3.667Zm3.291.205a3.932,3.932,0,0,0,.459,2.148,1.529,1.529,0,0,0,1.357.684q1.758,0,1.8-2.705v-.332q0-2.842-1.816-2.842-1.65,0-1.787,2.451ZM-32.319,44.566a3.294,3.294,0,0,1,2.7-1.328,3.284,3.284,0,0,1,2.637,1.035,4.651,4.651,0,0,1,.908,3.057V54h-3.3V47.408a1.86,1.86,0,0,0-.342-1.235,1.469,1.469,0,0,0-1.162-.4,1.582,1.582,0,0,0-1.436.645V54H-35.61V39h3.291Zm14.365,8.291A3.393,3.393,0,0,1-20.776,54.2a3.328,3.328,0,0,1-2.632-1.011,4.251,4.251,0,0,1-.894-2.905V43.434h3.291V50.3a1.183,1.183,0,0,0,1.318,1.357,1.72,1.72,0,0,0,1.611-.811V43.434h3.311V54h-3.086Zm8.1-9.424.107,1.24a3.633,3.633,0,0,1,3.018-1.436A2.675,2.675,0,0,1-4.028,44.83,3.516,3.516,0,0,1-.923,43.238q3.213,0,3.3,3.887V54h-3.3V47.33A2.014,2.014,0,0,0-1.2,46.148a1.164,1.164,0,0,0-1-.371,1.559,1.559,0,0,0-1.455.869l.01.137V54h-3.3V47.35a2.117,2.117,0,0,0-.264-1.2,1.161,1.161,0,0,0-1.006-.371,1.578,1.578,0,0,0-1.445.869V54h-3.291V43.434ZM10.21,54a3.716,3.716,0,0,1-.312-.947A3.06,3.06,0,0,1,7.358,54.2a3.749,3.749,0,0,1-2.539-.9,2.875,2.875,0,0,1-1.045-2.271,2.955,2.955,0,0,1,1.27-2.6,6.468,6.468,0,0,1,3.691-.879H9.751v-.559q0-1.462-1.26-1.462a1.03,1.03,0,0,0-1.172,1.158H4.028a2.95,2.95,0,0,1,1.3-2.487,5.479,5.479,0,0,1,3.325-.956,4.8,4.8,0,0,1,3.193.986,3.429,3.429,0,0,1,1.2,2.705v4.678a4.79,4.79,0,0,0,.449,2.227V54ZM8.149,51.852a1.836,1.836,0,0,0,1.021-.264,1.653,1.653,0,0,0,.581-.6V49.3H8.794q-1.719,0-1.719,1.543a.942.942,0,0,0,.3.728A1.1,1.1,0,0,0,8.149,51.852ZM17.9,43.434,18,44.674a3.583,3.583,0,0,1,3.018-1.436,3.015,3.015,0,0,1,2.466.986,4.7,4.7,0,0,1,.845,2.969V54h-3.3V47.33a1.783,1.783,0,0,0-.322-1.177,1.491,1.491,0,0,0-1.172-.376,1.569,1.569,0,0,0-1.436.762V54H14.81V43.434Zm7.842,5.186a6.236,6.236,0,0,1,.615-2.817,4.4,4.4,0,0,1,1.768-1.9,5.323,5.323,0,0,1,2.705-.664,4.858,4.858,0,0,1,3.74,1.47,5.64,5.64,0,0,1,1.367,4v.117a5.472,5.472,0,0,1-1.372,3.921,4.871,4.871,0,0,1-3.716,1.45,4.927,4.927,0,0,1-3.623-1.353,5.29,5.29,0,0,1-1.475-3.667Zm3.291.205a3.932,3.932,0,0,0,.459,2.148,1.529,1.529,0,0,0,1.357.684q1.758,0,1.8-2.705v-.332q0-2.842-1.816-2.842-1.65,0-1.787,2.451Z" transform="translate(602.718 7211.953)" fill="#12263f"/>
    <path id="Trazado_882895" data-name="Trazado 882895" d="M-59.307,0h-3.418V-14.219h3.418Zm5.254-10.566.107,1.24a3.583,3.583,0,0,1,3.018-1.436,3.015,3.015,0,0,1,2.466.986,4.7,4.7,0,0,1,.845,2.969V0h-3.3V-6.67a1.783,1.783,0,0,0-.322-1.177,1.491,1.491,0,0,0-1.172-.376,1.569,1.569,0,0,0-1.436.762V0h-3.291V-10.566Zm12.09-2.627v2.627h1.738v2.285h-1.738v4.834a1.234,1.234,0,0,0,.215.83,1.152,1.152,0,0,0,.85.234,4.828,4.828,0,0,0,.82-.059V-.088A6.074,6.074,0,0,1-41.934.2a3.448,3.448,0,0,1-2.51-.8,3.282,3.282,0,0,1-.811-2.432V-8.281H-46.6v-2.285h1.348v-2.627ZM-33.818.2a5.432,5.432,0,0,1-3.936-1.45,5.008,5.008,0,0,1-1.5-3.774V-5.3a6.489,6.489,0,0,1,.6-2.861A4.395,4.395,0,0,1-36.9-10.083a5.292,5.292,0,0,1,2.734-.679A4.574,4.574,0,0,1-30.654-9.38a5.43,5.43,0,0,1,1.289,3.853v1.279h-6.543a2.372,2.372,0,0,0,.771,1.4,2.3,2.3,0,0,0,1.543.508,2.958,2.958,0,0,0,2.441-1.094l1.5,1.777A4.2,4.2,0,0,1-31.392-.308,5.891,5.891,0,0,1-33.818.2Zm-.371-8.418q-1.445,0-1.719,1.914h3.32v-.254a1.63,1.63,0,0,0-.4-1.226A1.593,1.593,0,0,0-34.189-8.223Zm12.539.635-1.084-.078a1.947,1.947,0,0,0-1.992.977V0h-3.291V-10.566h3.086l.107,1.357a2.548,2.548,0,0,1,2.314-1.553,3.209,3.209,0,0,1,.918.117Zm11,2.383a6.372,6.372,0,0,1-1.108,3.931A3.554,3.554,0,0,1-14.756.2,3.046,3.046,0,0,1-17.148-.869V4.063h-3.291V-10.566h3.076l.1.977a3.046,3.046,0,0,1,2.49-1.172,3.582,3.582,0,0,1,3.037,1.44,6.45,6.45,0,0,1,1.084,3.96Zm-3.291-.205q0-2.812-1.641-2.812a1.549,1.549,0,0,0-1.562.84v4.16a1.6,1.6,0,0,0,1.582.879q1.572,0,1.621-2.715ZM-2.812-7.588-3.9-7.666a1.947,1.947,0,0,0-1.992.977V0H-9.18V-10.566h3.086l.107,1.357a2.548,2.548,0,0,1,2.314-1.553,3.209,3.209,0,0,1,.918.117ZM3.3.2A5.432,5.432,0,0,1-.635-1.255a5.008,5.008,0,0,1-1.5-3.774V-5.3a6.489,6.489,0,0,1,.6-2.861A4.395,4.395,0,0,1,.215-10.083a5.292,5.292,0,0,1,2.734-.679A4.574,4.574,0,0,1,6.465-9.38,5.43,5.43,0,0,1,7.754-5.527v1.279H1.211a2.372,2.372,0,0,0,.771,1.4,2.3,2.3,0,0,0,1.543.508A2.958,2.958,0,0,0,5.967-3.437l1.5,1.777A4.2,4.2,0,0,1,5.728-.308,5.891,5.891,0,0,1,3.3.2ZM2.93-8.223q-1.445,0-1.719,1.914h3.32v-.254a1.63,1.63,0,0,0-.4-1.226A1.593,1.593,0,0,0,2.93-8.223Zm9.98-4.971v2.627h1.738v2.285H12.91v4.834a1.234,1.234,0,0,0,.215.83,1.152,1.152,0,0,0,.85.234,4.828,4.828,0,0,0,.82-.059V-.088A6.074,6.074,0,0,1,12.939.2a3.448,3.448,0,0,1-2.51-.8,3.282,3.282,0,0,1-.811-2.432V-8.281H8.271v-2.285H9.619v-2.627ZM21.895,0a3.716,3.716,0,0,1-.312-.947A3.06,3.06,0,0,1,19.043.2a3.749,3.749,0,0,1-2.539-.9,2.875,2.875,0,0,1-1.045-2.271,2.955,2.955,0,0,1,1.27-2.6,6.468,6.468,0,0,1,3.691-.879h1.016v-.559q0-1.462-1.26-1.462A1.03,1.03,0,0,0,19-7.319H15.713a2.95,2.95,0,0,1,1.3-2.487,5.479,5.479,0,0,1,3.325-.956,4.8,4.8,0,0,1,3.193.986,3.429,3.429,0,0,1,1.2,2.705v4.678a4.79,4.79,0,0,0,.449,2.227V0ZM19.834-2.148a1.836,1.836,0,0,0,1.021-.264,1.653,1.653,0,0,0,.581-.6V-4.7h-.957q-1.719,0-1.719,1.543a.942.942,0,0,0,.3.728A1.1,1.1,0,0,0,19.834-2.148Zm11.191-.2A1.464,1.464,0,0,0,32.1-2.72a1.379,1.379,0,0,0,.371-1.05h3.086A3.653,3.653,0,0,1,34.312-.918,4.631,4.631,0,0,1,31.1.2,4.689,4.689,0,0,1,27.471-1.25a5.7,5.7,0,0,1-1.328-4v-.137a6.436,6.436,0,0,1,.591-2.827,4.3,4.3,0,0,1,1.7-1.885,5.081,5.081,0,0,1,2.637-.659,4.573,4.573,0,0,1,3.271,1.143,4.053,4.053,0,0,1,1.211,3.1H32.471a1.807,1.807,0,0,0-.4-1.26A1.382,1.382,0,0,0,31-8.223q-1.279,0-1.494,1.631a11.508,11.508,0,0,0-.068,1.426,4.52,4.52,0,0,0,.381,2.207A1.319,1.319,0,0,0,31.025-2.344ZM40.42,0h-3.3V-10.566h3.3Zm-3.5-13.3a1.482,1.482,0,0,1,.508-1.159,1.909,1.909,0,0,1,1.318-.452,1.909,1.909,0,0,1,1.318.452,1.482,1.482,0,0,1,.508,1.159,1.482,1.482,0,0,1-.508,1.159,1.909,1.909,0,0,1-1.318.452,1.909,1.909,0,0,1-1.318-.452A1.482,1.482,0,0,1,36.924-13.3Zm5.107,7.92A6.236,6.236,0,0,1,42.646-8.2a4.4,4.4,0,0,1,1.768-1.9,5.323,5.323,0,0,1,2.705-.664,4.858,4.858,0,0,1,3.74,1.47,5.64,5.64,0,0,1,1.367,4v.117a5.472,5.472,0,0,1-1.372,3.921A4.871,4.871,0,0,1,47.139.2a4.927,4.927,0,0,1-3.623-1.353,5.29,5.29,0,0,1-1.475-3.667Zm3.291.205a3.932,3.932,0,0,0,.459,2.148,1.529,1.529,0,0,0,1.357.684q1.758,0,1.8-2.705v-.332q0-2.842-1.816-2.842-1.65,0-1.787,2.451ZM47.568-15h3.477L48.33-11.934l-2.686,0ZM56.7-10.566l.107,1.24a3.583,3.583,0,0,1,3.018-1.436,3.015,3.015,0,0,1,2.466.986,4.7,4.7,0,0,1,.845,2.969V0h-3.3V-6.67a1.783,1.783,0,0,0-.322-1.177,1.491,1.491,0,0,0-1.172-.376,1.569,1.569,0,0,0-1.436.762V0H53.613V-10.566ZM-44.375,24.656A1.464,1.464,0,0,0-43.3,24.28a1.379,1.379,0,0,0,.371-1.05h3.086a3.653,3.653,0,0,1-1.245,2.852A4.631,4.631,0,0,1-44.3,27.2,4.689,4.689,0,0,1-47.93,25.75a5.7,5.7,0,0,1-1.328-4v-.137a6.436,6.436,0,0,1,.591-2.827,4.3,4.3,0,0,1,1.7-1.885,5.081,5.081,0,0,1,2.637-.659,4.573,4.573,0,0,1,3.271,1.143,4.053,4.053,0,0,1,1.211,3.1H-42.93a1.807,1.807,0,0,0-.4-1.26,1.382,1.382,0,0,0-1.074-.439q-1.279,0-1.494,1.631a11.507,11.507,0,0,0-.068,1.426,4.52,4.52,0,0,0,.381,2.207A1.319,1.319,0,0,0-44.375,24.656Zm5.508-3.037a6.236,6.236,0,0,1,.615-2.817,4.4,4.4,0,0,1,1.768-1.9,5.323,5.323,0,0,1,2.705-.664,4.858,4.858,0,0,1,3.74,1.47,5.64,5.64,0,0,1,1.367,4v.117a5.472,5.472,0,0,1-1.372,3.921A4.871,4.871,0,0,1-33.76,27.2a4.927,4.927,0,0,1-3.623-1.353,5.29,5.29,0,0,1-1.475-3.667Zm3.291.205a3.932,3.932,0,0,0,.459,2.148,1.529,1.529,0,0,0,1.357.684q1.758,0,1.8-2.705v-.332q0-2.842-1.816-2.842-1.65,0-1.787,2.451ZM-24.2,16.434l.107,1.24a3.583,3.583,0,0,1,3.018-1.436,3.015,3.015,0,0,1,2.466.986,4.7,4.7,0,0,1,.845,2.969V27h-3.3V20.33a1.783,1.783,0,0,0-.322-1.177,1.491,1.491,0,0,0-1.172-.376,1.569,1.569,0,0,0-1.436.762V27h-3.291V16.434Zm23.047,5.361a6.372,6.372,0,0,1-1.108,3.931A3.554,3.554,0,0,1-5.254,27.2a3.046,3.046,0,0,1-2.393-1.064v4.932h-3.291V16.434h3.076l.1.977a3.046,3.046,0,0,1,2.49-1.172,3.582,3.582,0,0,1,3.037,1.44,6.45,6.45,0,0,1,1.084,3.96Zm-3.291-.205q0-2.812-1.641-2.812a1.549,1.549,0,0,0-1.562.84v4.16a1.6,1.6,0,0,0,1.582.879q1.572,0,1.621-2.715ZM6.25,27a3.716,3.716,0,0,1-.312-.947A3.06,3.06,0,0,1,3.4,27.2a3.749,3.749,0,0,1-2.539-.9A2.875,2.875,0,0,1-.186,24.021a2.955,2.955,0,0,1,1.27-2.6,6.468,6.468,0,0,1,3.691-.879H5.791v-.559q0-1.462-1.26-1.462a1.03,1.03,0,0,0-1.172,1.158H.068a2.95,2.95,0,0,1,1.3-2.487A5.479,5.479,0,0,1,4.7,16.238a4.8,4.8,0,0,1,3.193.986,3.429,3.429,0,0,1,1.2,2.705v4.678a4.79,4.79,0,0,0,.449,2.227V27ZM4.189,24.852a1.836,1.836,0,0,0,1.021-.264,1.653,1.653,0,0,0,.581-.6V22.3H4.834q-1.719,0-1.719,1.543a.942.942,0,0,0,.3.728A1.1,1.1,0,0,0,4.189,24.852ZM10.5,21.639a6.455,6.455,0,0,1,1.084-3.955,3.568,3.568,0,0,1,3.027-1.445,3.035,3.035,0,0,1,2.383,1.113V12h3.3V27H17.334l-.166-1.133A3.116,3.116,0,0,1,14.59,27.2,3.562,3.562,0,0,1,11.6,25.75,6.659,6.659,0,0,1,10.5,21.639Zm3.291.205q0,2.813,1.641,2.813a1.62,1.62,0,0,0,1.563-.918V19.715a1.576,1.576,0,0,0-1.543-.937q-1.523,0-1.65,2.461Zm14.766-2.432-1.084-.078a1.947,1.947,0,0,0-1.992.977V27H22.188V16.434h3.086l.107,1.357A2.548,2.548,0,0,1,27.7,16.238a3.209,3.209,0,0,1,.918.117ZM34.668,27.2a5.432,5.432,0,0,1-3.936-1.45,5.008,5.008,0,0,1-1.5-3.774V21.7a6.489,6.489,0,0,1,.6-2.861,4.395,4.395,0,0,1,1.753-1.919,5.292,5.292,0,0,1,2.734-.679,4.574,4.574,0,0,1,3.516,1.382,5.43,5.43,0,0,1,1.289,3.853v1.279H32.578a2.372,2.372,0,0,0,.771,1.4,2.3,2.3,0,0,0,1.543.508,2.958,2.958,0,0,0,2.441-1.094l1.5,1.777a4.2,4.2,0,0,1-1.743,1.353A5.891,5.891,0,0,1,34.668,27.2ZM34.3,18.777q-1.445,0-1.719,1.914H35.9v-.254a1.63,1.63,0,0,0-.4-1.226A1.593,1.593,0,0,0,34.3,18.777Zm11.68,5.254a.76.76,0,0,0-.439-.674,6.684,6.684,0,0,0-1.67-.527,7.615,7.615,0,0,1-2.031-.718,3.4,3.4,0,0,1-1.221-1.079,2.577,2.577,0,0,1-.42-1.455,2.92,2.92,0,0,1,1.2-2.4,4.948,4.948,0,0,1,3.145-.942,5.482,5.482,0,0,1,3.359.947,2.962,2.962,0,0,1,1.27,2.49h-3.3q0-1.27-1.338-1.27a1.326,1.326,0,0,0-.869.288.892.892,0,0,0-.352.718.819.819,0,0,0,.43.713,4.06,4.06,0,0,0,1.372.449,11.857,11.857,0,0,1,1.655.42,3.007,3.007,0,0,1,2.383,2.939,2.767,2.767,0,0,1-1.284,2.354,5.632,5.632,0,0,1-3.325.908,5.747,5.747,0,0,1-2.422-.488,4.05,4.05,0,0,1-1.66-1.328,3.007,3.007,0,0,1-.6-1.768h3.076a1.272,1.272,0,0,0,.488,1.069,2.009,2.009,0,0,0,1.2.337,1.58,1.58,0,0,0,1.011-.273A.875.875,0,0,0,45.977,24.031ZM-35.869,49.391l1.758-5.957h3.525l-4.307,12.334-.186.449a3.272,3.272,0,0,1-3.242,2.051,5.158,5.158,0,0,1-1.357-.195V55.729h.43a2.251,2.251,0,0,0,1.06-.2,1.216,1.216,0,0,0,.542-.718l.264-.7-3.672-10.673h3.516ZM-18.8,54a3.716,3.716,0,0,1-.312-.947A3.06,3.06,0,0,1-21.65,54.2a3.749,3.749,0,0,1-2.539-.9,2.875,2.875,0,0,1-1.045-2.271,2.955,2.955,0,0,1,1.27-2.6,6.468,6.468,0,0,1,3.691-.879h1.016v-.559q0-1.462-1.26-1.462a1.03,1.03,0,0,0-1.172,1.158H-24.98a2.95,2.95,0,0,1,1.3-2.487,5.479,5.479,0,0,1,3.325-.956,4.8,4.8,0,0,1,3.193.986,3.429,3.429,0,0,1,1.2,2.705v4.678a4.79,4.79,0,0,0,.449,2.227V54Zm-2.061-2.148a1.836,1.836,0,0,0,1.021-.264,1.653,1.653,0,0,0,.581-.6V49.3h-.957q-1.719,0-1.719,1.543a.942.942,0,0,0,.3.728A1.1,1.1,0,0,0-20.859,51.852Zm6.309-3.213a6.455,6.455,0,0,1,1.084-3.955,3.568,3.568,0,0,1,3.027-1.445,3.035,3.035,0,0,1,2.383,1.113V39h3.3V54H-7.715l-.166-1.133A3.116,3.116,0,0,1-10.459,54.2a3.562,3.562,0,0,1-2.988-1.445A6.659,6.659,0,0,1-14.551,48.639Zm3.291.205q0,2.813,1.641,2.813a1.62,1.62,0,0,0,1.563-.918V46.715A1.576,1.576,0,0,0-9.6,45.777q-1.523,0-1.65,2.461ZM3.408,52.857A3.393,3.393,0,0,1,.586,54.2a3.328,3.328,0,0,1-2.632-1.011,4.251,4.251,0,0,1-.894-2.905V43.434H.352V50.3A1.183,1.183,0,0,0,1.67,51.656a1.72,1.72,0,0,0,1.611-.811V43.434H6.592V54H3.506ZM11.865,54h-3.3V39h3.3Zm5.859-13.193v2.627h1.738v2.285H17.725v4.834a1.234,1.234,0,0,0,.215.83,1.152,1.152,0,0,0,.85.234,4.828,4.828,0,0,0,.82-.059v2.354a6.074,6.074,0,0,1-1.855.283,3.448,3.448,0,0,1-2.51-.8,3.282,3.282,0,0,1-.811-2.432V45.719H13.086V43.434h1.348V40.807Zm2.324,7.813a6.236,6.236,0,0,1,.615-2.817,4.4,4.4,0,0,1,1.768-1.9,5.323,5.323,0,0,1,2.705-.664,4.858,4.858,0,0,1,3.74,1.47,5.64,5.64,0,0,1,1.367,4v.117a5.472,5.472,0,0,1-1.372,3.921,4.871,4.871,0,0,1-3.716,1.45,4.927,4.927,0,0,1-3.623-1.353,5.29,5.29,0,0,1-1.475-3.667Zm3.291.205a3.932,3.932,0,0,0,.459,2.148,1.529,1.529,0,0,0,1.357.684q1.758,0,1.8-2.705v-.332q0-2.842-1.816-2.842-1.65,0-1.787,2.451Zm13.887,2.207a.76.76,0,0,0-.439-.674,6.685,6.685,0,0,0-1.67-.527,7.615,7.615,0,0,1-2.031-.718,3.4,3.4,0,0,1-1.221-1.079,2.577,2.577,0,0,1-.42-1.455,2.92,2.92,0,0,1,1.2-2.4,4.948,4.948,0,0,1,3.145-.942,5.482,5.482,0,0,1,3.359.947,2.962,2.962,0,0,1,1.27,2.49h-3.3q0-1.27-1.338-1.27a1.326,1.326,0,0,0-.869.288.892.892,0,0,0-.352.718.819.819,0,0,0,.43.713,4.06,4.06,0,0,0,1.372.449,11.857,11.857,0,0,1,1.655.42A3.007,3.007,0,0,1,40.4,50.934a2.767,2.767,0,0,1-1.284,2.354,5.632,5.632,0,0,1-3.325.908,5.747,5.747,0,0,1-2.422-.488,4.05,4.05,0,0,1-1.66-1.328,3.007,3.007,0,0,1-.6-1.768h3.076a1.272,1.272,0,0,0,.488,1.069,2.009,2.009,0,0,0,1.2.337,1.58,1.58,0,0,0,1.011-.273A.875.875,0,0,0,37.227,51.031Z" transform="translate(814.056 7296.494)" fill="#12263f"/>
    <path id="Trazado_882899" data-name="Trazado 882899" d="M-39.541,0V-14.219h4.58a6.737,6.737,0,0,1,3.389.854,6.006,6.006,0,0,1,2.349,2.412,7.283,7.283,0,0,1,.854,3.491v.654a7.325,7.325,0,0,1-.825,3.5A6.032,6.032,0,0,1-31.519-.884,6.589,6.589,0,0,1-34.863,0Zm3.428-11.572v8.936h1.191a2.666,2.666,0,0,0,2.266-1.05,5.145,5.145,0,0,0,.791-3.12v-.615a5.1,5.1,0,0,0-.791-3.105,2.713,2.713,0,0,0-2.3-1.045ZM-23.291,0h-3.3V-10.566h3.3Zm-3.5-13.3a1.482,1.482,0,0,1,.508-1.159,1.909,1.909,0,0,1,1.318-.452,1.909,1.909,0,0,1,1.318.452,1.482,1.482,0,0,1,.508,1.159,1.482,1.482,0,0,1-.508,1.159,1.909,1.909,0,0,1-1.318.452,1.909,1.909,0,0,1-1.318-.452A1.482,1.482,0,0,1-26.787-13.3Zm11.914,5.713-1.084-.078a1.947,1.947,0,0,0-1.992.977V0H-21.24V-10.566h3.086l.107,1.357a2.548,2.548,0,0,1,2.314-1.553,3.209,3.209,0,0,1,.918.117ZM-10.215,0h-3.3V-10.566h3.3Zm-3.5-13.3A1.482,1.482,0,0,1-13.2-14.46a1.909,1.909,0,0,1,1.318-.452,1.909,1.909,0,0,1,1.318.452,1.482,1.482,0,0,1,.508,1.159,1.482,1.482,0,0,1-.508,1.159,1.909,1.909,0,0,1-1.318.452,1.909,1.909,0,0,1-1.318-.452A1.482,1.482,0,0,1-13.711-13.3Zm5.137,7.939a7.134,7.134,0,0,1,.527-2.832,4.245,4.245,0,0,1,1.514-1.9,3.99,3.99,0,0,1,2.295-.669A3.173,3.173,0,0,1-1.66-9.648l.117-.918H1.445V-.4A4.455,4.455,0,0,1,.8,2.026a4.167,4.167,0,0,1-1.88,1.582,6.91,6.91,0,0,1-2.852.552,5.961,5.961,0,0,1-2.251-.439A4.063,4.063,0,0,1-7.852,2.578L-6.475.645A3.018,3.018,0,0,0-4.053,1.729,1.96,1.96,0,0,0-1.865-.518V-.85A3.09,3.09,0,0,1-4.258.2,3.819,3.819,0,0,1-7.383-1.284a6.13,6.13,0,0,1-1.191-3.96Zm3.3.205A3.759,3.759,0,0,0-4.785-3.1a1.541,1.541,0,0,0,1.367.757,1.748,1.748,0,0,0,1.553-.713V-7.5A1.7,1.7,0,0,0-3.4-8.223a1.551,1.551,0,0,0-1.377.786A4.287,4.287,0,0,0-5.273-5.156ZM6.787,0h-3.3V-10.566h3.3Zm-3.5-13.3A1.482,1.482,0,0,1,3.8-14.46a1.909,1.909,0,0,1,1.318-.452,1.909,1.909,0,0,1,1.318.452A1.482,1.482,0,0,1,6.943-13.3a1.482,1.482,0,0,1-.508,1.159,1.909,1.909,0,0,1-1.318.452A1.909,1.909,0,0,1,3.8-12.141,1.482,1.482,0,0,1,3.291-13.3ZM8.4-5.361A6.455,6.455,0,0,1,9.482-9.316a3.568,3.568,0,0,1,3.027-1.445,3.035,3.035,0,0,1,2.383,1.113V-15h3.3V0H15.234l-.166-1.133A3.116,3.116,0,0,1,12.49.2,3.562,3.562,0,0,1,9.5-1.25,6.659,6.659,0,0,1,8.4-5.361Zm3.291.205q0,2.813,1.641,2.813a1.62,1.62,0,0,0,1.563-.918V-7.285a1.576,1.576,0,0,0-1.543-.937q-1.523,0-1.65,2.461Zm7.959-.225A6.236,6.236,0,0,1,20.264-8.2a4.4,4.4,0,0,1,1.768-1.9,5.323,5.323,0,0,1,2.705-.664,4.858,4.858,0,0,1,3.74,1.47,5.64,5.64,0,0,1,1.367,4v.117a5.472,5.472,0,0,1-1.372,3.921A4.871,4.871,0,0,1,24.756.2a4.927,4.927,0,0,1-3.623-1.353,5.29,5.29,0,0,1-1.475-3.667Zm3.291.205A3.932,3.932,0,0,0,23.4-3.027a1.529,1.529,0,0,0,1.357.684q1.758,0,1.8-2.705v-.332q0-2.842-1.816-2.842-1.65,0-1.787,2.451ZM36.826-2.969a.76.76,0,0,0-.439-.674,6.685,6.685,0,0,0-1.67-.527,7.615,7.615,0,0,1-2.031-.718,3.4,3.4,0,0,1-1.221-1.079,2.577,2.577,0,0,1-.42-1.455,2.92,2.92,0,0,1,1.2-2.4,4.948,4.948,0,0,1,3.145-.942,5.482,5.482,0,0,1,3.359.947,2.962,2.962,0,0,1,1.27,2.49h-3.3q0-1.27-1.338-1.27a1.326,1.326,0,0,0-.869.288.892.892,0,0,0-.352.718.819.819,0,0,0,.43.713,4.06,4.06,0,0,0,1.372.449,11.857,11.857,0,0,1,1.655.42A3.007,3.007,0,0,1,40-3.066,2.767,2.767,0,0,1,38.716-.713,5.632,5.632,0,0,1,35.391.2a5.747,5.747,0,0,1-2.422-.488,4.05,4.05,0,0,1-1.66-1.328,3.007,3.007,0,0,1-.6-1.768h3.076a1.272,1.272,0,0,0,.488,1.069,2.009,2.009,0,0,0,1.2.337,1.58,1.58,0,0,0,1.011-.273A.875.875,0,0,0,36.826-2.969ZM-43.047,27a3.716,3.716,0,0,1-.312-.947A3.06,3.06,0,0,1-45.9,27.2a3.749,3.749,0,0,1-2.539-.9,2.875,2.875,0,0,1-1.045-2.271,2.955,2.955,0,0,1,1.27-2.6,6.468,6.468,0,0,1,3.691-.879h1.016v-.559q0-1.462-1.26-1.462a1.03,1.03,0,0,0-1.172,1.158h-3.291a2.95,2.95,0,0,1,1.3-2.487,5.479,5.479,0,0,1,3.325-.956,4.8,4.8,0,0,1,3.193.986,3.429,3.429,0,0,1,1.2,2.705v4.678a4.79,4.79,0,0,0,.449,2.227V27Zm-2.061-2.148a1.836,1.836,0,0,0,1.021-.264,1.653,1.653,0,0,0,.581-.6V22.3h-.957q-1.719,0-1.719,1.543a.942.942,0,0,0,.3.728A1.1,1.1,0,0,0-45.107,24.852ZM-34.912,27h-3.3V12h3.3Zm11.475-2.344a1.464,1.464,0,0,0,1.074-.376,1.379,1.379,0,0,0,.371-1.05h3.086a3.653,3.653,0,0,1-1.245,2.852A4.631,4.631,0,0,1-23.359,27.2a4.689,4.689,0,0,1-3.633-1.445,5.7,5.7,0,0,1-1.328-4v-.137a6.436,6.436,0,0,1,.591-2.827,4.3,4.3,0,0,1,1.7-1.885,5.081,5.081,0,0,1,2.637-.659,4.573,4.573,0,0,1,3.271,1.143,4.053,4.053,0,0,1,1.211,3.1h-3.086a1.807,1.807,0,0,0-.4-1.26,1.382,1.382,0,0,0-1.074-.439q-1.279,0-1.494,1.631a11.508,11.508,0,0,0-.068,1.426,4.52,4.52,0,0,0,.381,2.207A1.319,1.319,0,0,0-23.437,24.656Zm5.508-3.037a6.236,6.236,0,0,1,.615-2.817,4.4,4.4,0,0,1,1.768-1.9,5.323,5.323,0,0,1,2.705-.664,4.858,4.858,0,0,1,3.74,1.47,5.64,5.64,0,0,1,1.367,4v.117a5.472,5.472,0,0,1-1.372,3.921,4.871,4.871,0,0,1-3.716,1.45,4.927,4.927,0,0,1-3.623-1.353,5.29,5.29,0,0,1-1.475-3.667Zm3.291.205a3.932,3.932,0,0,0,.459,2.148,1.529,1.529,0,0,0,1.357.684q1.758,0,1.8-2.705v-.332q0-2.842-1.816-2.842-1.65,0-1.787,2.451Zm11.377-5.391.107,1.24A3.583,3.583,0,0,1-.137,16.238a3.015,3.015,0,0,1,2.466.986,4.7,4.7,0,0,1,.845,2.969V27h-3.3V20.33a1.783,1.783,0,0,0-.322-1.177,1.491,1.491,0,0,0-1.172-.376,1.569,1.569,0,0,0-1.436.762V27H-6.348V16.434Zm12.09-2.627v2.627h1.738v2.285H8.828v4.834a1.234,1.234,0,0,0,.215.83,1.152,1.152,0,0,0,.85.234,4.828,4.828,0,0,0,.82-.059v2.354a6.074,6.074,0,0,1-1.855.283,3.448,3.448,0,0,1-2.51-.8,3.282,3.282,0,0,1-.811-2.432V18.719H4.189V16.434H5.537V13.807ZM16.973,27.2a5.432,5.432,0,0,1-3.936-1.45,5.008,5.008,0,0,1-1.5-3.774V21.7a6.489,6.489,0,0,1,.6-2.861,4.395,4.395,0,0,1,1.753-1.919,5.292,5.292,0,0,1,2.734-.679,4.574,4.574,0,0,1,3.516,1.382,5.43,5.43,0,0,1,1.289,3.853v1.279H14.883a2.372,2.372,0,0,0,.771,1.4,2.3,2.3,0,0,0,1.543.508,2.958,2.958,0,0,0,2.441-1.094l1.5,1.777A4.2,4.2,0,0,1,19.4,26.692,5.891,5.891,0,0,1,16.973,27.2ZM16.6,18.777q-1.445,0-1.719,1.914H18.2v-.254a1.63,1.63,0,0,0-.4-1.226A1.593,1.593,0,0,0,16.6,18.777Zm10.43.566,1.533-2.91h3.418L29.2,21.58,32.119,27H28.682l-1.66-3.125L25.391,27H21.934l2.93-5.42L22.09,16.434h3.457Zm9.844-5.537v2.627h1.738v2.285H36.875v4.834a1.234,1.234,0,0,0,.215.83,1.152,1.152,0,0,0,.85.234,4.828,4.828,0,0,0,.82-.059v2.354A6.074,6.074,0,0,1,36.9,27.2a3.448,3.448,0,0,1-2.51-.8,3.282,3.282,0,0,1-.811-2.432V18.719H32.236V16.434h1.348V13.807ZM39.2,21.619a6.236,6.236,0,0,1,.615-2.817,4.4,4.4,0,0,1,1.768-1.9,5.323,5.323,0,0,1,2.705-.664,4.858,4.858,0,0,1,3.74,1.47,5.64,5.64,0,0,1,1.367,4v.117a5.472,5.472,0,0,1-1.372,3.921,4.871,4.871,0,0,1-3.716,1.45,4.927,4.927,0,0,1-3.623-1.353,5.29,5.29,0,0,1-1.475-3.667Zm3.291.205a3.932,3.932,0,0,0,.459,2.148,1.529,1.529,0,0,0,1.357.684q1.758,0,1.8-2.705v-.332q0-2.842-1.816-2.842-1.65,0-1.787,2.451ZM-27.187,54.2a5.432,5.432,0,0,1-3.936-1.45,5.008,5.008,0,0,1-1.5-3.774V48.7a6.489,6.489,0,0,1,.6-2.861,4.395,4.395,0,0,1,1.753-1.919,5.292,5.292,0,0,1,2.734-.679,4.574,4.574,0,0,1,3.516,1.382,5.43,5.43,0,0,1,1.289,3.853v1.279h-6.543a2.372,2.372,0,0,0,.771,1.4,2.3,2.3,0,0,0,1.543.508,2.958,2.958,0,0,0,2.441-1.094l1.5,1.777a4.2,4.2,0,0,1-1.743,1.353A5.891,5.891,0,0,1-27.187,54.2Zm-.371-8.418q-1.445,0-1.719,1.914h3.32v-.254a1.63,1.63,0,0,0-.4-1.226A1.593,1.593,0,0,0-27.559,45.777Zm11.68,5.254a.76.76,0,0,0-.439-.674,6.685,6.685,0,0,0-1.67-.527,7.615,7.615,0,0,1-2.031-.718,3.4,3.4,0,0,1-1.221-1.079,2.577,2.577,0,0,1-.42-1.455,2.92,2.92,0,0,1,1.2-2.4,4.948,4.948,0,0,1,3.145-.942,5.482,5.482,0,0,1,3.359.947,2.962,2.962,0,0,1,1.27,2.49h-3.3q0-1.27-1.338-1.27a1.326,1.326,0,0,0-.869.288.892.892,0,0,0-.352.718.819.819,0,0,0,.43.713,4.06,4.06,0,0,0,1.372.449,11.857,11.857,0,0,1,1.655.42,3.007,3.007,0,0,1,2.383,2.939,2.767,2.767,0,0,1-1.284,2.354,5.632,5.632,0,0,1-3.325.908,5.747,5.747,0,0,1-2.422-.488,4.05,4.05,0,0,1-1.66-1.328,3.007,3.007,0,0,1-.6-1.768h3.076a1.272,1.272,0,0,0,.488,1.069,2.009,2.009,0,0,0,1.2.337,1.58,1.58,0,0,0,1.011-.273A.875.875,0,0,0-15.879,51.031Zm9.18.625a1.464,1.464,0,0,0,1.074-.376,1.379,1.379,0,0,0,.371-1.05h3.086a3.653,3.653,0,0,1-1.245,2.852A4.631,4.631,0,0,1-6.621,54.2a4.689,4.689,0,0,1-3.633-1.445,5.7,5.7,0,0,1-1.328-4v-.137a6.436,6.436,0,0,1,.591-2.827,4.3,4.3,0,0,1,1.7-1.885,5.081,5.081,0,0,1,2.637-.659,4.573,4.573,0,0,1,3.271,1.143,4.053,4.053,0,0,1,1.211,3.1H-5.254a1.807,1.807,0,0,0-.4-1.26,1.382,1.382,0,0,0-1.074-.439q-1.279,0-1.494,1.631a11.508,11.508,0,0,0-.068,1.426,4.52,4.52,0,0,0,.381,2.207A1.319,1.319,0,0,0-6.7,51.656Zm5.508-3.037A6.236,6.236,0,0,1-.576,45.8a4.4,4.4,0,0,1,1.768-1.9A5.323,5.323,0,0,1,3.9,43.238a4.858,4.858,0,0,1,3.74,1.47,5.64,5.64,0,0,1,1.367,4v.117a5.472,5.472,0,0,1-1.372,3.921A4.871,4.871,0,0,1,3.916,54.2,4.927,4.927,0,0,1,.293,52.843a5.29,5.29,0,0,1-1.475-3.667Zm3.291.205a3.932,3.932,0,0,0,.459,2.148,1.529,1.529,0,0,0,1.357.684q1.758,0,1.8-2.705v-.332q0-2.842-1.816-2.842-1.65,0-1.787,2.451ZM13.926,54h-3.3V39h3.3ZM21.9,54a3.716,3.716,0,0,1-.312-.947A3.06,3.06,0,0,1,19.053,54.2a3.749,3.749,0,0,1-2.539-.9,2.875,2.875,0,0,1-1.045-2.271,2.955,2.955,0,0,1,1.27-2.6,6.468,6.468,0,0,1,3.691-.879h1.016v-.559q0-1.462-1.26-1.462a1.03,1.03,0,0,0-1.172,1.158H15.723a2.95,2.95,0,0,1,1.3-2.487,5.479,5.479,0,0,1,3.325-.956,4.8,4.8,0,0,1,3.193.986,3.429,3.429,0,0,1,1.2,2.705v4.678a4.79,4.79,0,0,0,.449,2.227V54Zm-2.061-2.148a1.836,1.836,0,0,0,1.021-.264,1.653,1.653,0,0,0,.581-.6V49.3h-.957q-1.719,0-1.719,1.543a.942.942,0,0,0,.3.728A1.1,1.1,0,0,0,19.844,51.852Zm13.115-5.439-1.084-.078a1.947,1.947,0,0,0-1.992.977V54H26.592V43.434h3.086l.107,1.357A2.548,2.548,0,0,1,32.1,43.238a3.209,3.209,0,0,1,.918.117Z" transform="translate(1021.718 7211.953)" fill="#12263f"/>
    <path id="Trazado_882900" data-name="Trazado 882900" d="M-134.268-7.222a7.789,7.789,0,0,1-1.2,3.933,7.249,7.249,0,0,1-3.083,2.644,10.5,10.5,0,0,1-4.534.938,8.375,8.375,0,0,1-6.621-2.739q-2.417-2.739-2.417-7.734v-1.055a12.91,12.91,0,0,1,1.091-5.486,8.269,8.269,0,0,1,3.142-3.633,8.767,8.767,0,0,1,4.746-1.282,9.193,9.193,0,0,1,6.24,2.043,8.074,8.074,0,0,1,2.681,5.632h-5.127a3.82,3.82,0,0,0-.981-2.8,4.037,4.037,0,0,0-2.812-.85,3.071,3.071,0,0,0-2.812,1.436,9.226,9.226,0,0,0-.937,4.585v1.509a10.209,10.209,0,0,0,.857,4.878,3.136,3.136,0,0,0,2.952,1.465,3.948,3.948,0,0,0,2.71-.835,3.544,3.544,0,0,0,1-2.651Zm1.582-.85a9.355,9.355,0,0,1,.923-4.226,6.6,6.6,0,0,1,2.651-2.849,7.985,7.985,0,0,1,4.058-1,7.288,7.288,0,0,1,5.61,2.2,8.46,8.46,0,0,1,2.051,6v.176a8.208,8.208,0,0,1-2.058,5.881A7.307,7.307,0,0,1-125.024.293a7.39,7.39,0,0,1-5.435-2.029,7.935,7.935,0,0,1-2.212-5.5Zm4.937.308a5.9,5.9,0,0,0,.688,3.223,2.294,2.294,0,0,0,2.036,1.025q2.637,0,2.7-4.058v-.5q0-4.263-2.725-4.263-2.476,0-2.681,3.677Zm11.953-.278A10.7,10.7,0,0,1-115-12.29a6.368,6.368,0,0,1,2.271-2.849,5.985,5.985,0,0,1,3.442-1,4.759,4.759,0,0,1,3.867,1.67l.176-1.377h4.482V-.6a6.682,6.682,0,0,1-.974,3.64,6.251,6.251,0,0,1-2.82,2.373,10.365,10.365,0,0,1-4.277.828,8.942,8.942,0,0,1-3.376-.659,6.1,6.1,0,0,1-2.5-1.714l2.065-2.9a4.527,4.527,0,0,0,3.633,1.626q3.281,0,3.281-3.369v-.5A4.636,4.636,0,0,1-109.321.293a5.728,5.728,0,0,1-4.687-2.219,9.2,9.2,0,0,1-1.787-5.94Zm4.951.308a5.638,5.638,0,0,0,.732,3.083,2.311,2.311,0,0,0,2.051,1.135,2.622,2.622,0,0,0,2.329-1.069V-11.25a2.556,2.556,0,0,0-2.3-1.084,2.326,2.326,0,0,0-2.065,1.179A6.43,6.43,0,0,0-110.845-7.734Zm17.417-8.115.161,1.86a5.375,5.375,0,0,1,4.526-2.153,4.522,4.522,0,0,1,3.7,1.479,7.044,7.044,0,0,1,1.267,4.453V0h-4.951V-10a2.675,2.675,0,0,0-.483-1.765,2.236,2.236,0,0,0-1.758-.564,2.354,2.354,0,0,0-2.153,1.143V0h-4.937V-15.85ZM-75.835,0h-4.951V-15.85h4.951Zm-5.244-19.951a2.223,2.223,0,0,1,.762-1.739,2.863,2.863,0,0,1,1.978-.678,2.863,2.863,0,0,1,1.978.678,2.223,2.223,0,0,1,.762,1.739,2.223,2.223,0,0,1-.762,1.739,2.863,2.863,0,0,1-1.978.678,2.863,2.863,0,0,1-1.978-.678A2.223,2.223,0,0,1-81.079-19.951ZM-66.094-3.516a2.2,2.2,0,0,0,1.611-.564,2.068,2.068,0,0,0,.557-1.575H-59.3a5.48,5.48,0,0,1-1.868,4.277A6.947,6.947,0,0,1-65.977.293a7.034,7.034,0,0,1-5.449-2.168,8.542,8.542,0,0,1-1.992-6.006v-.205a9.654,9.654,0,0,1,.886-4.241,6.453,6.453,0,0,1,2.556-2.827,7.622,7.622,0,0,1,3.955-.989,6.86,6.86,0,0,1,4.907,1.714A6.079,6.079,0,0,1-59.3-9.785h-4.629a2.71,2.71,0,0,0-.6-1.89,2.073,2.073,0,0,0-1.611-.659q-1.919,0-2.241,2.446a17.262,17.262,0,0,0-.1,2.139,6.78,6.78,0,0,0,.571,3.311A1.978,1.978,0,0,0-66.094-3.516ZM-52,0h-4.951V-15.85H-52Zm-5.244-19.951a2.223,2.223,0,0,1,.762-1.739,2.863,2.863,0,0,1,1.978-.678,2.863,2.863,0,0,1,1.978.678,2.223,2.223,0,0,1,.762,1.739,2.223,2.223,0,0,1-.762,1.739,2.863,2.863,0,0,1-1.978.678,2.863,2.863,0,0,1-1.978-.678A2.223,2.223,0,0,1-57.246-19.951Zm7.661,11.88a9.355,9.355,0,0,1,.923-4.226,6.6,6.6,0,0,1,2.651-2.849,7.985,7.985,0,0,1,4.058-1,7.288,7.288,0,0,1,5.61,2.2,8.46,8.46,0,0,1,2.051,6v.176A8.208,8.208,0,0,1-36.35-1.882,7.307,7.307,0,0,1-41.924.293a7.39,7.39,0,0,1-5.435-2.029,7.935,7.935,0,0,1-2.212-5.5Zm4.937.308a5.9,5.9,0,0,0,.688,3.223,2.294,2.294,0,0,0,2.036,1.025q2.637,0,2.7-4.058v-.5q0-4.263-2.725-4.263-2.476,0-2.681,3.677ZM-41.279-22.5h5.215l-4.072,4.6-4.028-.007Zm13.7,6.65.161,1.86A5.375,5.375,0,0,1-22.9-16.143a4.522,4.522,0,0,1,3.7,1.479A7.044,7.044,0,0,1-17.93-10.21V0h-4.951V-10a2.675,2.675,0,0,0-.483-1.765,2.236,2.236,0,0,0-1.758-.564,2.354,2.354,0,0,0-2.153,1.143V0h-4.937V-15.85ZM-1.392-6.914,1.245-15.85H6.533L.073,2.651l-.278.674A4.907,4.907,0,0,1-5.068,6.4,7.737,7.737,0,0,1-7.1,6.11V2.593h.645a3.376,3.376,0,0,0,1.589-.3,1.824,1.824,0,0,0,.813-1.078l.4-1.055L-9.17-15.85H-3.9ZM22.954.293a8.148,8.148,0,0,1-5.9-2.175,7.512,7.512,0,0,1-2.256-5.662v-.41a9.734,9.734,0,0,1,.9-4.292,6.592,6.592,0,0,1,2.629-2.878,7.938,7.938,0,0,1,4.1-1.018A6.861,6.861,0,0,1,27.7-14.07a8.145,8.145,0,0,1,1.934,5.779v1.919H19.819a3.558,3.558,0,0,0,1.157,2.095,3.443,3.443,0,0,0,2.314.762,4.437,4.437,0,0,0,3.662-1.641L29.209-2.49A6.306,6.306,0,0,1,26.594-.461,8.836,8.836,0,0,1,22.954.293ZM22.4-12.334q-2.168,0-2.578,2.871H24.8v-.381a2.445,2.445,0,0,0-.6-1.838A2.39,2.39,0,0,0,22.4-12.334ZM31-8.042a9.682,9.682,0,0,1,1.626-5.933,5.352,5.352,0,0,1,4.541-2.168,4.552,4.552,0,0,1,3.574,1.67V-22.5h4.951V0H41.25L41-1.7A4.674,4.674,0,0,1,37.134.293a5.342,5.342,0,0,1-4.482-2.168A9.989,9.989,0,0,1,31-8.042Zm4.937.308q0,4.219,2.461,4.219a2.43,2.43,0,0,0,2.344-1.377v-6.035a2.365,2.365,0,0,0-2.314-1.406q-2.285,0-2.476,3.691Zm22,6.021A5.09,5.09,0,0,1,53.7.293a4.992,4.992,0,0,1-3.948-1.516,6.376,6.376,0,0,1-1.34-4.358V-15.85H53.35v10.3a1.774,1.774,0,0,0,1.978,2.036,2.58,2.58,0,0,0,2.417-1.216V-15.85H62.71V0H58.081Zm14.18-1.8a2.2,2.2,0,0,0,1.611-.564,2.068,2.068,0,0,0,.557-1.575h4.629a5.48,5.48,0,0,1-1.868,4.277A6.947,6.947,0,0,1,72.231.293a7.034,7.034,0,0,1-5.449-2.168A8.542,8.542,0,0,1,64.79-7.881v-.205a9.654,9.654,0,0,1,.886-4.241,6.453,6.453,0,0,1,2.556-2.827,7.622,7.622,0,0,1,3.955-.989,6.86,6.86,0,0,1,4.907,1.714,6.079,6.079,0,0,1,1.816,4.644H74.282a2.71,2.71,0,0,0-.6-1.89,2.073,2.073,0,0,0-1.611-.659q-1.919,0-2.241,2.446a17.262,17.262,0,0,0-.1,2.139A6.78,6.78,0,0,0,70.3-4.438,1.978,1.978,0,0,0,72.114-3.516ZM89.927,0a5.574,5.574,0,0,1-.469-1.421A4.59,4.59,0,0,1,85.649.293a5.623,5.623,0,0,1-3.809-1.355,4.313,4.313,0,0,1-1.567-3.406,4.433,4.433,0,0,1,1.9-3.9,9.7,9.7,0,0,1,5.537-1.318h1.523v-.839q0-2.193-1.89-2.193a1.545,1.545,0,0,0-1.758,1.737H80.654a4.425,4.425,0,0,1,1.956-3.731A8.218,8.218,0,0,1,87.6-16.143a7.205,7.205,0,0,1,4.79,1.479,5.144,5.144,0,0,1,1.8,4.058v7.017a7.186,7.186,0,0,0,.674,3.34V0ZM86.836-3.223a2.754,2.754,0,0,0,1.531-.4,2.479,2.479,0,0,0,.872-.894V-7.046H87.8q-2.578,0-2.578,2.314a1.413,1.413,0,0,0,.454,1.091A1.643,1.643,0,0,0,86.836-3.223Zm16.787-.293a2.2,2.2,0,0,0,1.611-.564,2.068,2.068,0,0,0,.557-1.575h4.629a5.48,5.48,0,0,1-1.868,4.277A6.947,6.947,0,0,1,103.74.293a7.034,7.034,0,0,1-5.449-2.168A8.542,8.542,0,0,1,96.3-7.881v-.205a9.654,9.654,0,0,1,.886-4.241,6.453,6.453,0,0,1,2.556-2.827,7.622,7.622,0,0,1,3.955-.989,6.86,6.86,0,0,1,4.907,1.714,6.079,6.079,0,0,1,1.816,4.644h-4.629a2.71,2.71,0,0,0-.6-1.89,2.073,2.073,0,0,0-1.611-.659q-1.919,0-2.241,2.446a17.262,17.262,0,0,0-.1,2.139,6.78,6.78,0,0,0,.571,3.311A1.978,1.978,0,0,0,103.623-3.516ZM117.715,0h-4.951V-15.85h4.951Zm-5.244-19.951a2.223,2.223,0,0,1,.762-1.739,2.863,2.863,0,0,1,1.978-.678,2.863,2.863,0,0,1,1.978.678,2.223,2.223,0,0,1,.762,1.739,2.223,2.223,0,0,1-.762,1.739,2.863,2.863,0,0,1-1.978.678,2.863,2.863,0,0,1-1.978-.678A2.223,2.223,0,0,1,112.471-19.951Zm7.661,11.88a9.355,9.355,0,0,1,.923-4.226,6.6,6.6,0,0,1,2.651-2.849,7.985,7.985,0,0,1,4.058-1,7.288,7.288,0,0,1,5.61,2.2,8.46,8.46,0,0,1,2.051,6v.176a8.208,8.208,0,0,1-2.058,5.881A7.307,7.307,0,0,1,127.793.293a7.39,7.39,0,0,1-5.435-2.029,7.935,7.935,0,0,1-2.212-5.5Zm4.937.308a5.9,5.9,0,0,0,.688,3.223,2.294,2.294,0,0,0,2.036,1.025q2.637,0,2.7-4.058v-.5q0-4.263-2.725-4.263-2.476,0-2.681,3.677ZM128.438-22.5h5.215l-4.072,4.6-4.028-.007Zm13.7,6.65.161,1.86a5.375,5.375,0,0,1,4.526-2.153,4.522,4.522,0,0,1,3.7,1.479,7.044,7.044,0,0,1,1.267,4.453V0h-4.951V-10a2.675,2.675,0,0,0-.483-1.765,2.236,2.236,0,0,0-1.758-.564,2.354,2.354,0,0,0-2.153,1.143V0H137.5V-15.85Z" transform="translate(820.792 7050.494)" fill="#12263f"/>
  </g>
</svg>
