<svg xmlns="http://www.w3.org/2000/svg" width="84.718" height="87.488" viewBox="0 0 84.718 87.488">
  <g id="Grupo_1102698" data-name="Grupo 1102698" transform="translate(-265 -2736.433)">
    <ellipse id="Elipse_11493" data-name="Elipse 11493" cx="38.5" cy="38" rx="38.5" ry="38" transform="translate(270.051 2747.433)" fill="#fcff9b"/>
    <g id="Elipse_11494" data-name="Elipse 11494" transform="translate(265 2804.093)" fill="none" stroke="#ea3a70" stroke-width="5">
      <circle cx="9.914" cy="9.914" r="9.914" stroke="none"/>
      <circle cx="9.914" cy="9.914" r="7.414" fill="none"/>
    </g>
    <g id="Grupo_1099377" data-name="Grupo 1099377" transform="translate(327.563 2736.433)">
      <path id="Trazado_873233" data-name="Trazado 873233" d="M1.54,0A1.539,1.539,0,0,0,0,1.54V8.335a1.54,1.54,0,0,0,3.081,0V1.54A1.539,1.539,0,0,0,1.54,0" transform="translate(9.536 11.889)" fill="#69ccd1"/>
      <path id="Trazado_873234" data-name="Trazado 873234" d="M1.54,0A1.539,1.539,0,0,0,0,1.54V8.335a1.54,1.54,0,0,0,3.081,0V1.54A1.539,1.539,0,0,0,1.54,0" transform="translate(9.536 0)" fill="#69ccd1"/>
      <path id="Trazado_873235" data-name="Trazado 873235" d="M7.644,0H1.54a1.54,1.54,0,1,0,0,3.081h6.1A1.54,1.54,0,0,0,7.644,0" transform="translate(12.971 9.34)" fill="#69ccd1"/>
      <path id="Trazado_873236" data-name="Trazado 873236" d="M7.644,0H1.54a1.54,1.54,0,0,0,0,3.081h6.1A1.54,1.54,0,1,0,7.644,0" transform="translate(0 9.34)" fill="#69ccd1"/>
    </g>
    <g id="activo-intangible" transform="translate(278.829 2756.214)">
      <path id="Trazado_882033" data-name="Trazado 882033" d="M283.755,11.487V27a19.009,19.009,0,0,1,10.459,0,19.009,19.009,0,0,1,10.46,0V11.487c-1.648-.768-7.833-.736-10.46.939C291.588,10.751,285.4,10.719,283.755,11.487Z" transform="translate(-251.01 -4.525)" fill="#e9e9ff" fill-rule="evenodd"/>
      <rect id="Rectángulo_401505" data-name="Rectángulo 401505" width="12.11" height="9.533" rx="4.766" transform="translate(24.017 26.222)" fill="#e8333c"/>
      <g id="Grupo_1102289" data-name="Grupo 1102289" transform="translate(6.457 6.482)">
        <path id="Trazado_882034" data-name="Trazado 882034" d="M215.395,224.495v-7.443a1.01,1.01,0,0,0-1.007-1.007h-10.02v7.443a1.01,1.01,0,0,0,1.007,1.007Z" transform="translate(-185.725 -196.305)" fill="#fb545c" fill-rule="evenodd"/>
        <path id="Trazado_882035" data-name="Trazado 882035" d="M237.2,242.639l-3.48,2.009a.474.474,0,0,1-.71-.41V240.22a.474.474,0,0,1,.71-.41l3.48,2.009a.473.473,0,0,1,0,.82Z" transform="translate(-211.612 -217.723)" fill="#f3f3ff" fill-rule="evenodd"/>
        <path id="Trazado_882036" data-name="Trazado 882036" d="M10.823,407.869c-.077-2.054-.1-4.075.017-6.234.1-1.346.4-1.851,1.249-2.347a28.386,28.386,0,0,1,4.394-1.376H21.4a28.373,28.373,0,0,1,4.394,1.376c.845.5,1.146,1,1.249,2.347.119,2.159.094,4.18.017,6.234Z" transform="translate(-10.758 -360.661)" fill="#2a92fa" fill-rule="evenodd"/>
        <path id="Trazado_882037" data-name="Trazado 882037" d="M66.569,375.6a2.348,2.348,0,0,0,1.18-2.249V373.1H71.01v.249a2.348,2.348,0,0,0,1.18,2.249,3.328,3.328,0,0,1-5.621,0Z" transform="translate(-61.195 -338.237)" fill="#dea368" fill-rule="evenodd"/>
        <path id="Trazado_882038" data-name="Trazado 882038" d="M79.047,373.1v.249a2.348,2.348,0,0,0,1.18,2.249,3.493,3.493,0,0,1-2.811,1.546,3.233,3.233,0,0,1-1.954-.67,2.929,2.929,0,0,0,1.17-2.3V373.1h2.415Z" transform="translate(-69.232 -338.236)" fill="#e6b17c" fill-rule="evenodd"/>
        <path id="Trazado_882039" data-name="Trazado 882039" d="M60.694,303.862c-4.386-.284-5.544-8.984,0-8.984S65.08,303.577,60.694,303.862Z" transform="translate(-52.51 -267.546)" fill="#f2c496" fill-rule="evenodd"/>
        <path id="Trazado_882040" data-name="Trazado 882040" d="M72.288,303.862a3.271,3.271,0,0,1-.529-.079c-2.262-1.908-2.784-6.9-.474-8.8a4.509,4.509,0,0,1,1-.108c5.544,0,4.385,8.7,0,8.984Z" transform="translate(-64.103 -267.546)" fill="#fdd7ad" fill-rule="evenodd"/>
        <path id="Trazado_882041" data-name="Trazado 882041" d="M57.859,288.925c.5-.208,1.333.046,1.611,1.171a6.548,6.548,0,0,1-.327,3.293,8.4,8.4,0,0,1-.857-1.5c-.236-.358-.653-.254-1.279-.037-1.7.59-3.45-.391-4.3-.238-.69.124-.839,1.166-.951,1.771-.716-.8-.789-3.023-.238-4.793,2.869.443,5.2-1.73,6.341.328Z" transform="translate(-47.265 -261.353)" fill="#1a1a1a" fill-rule="evenodd"/>
        <path id="Trazado_882042" data-name="Trazado 882042" d="M434.764,419.683l3.021,6.379-2.357-.733-1.145,2.187-2.383-6.644Z" transform="translate(-391.348 -380.335)" fill="#e8333c" fill-rule="evenodd"/>
        <path id="Trazado_882043" data-name="Trazado 882043" d="M440.4,419.683l2.665,5.626-1.711-.532-1.025,1.958-2.192-6.112Z" transform="translate(-396.979 -380.335)" fill="#fb545c" fill-rule="evenodd"/>
        <path id="Trazado_882044" data-name="Trazado 882044" d="M371.633,420.944l-2.374,6.647-1.148-2.185-2.356.737,3.013-6.383Z" transform="translate(-331.571 -380.403)" fill="#e8333c" fill-rule="evenodd"/>
        <path id="Trazado_882045" data-name="Trazado 882045" d="M379.614,423.3l-2.07,5.8-.807-1.535-2.151.673,2.769-5.867Z" transform="translate(-339.552 -382.756)" fill="#fb545c" fill-rule="evenodd"/>
        <path id="Trazado_882046" data-name="Trazado 882046" d="M366.225,312.689a1.731,1.731,0,0,0,1.736.719,1.772,1.772,0,0,1,2.114,2.114,1.732,1.732,0,0,0,.719,1.736,1.772,1.772,0,0,1,0,2.99,1.731,1.731,0,0,0-.719,1.736,1.772,1.772,0,0,1-2.114,2.114,1.732,1.732,0,0,0-1.736.719,1.772,1.772,0,0,1-2.99,0,1.732,1.732,0,0,0-1.736-.719,1.772,1.772,0,0,1-2.114-2.114,1.731,1.731,0,0,0-.719-1.736,1.772,1.772,0,0,1,0-2.99,1.732,1.732,0,0,0,.719-1.736,1.772,1.772,0,0,1,2.114-2.114,1.731,1.731,0,0,0,1.736-.719,1.772,1.772,0,0,1,2.99,0Z" transform="translate(-324.423 -282.901)" fill="#f9ac00" fill-rule="evenodd"/>
        <path id="Trazado_882047" data-name="Trazado 882047" d="M373.484,313.04a1.732,1.732,0,0,0,1.736.719,1.772,1.772,0,0,1,2.114,2.114,1.732,1.732,0,0,0,.719,1.736,1.772,1.772,0,0,1,0,2.99,1.732,1.732,0,0,0-.719,1.736,1.772,1.772,0,0,1-2.114,2.114,1.731,1.731,0,0,0-1.736.719,1.176,1.176,0,0,1-2.217,0,1.732,1.732,0,0,0-1.736-.719l-.087.013a1.8,1.8,0,0,0-.686-.013h-.009a1.662,1.662,0,0,1-.855-.478,1.727,1.727,0,0,1-.477-1.637,1.732,1.732,0,0,0-.719-1.736,1.772,1.772,0,0,1,0-2.99,1.732,1.732,0,0,0,.719-1.736,1.728,1.728,0,0,1,.477-1.637,1.662,1.662,0,0,1,.855-.478h.009a1.8,1.8,0,0,0,.686-.014l.088.014a1.732,1.732,0,0,0,1.736-.719,1.176,1.176,0,0,1,2.217,0Z" transform="translate(-331.683 -283.253)" fill="#fdc72e" fill-rule="evenodd"/>
        <path id="Trazado_882048" data-name="Trazado 882048" d="M404.084,355.55a3.325,3.325,0,1,0-3.325-3.325A3.332,3.332,0,0,0,404.084,355.55Z" transform="translate(-363.205 -316.366)" fill="#f9ac00" fill-rule="evenodd"/>
        <path id="Trazado_882049" data-name="Trazado 882049" d="M398.135,355.486a3.325,3.325,0,1,0-3.325-3.325A3.332,3.332,0,0,0,398.135,355.486Z" transform="translate(-357.829 -316.309)" fill="#f3f3ff" fill-rule="evenodd"/>
        <path id="Trazado_882050" data-name="Trazado 882050" d="M21.934,29.318A1.283,1.283,0,0,1,20.655,30.6H15.943a1.283,1.283,0,0,1-1.279-1.279V26.8c0-3.521-3.635-4.51-3.635-9.243,0-4.342,3.635-6.513,7.27-6.513s7.27,2.171,7.27,6.513c0,4.732-3.635,5.721-3.635,9.243v2.519Z" transform="translate(-11.003 -11.044)" fill="#fcdb35" fill-rule="evenodd"/>
        <path id="Trazado_882051" data-name="Trazado 882051" d="M35.494,29.319A1.283,1.283,0,0,1,34.215,30.6H30.948a1.283,1.283,0,0,1-1.279-1.279V26.47c0-3.521-3.635-4.51-3.635-9.243A6.2,6.2,0,0,1,30.6,11.133a9.071,9.071,0,0,1,1.258-.088c3.635,0,7.27,2.171,7.27,6.513,0,4.732-3.635,5.721-3.635,9.243v2.519Z" transform="translate(-24.563 -11.045)" fill="#ffeb87" fill-rule="evenodd"/>
        <path id="Trazado_882052" data-name="Trazado 882052" d="M66.337,195h3.889v2.551a.982.982,0,0,1-.979.979h-1.93a.982.982,0,0,1-.979-.979V195Z" transform="translate(-60.985 -177.288)" fill="#495586" fill-rule="evenodd"/>
        <path id="Trazado_882053" data-name="Trazado 882053" d="M81.341,195h2.444v2.551a.982.982,0,0,1-.979.979h-.837a.983.983,0,0,1-.628-.913V195Z" transform="translate(-74.544 -177.288)" fill="#5d689e" fill-rule="evenodd"/>
        <path id="Trazado_882054" data-name="Trazado 882054" d="M56.049,178.294a1.283,1.283,0,0,1-1.279,1.279H50.058a1.283,1.283,0,0,1-1.279-1.279v-2.4h7.27v2.4Z" transform="translate(-45.118 -160.019)" fill="#5d689e" fill-rule="evenodd"/>
        <path id="Trazado_882055" data-name="Trazado 882055" d="M69.608,178.294a1.283,1.283,0,0,1-1.278,1.279H65.062a1.283,1.283,0,0,1-1.279-1.279v-2.4h5.825Z" transform="translate(-58.677 -160.019)" fill="#7986bf" fill-rule="evenodd"/>
      </g>
      <path id="Trazado_882056" data-name="Trazado 882056" d="M48.779,175.893h7.27v1.84h-7.27Z" transform="translate(-38.661 -153.537)" fill="#7986bf"/>
      <path id="Trazado_882057" data-name="Trazado 882057" d="M63.784,175.893h5.825v1.84H63.784Z" transform="translate(-52.221 -153.537)" fill="#909cd1"/>
      <path id="Trazado_882058" data-name="Trazado 882058" d="M22.274,53.18H20.019V49.366a.481.481,0,1,0-.962,0V53.18H15.122V45.834a3.935,3.935,0,0,0,2.5-1.444c.236.065.5.13.759.2a13.121,13.121,0,0,1,2.845.933c.675.394.915.734,1.01,1.956.094,1.732.1,3.508.033,5.7Zm-15.233-5.7c.094-1.224.335-1.562,1.01-1.956a13.215,13.215,0,0,1,2.845-.933q.4-.1.764-.2a3.925,3.925,0,0,0,2.5,1.444V53.18H10.216V49.366a.481.481,0,1,0-.962,0V53.18H7.009c-.071-2.194-.061-3.969.033-5.7Zm7.567-4.2a3.8,3.8,0,0,1-1.354-.346,2.566,2.566,0,0,1-.712,1,2.768,2.768,0,0,0,4.2,0,2.616,2.616,0,0,1-.712-1,3.779,3.779,0,0,1-1.354.346h-.066Zm-3.161-4.736,0-.033c.071-.394.222-1.213.538-1.27a3.672,3.672,0,0,1,1.085.157,5.863,5.863,0,0,0,3.279.061,1.891,1.891,0,0,1,.7-.169l.014.017a4.289,4.289,0,0,1,.255.5,3.946,3.946,0,0,0,.5.874c-.269,1.7-1.349,3.5-3.18,3.639-1.878-.143-2.967-2.037-3.194-3.773Zm-.373-4.265a7.54,7.54,0,0,0-.179,2.74,1.3,1.3,0,0,1,.929-.726,3.9,3.9,0,0,1,1.462.166,4.946,4.946,0,0,0,2.75.091,3.094,3.094,0,0,1,.981-.222.961.961,0,0,1,.854.448,4.47,4.47,0,0,1,.292.548,5.926,5.926,0,0,0,.019-1.96,1.177,1.177,0,0,0-.533-.8.528.528,0,0,0-.425-.037.48.48,0,0,1-.6-.212c-.472-.855-1.132-.738-2.585-.394a9.383,9.383,0,0,1-2.963.359ZM23.2,47.408a2.87,2.87,0,0,0-1.481-2.718,13.726,13.726,0,0,0-3.095-1.034c-.358-.091-.7-.178-1-.262a1.663,1.663,0,0,1-.769-.986,5.9,5.9,0,0,0,1.929-3.743,7.025,7.025,0,0,0,.325-3.531A2.1,2.1,0,0,0,18.085,33.7a1.528,1.528,0,0,0-.816-.165c-.859-1.171-2.175-.858-3.453-.554a7.8,7.8,0,0,1-3.019.294.49.49,0,0,0-.538.333c-.519,1.67-.561,4.041.241,5.118a5.887,5.887,0,0,0,1.925,3.678,1.688,1.688,0,0,1-.774.986c-.3.083-.632.17-.991.262A13.642,13.642,0,0,0,7.565,44.69a2.861,2.861,0,0,0-1.481,2.718v.011c-.1,1.887-.113,3.817-.019,6.261a.481.481,0,0,0,.481.463h16.19a.481.481,0,0,0,.481-.463c.094-2.445.09-4.376-.014-6.261v-.011Zm5.137-18.415,3.453,1.995-3.453,1.995Zm-.486,4.832a.955.955,0,0,0,.476.129.942.942,0,0,0,.476-.129l3.482-2.01a.937.937,0,0,0,.476-.827.947.947,0,0,0-.476-.827l-3.482-2.009a.953.953,0,0,0-1.429.827V33a.949.949,0,0,0,.476.827Zm-3.354.923a.526.526,0,0,0,.524.526h10.1a.526.526,0,0,0,.524-.526V27.229a.526.526,0,0,0-.524-.525h-10.1a.526.526,0,0,0-.524.525ZM35.12,36.236a1.491,1.491,0,0,0,1.491-1.488V27.229a1.492,1.492,0,0,0-1.491-1.488h-10.1a1.492,1.492,0,0,0-1.491,1.488v7.519a1.492,1.492,0,0,0,1.491,1.488ZM23.765,14.959a.481.481,0,0,1,0-.963h4.911l-.5-.377a.482.482,0,0,1,.585-.767L30.4,14.094a.484.484,0,0,1,0,.767L28.765,16.1a.483.483,0,0,1-.293.1.476.476,0,0,1-.382-.19.482.482,0,0,1,.09-.675l.5-.377ZM47.243,24.58v6.66l.377-.5a.482.482,0,0,1,.769.583l-1.241,1.634a.491.491,0,0,1-.387.191.475.475,0,0,1-.382-.191L45.14,31.325a.481.481,0,1,1,.764-.583l.377.5V24.58a.481.481,0,1,1,.962,0Zm-9.859,23.3a.482.482,0,0,1-.481.482H26.553l.5.377a.48.48,0,0,1,.09.674.475.475,0,0,1-.382.191.482.482,0,0,1-.292-.1l-1.632-1.242a.484.484,0,0,1,0-.767l1.632-1.242a.482.482,0,0,1,.585.767l-.5.377H36.9a.482.482,0,0,1,.481.481Zm-25.366-31.8a3.19,3.19,0,0,1-1.453-1.487c-.425-.919-.344-1.5-.184-1.675a.158.158,0,0,1,.127-.053.369.369,0,0,1,.132.03c.42.167,1.156,1.045,1.377,3.185Zm3.467,0c.222-2.14.958-3.018,1.377-3.185a.39.39,0,0,1,.137-.03.146.146,0,0,1,.123.053c.165.17.245.756-.184,1.675a3.168,3.168,0,0,1-1.453,1.487ZM13.754,6.96c-3.274,0-6.793,1.888-6.793,6.034a7.956,7.956,0,0,0,1.929,5.078,7.2,7.2,0,0,1,1.694,3.805h1.5V17.155A4.193,4.193,0,0,1,9.693,15c-.538-1.155-.543-2.18-.009-2.742A1.159,1.159,0,0,1,11,12c.887.353,1.83,1.7,2.014,4.416a4.131,4.131,0,0,0,1.477,0c.189-2.718,1.132-4.064,2.019-4.416a1.159,1.159,0,0,1,1.316.258c.533.562.524,1.587-.014,2.742a4.184,4.184,0,0,1-2.387,2.157v4.721h1.5a7.2,7.2,0,0,1,1.7-3.805,7.98,7.98,0,0,0,1.925-5.078c0-4.145-3.519-6.034-6.788-6.034Zm2.354,18.6H11.4a.8.8,0,0,1-.8-.8V24.68H16.91v.079a.8.8,0,0,1-.8.8Zm-1.387,1.691H12.787a.5.5,0,0,1-.5-.5v-.23h2.925v.23a.5.5,0,0,1-.5.5Zm-.264-5.373h-1.41V17.4a5.156,5.156,0,0,0,1.41,0Zm-3.859.963H16.91v.878H10.6Zm-.962-.6v2.52a1.76,1.76,0,0,0,1.689,1.758v.234a1.463,1.463,0,0,0,1.462,1.461h1.934a1.462,1.462,0,0,0,1.458-1.461v-.234a1.764,1.764,0,0,0,1.694-1.758v-2.52A5.965,5.965,0,0,1,19.4,18.632a8.857,8.857,0,0,0,2.113-5.639,6.479,6.479,0,0,0-2.458-5.263A8.491,8.491,0,0,0,13.755,6a8.514,8.514,0,0,0-5.3,1.734A6.489,6.489,0,0,0,6,12.993a8.882,8.882,0,0,0,2.109,5.639,5.943,5.943,0,0,1,1.528,3.607ZM52.069,11.582a.478.478,0,0,1-.561.384,14.3,14.3,0,0,0-6.123.338.454.454,0,0,1-.118.015.481.481,0,0,1-.113-.949,15.235,15.235,0,0,1,6.534-.35.477.477,0,0,1,.382.563Zm0,2.051a.48.48,0,0,1-.566.378,14.28,14.28,0,0,0-6.123.277.489.489,0,0,1-.113.013.482.482,0,0,1-.113-.95,15.236,15.236,0,0,1,6.538-.285.475.475,0,0,1,.377.566Zm0,4.1a.482.482,0,0,1-.576.367,14.445,14.445,0,0,0-6.123.156.457.457,0,0,1-.1.011.476.476,0,0,1-.467-.377.481.481,0,0,1,.363-.575A15.412,15.412,0,0,1,51.7,17.16a.482.482,0,0,1,.368.573Zm0-2.049a.479.479,0,0,1-.571.372,14.262,14.262,0,0,0-6.123.216.445.445,0,0,1-.109.013.482.482,0,0,1-.109-.95,15.209,15.209,0,0,1,6.538-.221.481.481,0,0,1,.373.57Zm0,4.033a.482.482,0,0,1-.576.367,14.455,14.455,0,0,0-6.123.156.431.431,0,0,1-.1.011.475.475,0,0,1-.467-.377.481.481,0,0,1,.363-.575,15.414,15.414,0,0,1,6.538-.157.483.483,0,0,1,.368.574ZM51.683,8.972a.481.481,0,1,1-.17.948,14.332,14.332,0,0,0-6.123.4.449.449,0,0,1-.123.016.482.482,0,0,1-.123-.947,15.3,15.3,0,0,1,6.538-.415Zm-17.346,2.61a.48.48,0,0,1,.382-.563,15.256,15.256,0,0,1,6.538.35.482.482,0,0,1-.118.949.509.509,0,0,1-.118-.015,14.293,14.293,0,0,0-6.123-.338.48.48,0,0,1-.561-.384Zm0,2.051a.482.482,0,0,1,.377-.566,15.234,15.234,0,0,1,6.538.285.482.482,0,0,1-.113.95.489.489,0,0,1-.113-.013,14.272,14.272,0,0,0-6.123-.277.482.482,0,0,1-.566-.378Zm0-4.1a.482.482,0,0,1,.387-.559,15.276,15.276,0,0,1,6.538.415.481.481,0,0,1-.123.947.5.5,0,0,1-.123-.016,14.327,14.327,0,0,0-6.123-.4.48.48,0,0,1-.557-.389Zm0,6.153a.485.485,0,0,1,.373-.57,15.207,15.207,0,0,1,6.538.221.481.481,0,0,1-.109.95.506.506,0,0,1-.109-.013,14.262,14.262,0,0,0-6.123-.216.484.484,0,0,1-.571-.372Zm7.274,4.191a.485.485,0,0,1-.472.377.454.454,0,0,1-.1-.011,14.451,14.451,0,0,0-6.123-.156.482.482,0,1,1-.208-.941,15.413,15.413,0,0,1,6.538.157.484.484,0,0,1,.368.575Zm0-1.983a.484.484,0,0,1-.576.366,14.445,14.445,0,0,0-6.123-.156.482.482,0,1,1-.208-.941,15.413,15.413,0,0,1,6.538.157.484.484,0,0,1,.368.575Zm11.572,3.941V7.293c-1.811-.574-7.057-.477-9.5.882V21.85a19.878,19.878,0,0,1,9.5-.017ZM37.9,21.267a19.974,19.974,0,0,1,4.826.583V8.175c-2.439-1.36-7.689-1.456-9.5-.882v14.54a18.545,18.545,0,0,1,4.67-.566ZM53.867,6.526a12.719,12.719,0,0,0-5.095-.491,14.155,14.155,0,0,0-5.567,1.306,14.178,14.178,0,0,0-5.571-1.306,12.73,12.73,0,0,0-5.095.491.477.477,0,0,0-.274.436V22.477a.479.479,0,0,0,.627.457,18.493,18.493,0,0,1,10.176.005.491.491,0,0,0,.269,0,18.484,18.484,0,0,1,10.176,0,.474.474,0,0,0,.151.024.48.48,0,0,0,.481-.481V6.962a.482.482,0,0,0-.278-.436ZM46.762,45.2a2.841,2.841,0,1,1,2.845-2.841A2.844,2.844,0,0,1,46.762,45.2Zm0-6.645a3.8,3.8,0,1,0,3.807,3.8A3.808,3.808,0,0,0,46.762,38.554Zm5.8,4.909a1.3,1.3,0,0,0,0-2.212,2.212,2.212,0,0,1-.92-2.213,1.3,1.3,0,0,0-1.562-1.564,2.2,2.2,0,0,1-2.212-.916,1.3,1.3,0,0,0-2.212,0,2.208,2.208,0,0,1-2.212.916,1.3,1.3,0,0,0-1.566,1.564,2.2,2.2,0,0,1-.915,2.213,1.3,1.3,0,0,0,0,2.212,2.2,2.2,0,0,1,.915,2.213,1.3,1.3,0,0,0,1.566,1.564,2.294,2.294,0,0,1,.4-.034,2.2,2.2,0,0,1,1.816.951,1.3,1.3,0,0,0,2.212,0,2.205,2.205,0,0,1,2.212-.916,1.3,1.3,0,0,0,1.562-1.564,2.219,2.219,0,0,1,.915-2.213ZM52,51.414l-1.311-.408a.484.484,0,0,0-.571.237l-.637,1.216-1.194-3.322a2.658,2.658,0,0,0,.363-.422,1.249,1.249,0,0,1,1.269-.525,2.861,2.861,0,0,0,.571.041L52,51.413Zm-7.939,1.053-.637-1.216a.482.482,0,0,0-.571-.236l-1.311.41,1.5-3.192a2.921,2.921,0,0,0,.557-.042,1.254,1.254,0,0,1,1.269.525,2.718,2.718,0,0,0,.373.435l-1.184,3.316Zm9.057-12A1.241,1.241,0,0,1,52.6,39.2a2.258,2.258,0,0,0-2.675-2.674A1.25,1.25,0,0,1,48.654,36a2.254,2.254,0,0,0-3.779,0,1.258,1.258,0,0,1-1.269.524A2.258,2.258,0,0,0,40.931,39.2a1.25,1.25,0,0,1-.524,1.268,2.257,2.257,0,0,0,0,3.781,1.25,1.25,0,0,1,.524,1.267,2.209,2.209,0,0,0,.613,2.062,2.33,2.33,0,0,0,.557.415l-1.9,4.014a.481.481,0,0,0,.58.664l1.972-.617.967,1.832a.474.474,0,0,0,.425.257h.033a.475.475,0,0,0,.42-.319l1.491-4.178a2.446,2.446,0,0,0,1.359,0l1.5,4.176a.486.486,0,0,0,.42.318H49.4a.485.485,0,0,0,.429-.258l.958-1.833,1.977.615a.482.482,0,0,0,.58-.667l-1.9-4.009a2.312,2.312,0,0,0,.543-.407,2.221,2.221,0,0,0,.613-2.062,1.241,1.241,0,0,1,.524-1.267,2.257,2.257,0,0,0,0-3.781Z" transform="translate(0 0)" fill-rule="evenodd"/>
    </g>
  </g>
</svg>
