<svg xmlns="http://www.w3.org/2000/svg" width="84.718" height="87.488" viewBox="0 0 84.718 87.488">
  <g id="Grupo_1102699" data-name="Grupo 1102699" transform="translate(-265 -3115.371)">
    <ellipse id="Elipse_11506" data-name="Elipse 11506" cx="38.5" cy="38" rx="38.5" ry="38" transform="translate(270.051 3126.433)" fill="#fcff9b"/>
    <g id="Elipse_11507" data-name="Elipse 11507" transform="translate(265 3183.031)" fill="none" stroke="#ea3a70" stroke-width="5">
      <circle cx="9.914" cy="9.914" r="9.914" stroke="none"/>
      <circle cx="9.914" cy="9.914" r="7.414" fill="none"/>
    </g>
    <g id="Grupo_1102291" data-name="Grupo 1102291" transform="translate(327.563 3115.371)">
      <path id="Trazado_873233" data-name="Trazado 873233" d="M1.54,0A1.539,1.539,0,0,0,0,1.54V8.335a1.54,1.54,0,0,0,3.081,0V1.54A1.539,1.539,0,0,0,1.54,0" transform="translate(9.536 11.889)" fill="#69ccd1"/>
      <path id="Trazado_873234" data-name="Trazado 873234" d="M1.54,0A1.539,1.539,0,0,0,0,1.54V8.335a1.54,1.54,0,0,0,3.081,0V1.54A1.539,1.539,0,0,0,1.54,0" transform="translate(9.536 0)" fill="#69ccd1"/>
      <path id="Trazado_873235" data-name="Trazado 873235" d="M7.644,0H1.54a1.54,1.54,0,1,0,0,3.081h6.1A1.54,1.54,0,0,0,7.644,0" transform="translate(12.971 9.34)" fill="#69ccd1"/>
      <path id="Trazado_873236" data-name="Trazado 873236" d="M7.644,0H1.54a1.54,1.54,0,0,0,0,3.081h6.1A1.54,1.54,0,1,0,7.644,0" transform="translate(0 9.34)" fill="#69ccd1"/>
    </g>
    <g id="resolucion-de-problemas" transform="translate(245.081 3140.433)">
      <g id="Grupo_1102305" data-name="Grupo 1102305" transform="translate(45.764 0.705)">
        <path id="Trazado_882059" data-name="Trazado 882059" d="M156.627,421.384h-9.543a2.833,2.833,0,0,1-2.833-2.833v-5.795h15.208v5.795A2.832,2.832,0,0,1,156.627,421.384Z" transform="translate(-136.615 -374.648)" fill="#9e9797"/>
        <path id="Trazado_882060" data-name="Trazado 882060" d="M248.561,412.757v5.795a2.833,2.833,0,0,1-2.833,2.833h2.833a2.833,2.833,0,0,0,2.833-2.833v-5.795Z" transform="translate(-228.549 -374.648)" fill="#8c8787"/>
        <path id="Trazado_882061" data-name="Trazado 882061" d="M79.848,48.1H78.3V41.3a.918.918,0,0,0-.981-.914A15.375,15.375,0,0,0,63.048,55.871a15.156,15.156,0,0,0,.185,2.118H78.3v-6.8h1.545a1.545,1.545,0,1,0,0-3.09Z" transform="translate(-63.046 -37.291)" fill="#69ccd1"/>
        <path id="Trazado_882062" data-name="Trazado 882062" d="M80.106,197.83v17.412H72.485c-.972-3.349-1.98-7.656-4.333-10.331a15.166,15.166,0,0,1-3.115-7.081H71.21v-1.545a1.545,1.545,0,1,1,3.089,0v1.545Z" transform="translate(-64.849 -177.133)" fill="#ea3a70"/>
        <path id="Trazado_882063" data-name="Trazado 882063" d="M176.727,307.91V311h-3.5a1.545,1.545,0,0,1-1.543-1.621,1.574,1.574,0,0,1,1.587-1.47Z" transform="translate(-161.47 -279.66)" fill="#fd4755"/>
        <path id="Trazado_882064" data-name="Trazado 882064" d="M195.174,227.6h2.833V245.01h-2.833Z" transform="translate(-182.749 -206.901)" fill="#fd4755"/>
        <path id="Trazado_882065" data-name="Trazado 882065" d="M209.614,227.6a.786.786,0,0,1,.77.953,15.164,15.164,0,0,1-2.952,6.151c-2.351,2.673-3.338,6.964-4.315,10.309H195.53v-6.769h-1.545a1.545,1.545,0,0,1-1.544-1.621,1.575,1.575,0,0,1,1.588-1.47h1.5V227.6h5.738v1.545a1.545,1.545,0,0,0,1.621,1.544,1.575,1.575,0,0,0,1.47-1.588v-1.5Z" transform="translate(-180.272 -206.901)" fill="#6c7fd8"/>
        <path id="Trazado_882066" data-name="Trazado 882066" d="M313.865,22.71a15.258,15.258,0,0,1-.188,2.394h-6.208v1.5A1.573,1.573,0,0,1,306,28.191a1.544,1.544,0,0,1-1.618-1.543V25.1h-4.764a.974.974,0,0,1-.974-.974V18.308h1.545a1.545,1.545,0,0,0,1.543-1.62,1.573,1.573,0,0,0-1.586-1.471h-1.5v-6.8a.918.918,0,0,1,.982-.914A15.242,15.242,0,0,1,313.865,22.71Z" transform="translate(-276.487 -7.5)" fill="#ffd15b"/>
        <path id="Trazado_882067" data-name="Trazado 882067" d="M197.093,48.1h-1.5V41.3a.919.919,0,0,0-.982-.914,14.86,14.86,0,0,0-2.1.287.907.907,0,0,1,.251.627v5.622a1.182,1.182,0,0,0,1.182,1.182h1.357a1.578,1.578,0,0,1,1.585,1.574,1.545,1.545,0,0,1-1.545,1.515h-1.4a1.182,1.182,0,0,0-1.182,1.182v5.613h2.833v-6.8h1.545a1.545,1.545,0,0,0,1.545-1.515,1.578,1.578,0,0,0-1.585-1.574Z" transform="translate(-180.331 -37.291)" fill="#60b7ff"/>
        <g id="Grupo_1102302" data-name="Grupo 1102302" transform="translate(7.022 17.607)">
          <path id="Trazado_882068" data-name="Trazado 882068" d="M138.424,196.285l-.009.576a.955.955,0,0,0,.955.969h.772v-1.545a1.544,1.544,0,0,0-2.429-1.266A1.52,1.52,0,0,1,138.424,196.285Z" transform="translate(-137.714 -194.74)" fill="#fd4755"/>
        </g>
        <g id="Grupo_1102303" data-name="Grupo 1102303" transform="translate(19.197 20.697)">
          <path id="Trazado_882069" data-name="Trazado 882069" d="M268.815,230.686c.448-.022.539-.239.528-.566a1.538,1.538,0,0,1-.35-.978V227.6h-1.8v1.545A1.545,1.545,0,0,0,268.815,230.686Z" transform="translate(-267.194 -227.598)" fill="#6c7fd8"/>
          <path id="Trazado_882070" data-name="Trazado 882070" d="M285.184,227.6h-2.833a.786.786,0,0,1,.77.953,15.163,15.163,0,0,1-2.952,6.151c-2.351,2.673-3.338,6.964-4.315,10.309h2.833c.978-3.345,1.965-7.636,4.315-10.309a15.163,15.163,0,0,0,2.952-6.151A.786.786,0,0,0,285.184,227.6Z" transform="translate(-275.04 -227.598)" fill="#4f66d0"/>
        </g>
        <g id="Grupo_1102304" data-name="Grupo 1102304" transform="translate(22.407 0)">
          <path id="Trazado_882071" data-name="Trazado 882071" d="M367.121,196.195a1.61,1.61,0,0,1-.651,1.294,1.538,1.538,0,0,0,.956.293,1.573,1.573,0,0,0,1.493-1.587v-1.5h-.844a.955.955,0,0,0-.955.955Z" transform="translate(-360.344 -177.09)" fill="#ffc344"/>
          <path id="Trazado_882072" data-name="Trazado 882072" d="M302.059,7.5a.922.922,0,0,0-.729.285A15.25,15.25,0,0,1,313.28,25.1h2.833A15.247,15.247,0,0,0,302.059,7.5Z" transform="translate(-301.33 -7.5)" fill="#ffc344"/>
        </g>
      </g>
      <g id="Grupo_1102306" data-name="Grupo 1102306" transform="translate(43.97 0)">
        <path id="Trazado_882073" data-name="Trazado 882073" d="M90.005,4.99A15.881,15.881,0,0,0,79.435,0,1.623,1.623,0,0,0,77.7,1.621v6.8a.705.705,0,0,0,.705.705h1.5a.871.871,0,0,1,.882.8.84.84,0,0,1-.838.881H78.407a.705.705,0,0,0-.705.705v5.821a1.681,1.681,0,0,0,1.679,1.679H83.44v.839a2.25,2.25,0,0,0,.163.844H80.339a.705.705,0,0,0-.705.705v1.5a.873.873,0,0,1-.8.883.84.84,0,0,1-.882-.839V21.4a.705.705,0,0,0-.705-.705h-2.44a.705.705,0,1,0,0,1.411h1.735v.839a2.261,2.261,0,0,0,.7,1.63A2.229,2.229,0,0,0,78.9,25.2,2.271,2.271,0,0,0,81.044,22.9v-.8h4.55a.083.083,0,0,1,.067.032.068.068,0,0,1,.015.061,14.548,14.548,0,0,1-2.8,5.852c-2.323,2.664-3.316,6.6-4.3,10.056H72.216V32.045a.705.705,0,0,0-.705-.705H69.966a.84.84,0,0,1-.839-.882.873.873,0,0,1,.883-.8h1.5a.705.705,0,0,0,.705-.705V15.312h.84a2.25,2.25,0,0,0,0-4.5h-.84v-6.1A1.624,1.624,0,0,0,70.484,3.1,15.955,15.955,0,0,0,55.743,21.51v0A15.919,15.919,0,0,0,59,28.922c2.226,2.528,3.187,6.554,4.181,9.992v5.694a3.542,3.542,0,0,0,3.538,3.538h9.543A3.542,3.542,0,0,0,79.8,44.609V38.916c.95-3.286,1.955-7.486,4.161-9.97a15.969,15.969,0,0,0,3.089-6.437A1.474,1.474,0,0,0,87,21.678a2.3,2.3,0,0,0,.942-1.869v-.8h5.5a.705.705,0,0,0,.7-.595A15.957,15.957,0,0,0,90.005,4.99ZM64.594,39.52h13.8v1.518h-13.8ZM70.574,4.5a.221.221,0,0,1,.166.059.2.2,0,0,1,.066.151v6.8a.705.705,0,0,0,.705.705h1.545a.84.84,0,0,1,0,1.679H71.51a.705.705,0,0,0-.705.705V20.7h-4.4v-.84a2.25,2.25,0,1,0-4.5,0v.84H57.056c-.055-.47-.088-.947-.1-1.425A14.692,14.692,0,0,1,70.574,4.5ZM60.1,28.031a14.522,14.522,0,0,1-2.807-5.924h5.323a.705.705,0,0,0,.705-.705V19.857a.84.84,0,1,1,1.679,0V21.4a.705.705,0,0,0,.705.705h5.1V28.25h-.8a2.271,2.271,0,0,0-2.292,2.141,2.232,2.232,0,0,0,.618,1.662,2.261,2.261,0,0,0,1.63.7h.839v5.358H64.42C63.466,34.744,62.411,30.667,60.1,28.031Zm16.168,18.7H66.721a2.131,2.131,0,0,1-2.007-1.422H72.89a.705.705,0,1,0,0-1.411h-8.3V42.448h13.8V43.9h-2.2a.705.705,0,1,0,0,1.411h2.082A2.13,2.13,0,0,1,76.264,46.736ZM92.827,17.6H87.235a.705.705,0,0,0-.705.705v1.5a.871.871,0,0,1-.8.882.839.839,0,0,1-.88-.838V18.308a.705.705,0,0,0-.705-.705H79.381a.269.269,0,0,1-.269-.269V12.218h.839a2.26,2.26,0,0,0,1.627-.7A2.233,2.233,0,0,0,82.2,9.86a2.269,2.269,0,0,0-2.291-2.143h-.8v-6.1a.2.2,0,0,1,.066-.152.212.212,0,0,1,.165-.058A14.539,14.539,0,0,1,92.827,17.6Z" transform="translate(-54.459 0)"/>
        <path id="Trazado_882074" data-name="Trazado 882074" d="M45.457,31.746a.705.705,0,0,0,1.411,0v-.781h.781a.705.705,0,1,0,0-1.411h-.781v-.781a.705.705,0,1,0-1.411,0v.781h-.781a.705.705,0,0,0,0,1.411h.781Z" transform="translate(-43.97 -25.429)"/>
        <circle id="Elipse_11508" data-name="Elipse 11508" cx="0.705" cy="0.705" r="0.705" transform="translate(7.61 0)"/>
      </g>
    </g>
  </g>
</svg>
