<svg xmlns="http://www.w3.org/2000/svg" width="84.718" height="87.488" viewBox="0 0 84.718 87.488">
  <g id="Grupo_1102700" data-name="Grupo 1102700" transform="translate(-265 -3494.31)">
    <ellipse id="Elipse_11509" data-name="Elipse 11509" cx="38.5" cy="38" rx="38.5" ry="38" transform="translate(270.051 3505.371)" fill="#fcff9b"/>
    <g id="Elipse_11510" data-name="Elipse 11510" transform="translate(265 3561.97)" fill="none" stroke="#ea3a70" stroke-width="5">
      <circle cx="9.914" cy="9.914" r="9.914" stroke="none"/>
      <circle cx="9.914" cy="9.914" r="7.414" fill="none"/>
    </g>
    <g id="Grupo_1102308" data-name="Grupo 1102308" transform="translate(327.563 3494.31)">
      <path id="Trazado_873233" data-name="Trazado 873233" d="M1.54,0A1.539,1.539,0,0,0,0,1.54V8.335a1.54,1.54,0,0,0,3.081,0V1.54A1.539,1.539,0,0,0,1.54,0" transform="translate(9.536 11.889)" fill="#69ccd1"/>
      <path id="Trazado_873234" data-name="Trazado 873234" d="M1.54,0A1.539,1.539,0,0,0,0,1.54V8.335a1.54,1.54,0,0,0,3.081,0V1.54A1.539,1.539,0,0,0,1.54,0" transform="translate(9.536 0)" fill="#69ccd1"/>
      <path id="Trazado_873235" data-name="Trazado 873235" d="M7.644,0H1.54a1.54,1.54,0,1,0,0,3.081h6.1A1.54,1.54,0,0,0,7.644,0" transform="translate(12.971 9.34)" fill="#69ccd1"/>
      <path id="Trazado_873236" data-name="Trazado 873236" d="M7.644,0H1.54a1.54,1.54,0,0,0,0,3.081h6.1A1.54,1.54,0,1,0,7.644,0" transform="translate(0 9.34)" fill="#69ccd1"/>
    </g>
    <g id="conferencia" transform="translate(283.52 3518.37)">
      <g id="Grupo_1102339" data-name="Grupo 1102339" transform="translate(1.775 1.775)">
        <g id="Grupo_1102319" data-name="Grupo 1102319" transform="translate(0 18.605)">
          <path id="Trazado_882075" data-name="Trazado 882075" d="M2,26H46.961V43.054H2Z" transform="translate(-2 -26)" fill="#dfb28b"/>
        </g>
        <g id="Grupo_1102320" data-name="Grupo 1102320" transform="translate(3.101 41.86)">
          <path id="Trazado_882076" data-name="Trazado 882076" d="M16.853,57.55v3.1H6v-3.1A1.555,1.555,0,0,1,7.55,56H15.3A1.555,1.555,0,0,1,16.853,57.55Z" transform="translate(-6 -56)" fill="#aab2bd"/>
        </g>
        <g id="Grupo_1102321" data-name="Grupo 1102321" transform="translate(3.101 34.109)">
          <path id="Trazado_882077" data-name="Trazado 882077" d="M16.853,47.55v3.1H14.527a3.637,3.637,0,0,0-.357-.419,3.893,3.893,0,0,0-5.488,0,3.636,3.636,0,0,0-.357.419H6v-3.1A1.555,1.555,0,0,1,7.55,46H15.3a1.555,1.555,0,0,1,1.55,1.55Z" transform="translate(-6 -46)" fill="#aab2bd"/>
        </g>
        <g id="Grupo_1102322" data-name="Grupo 1102322" transform="translate(17.054 34.109)">
          <path id="Trazado_882078" data-name="Trazado 882078" d="M34.853,47.55v3.1H32.527a3.637,3.637,0,0,0-.357-.419,3.893,3.893,0,0,0-5.488,0,3.636,3.636,0,0,0-.357.419H24v-3.1A1.555,1.555,0,0,1,25.55,46H33.3a.988.988,0,0,1,.155.008A1.555,1.555,0,0,1,34.853,47.55Z" transform="translate(-24 -46)" fill="#aab2bd"/>
        </g>
        <g id="Grupo_1102323" data-name="Grupo 1102323" transform="translate(17.054 41.86)">
          <path id="Trazado_882079" data-name="Trazado 882079" d="M34.853,57.55v3.1H24v-3.1A1.555,1.555,0,0,1,25.55,56H33.3A1.555,1.555,0,0,1,34.853,57.55Z" transform="translate(-24 -56)" fill="#aab2bd"/>
        </g>
        <g id="Grupo_1102324" data-name="Grupo 1102324" transform="translate(31.008 41.86)">
          <path id="Trazado_882080" data-name="Trazado 882080" d="M52.853,57.55v3.1H42v-3.1A1.555,1.555,0,0,1,43.55,56H51.3A1.555,1.555,0,0,1,52.853,57.55Z" transform="translate(-42 -56)" fill="#aab2bd"/>
        </g>
        <g id="Grupo_1102325" data-name="Grupo 1102325" transform="translate(31.008 34.109)">
          <path id="Trazado_882081" data-name="Trazado 882081" d="M52.853,47.55v3.1H50.527a3.637,3.637,0,0,0-.357-.419,3.893,3.893,0,0,0-5.488,0,3.636,3.636,0,0,0-.357.419H42v-3.1A1.555,1.555,0,0,1,43.55,46H51.3a.988.988,0,0,1,.155.008A1.555,1.555,0,0,1,52.853,47.55Z" transform="translate(-42 -46)" fill="#aab2bd"/>
        </g>
        <g id="Grupo_1102326" data-name="Grupo 1102326" transform="translate(32.558 37.209)">
          <path id="Trazado_882082" data-name="Trazado 882082" d="M51.752,53.876c0,.256-.008.519-.031.775h-7.69c-.023-.256-.031-.519-.031-.775a3.83,3.83,0,0,1,.775-2.326,3.637,3.637,0,0,1,.357-.419,3.893,3.893,0,0,1,5.488,0,3.636,3.636,0,0,1,.357.419A3.83,3.83,0,0,1,51.752,53.876Z" transform="translate(-44 -50)" fill="#ffda57"/>
        </g>
        <g id="Grupo_1102327" data-name="Grupo 1102327" transform="translate(18.605 37.209)">
          <path id="Trazado_882083" data-name="Trazado 882083" d="M33.752,53.876c0,.256-.008.519-.031.775h-7.69c-.023-.256-.031-.519-.031-.775a3.83,3.83,0,0,1,.775-2.326,3.637,3.637,0,0,1,.357-.419,3.893,3.893,0,0,1,5.488,0,3.636,3.636,0,0,1,.357.419,3.83,3.83,0,0,1,.775,2.326Z" transform="translate(-26 -50)" fill="#ffda57"/>
        </g>
        <g id="Grupo_1102328" data-name="Grupo 1102328" transform="translate(4.651 37.209)">
          <path id="Trazado_882084" data-name="Trazado 882084" d="M15.752,53.876c0,.256-.008.519-.031.775H8.031C8.008,54.4,8,54.132,8,53.876a3.83,3.83,0,0,1,.775-2.326,3.637,3.637,0,0,1,.357-.419,3.893,3.893,0,0,1,5.488,0,3.636,3.636,0,0,1,.357.419,3.83,3.83,0,0,1,.775,2.326Z" transform="translate(-8 -50)" fill="#ffda57"/>
        </g>
        <g id="Grupo_1102329" data-name="Grupo 1102329" transform="translate(4.651 29.457)">
          <path id="Trazado_882085" data-name="Trazado 882085" d="M15.434,42.326a3.958,3.958,0,0,1,.318,1.55c0,.264-.008.519-.031.775H8.031C8.008,44.4,8,44.14,8,43.876a3.881,3.881,0,0,1,6.62-2.744,3.977,3.977,0,0,1,.814,1.194Z" transform="translate(-8 -40)" fill="#ffda57"/>
        </g>
        <g id="Grupo_1102330" data-name="Grupo 1102330" transform="translate(18.605 29.457)">
          <path id="Trazado_882086" data-name="Trazado 882086" d="M33.752,43.876c0,.264-.008.519-.031.775l-.589.008a.988.988,0,0,0-.155-.008H26.031C26.008,44.4,26,44.14,26,43.876a3.876,3.876,0,1,1,7.752,0Z" transform="translate(-26 -40)" fill="#ffda57"/>
        </g>
        <g id="Grupo_1102331" data-name="Grupo 1102331" transform="translate(32.558 29.457)">
          <path id="Trazado_882087" data-name="Trazado 882087" d="M51.752,43.876c0,.264-.008.519-.031.775l-.589.008a.988.988,0,0,0-.155-.008H44.031C44.008,44.4,44,44.14,44,43.876a3.876,3.876,0,1,1,7.752,0Z" transform="translate(-44 -40)" fill="#ffda57"/>
        </g>
        <g id="Grupo_1102332" data-name="Grupo 1102332" transform="translate(23.256)">
          <path id="Trazado_882088" data-name="Trazado 882088" d="M32,2H55.256V23.705H32Z" transform="translate(-32 -2)" fill="#e6e9ed"/>
        </g>
        <g id="Grupo_1102333" data-name="Grupo 1102333" transform="translate(32.558 6.202)">
          <path id="Trazado_882089" data-name="Trazado 882089" d="M54.853,10v6.2H44V13.1h4.651V10Z" transform="translate(-44 -10)" fill="#ffc03c"/>
        </g>
        <g id="Grupo_1102334" data-name="Grupo 1102334" transform="translate(24.907 3.101)">
          <path id="Trazado_882090" data-name="Trazado 882090" d="M46.432,9.1v3.1H34.161l-.031-.039,3-2.434A2.1,2.1,0,0,0,35.8,6H46.432Z" transform="translate(-34.13 -6)" fill="#ea3a70"/>
        </g>
        <g id="Grupo_1102335" data-name="Grupo 1102335" transform="translate(4.651 3.101)">
          <path id="Trazado_882091" data-name="Trazado 882091" d="M11.876,23.829V24.6h-1.55A2.322,2.322,0,0,1,8,22.279V16.853A4.655,4.655,0,0,1,12.651,12.2h6.9a4.633,4.633,0,0,0,2.9-1.016L26.6,7.86l1.752-1.4A2.12,2.12,0,0,1,29.667,6h.264a2.1,2.1,0,0,1,1.326,3.729l-3,2.434L26.6,13.512l-6.4,5.2a1.544,1.544,0,0,0-.574,1.2v3.915H11.876Z" transform="translate(-8 -6)" fill="#69ccd1"/>
        </g>
        <g id="Grupo_1102336" data-name="Grupo 1102336" transform="translate(12.403 20.93)">
          <path id="Trazado_882092" data-name="Trazado 882092" d="M21.876,29v8.915a1.939,1.939,0,0,1-1.938,1.938,2.12,2.12,0,0,1-.388-.039,1.93,1.93,0,0,1-1.55-1.9V29Z" transform="translate(-18 -29)" fill="#969faa"/>
        </g>
        <g id="Grupo_1102337" data-name="Grupo 1102337" transform="translate(7.752)">
          <circle id="Elipse_11511" data-name="Elipse 11511" cx="4.5" cy="4.5" r="4.5" transform="translate(0.473 0.286)" fill="#f0d0b4"/>
        </g>
        <g id="Grupo_1102338" data-name="Grupo 1102338" transform="translate(8.527 20.93)">
          <path id="Trazado_882093" data-name="Trazado 882093" d="M18.426,39.814v.039H16.558a3.977,3.977,0,0,0-.814-1.194A3.893,3.893,0,0,0,13,37.527V29h3.876v8.915a1.93,1.93,0,0,0,1.55,1.9Z" transform="translate(-13 -29)" fill="#969faa"/>
        </g>
      </g>
      <g id="Grupo_1102340" data-name="Grupo 1102340" transform="translate(1 1)">
        <path id="Trazado_882094" data-name="Trazado 882094" d="M49.062,1H24.256V6.364L20.395,9.453a3.89,3.89,0,0,1-2.421.85h0a5.428,5.428,0,1,0-7.535.042,5.432,5.432,0,0,0-4.783,5.384V19.6H1v18.6H4.1v2.328h1.55v-3.1a.776.776,0,0,1,.775-.775h7.752a.776.776,0,0,1,.775.775v3.1H16.5v-3.1a2.321,2.321,0,0,0-1.556-2.184c0-.047.005-.094.005-.141a4.626,4.626,0,0,0-.144-1.128,2.678,2.678,0,0,0,1.307.35,2.715,2.715,0,0,0,2.713-2.712V21.155h5.426v3.1h9.167L29.869,28.4l1.178,1.009,4.419-5.155h.419v4.651h1.55V24.257h.419l4.419,5.155L43.449,28.4l-3.554-4.147h6.067v12.4H44.267a2.32,2.32,0,0,0-1.412-1.407c0-.047.005-.094.005-.141a4.651,4.651,0,1,0-9.3,0c0,.047,0,.094.005.141a2.321,2.321,0,0,0-1.556,2.184v3.1h1.55v-3.1a.776.776,0,0,1,.775-.775h7.752a.776.776,0,0,1,.775.775v3.1h1.55V38.209h3.1V24.256h1.55ZM38.209,32.01a3.1,3.1,0,0,1,3.1,3.1h-6.2A3.1,3.1,0,0,1,38.209,32.01ZM10.3,6.426A3.876,3.876,0,1,1,14.178,10.3,3.88,3.88,0,0,1,10.3,6.426Zm-3.1,9.3a3.88,3.88,0,0,1,3.876-3.876h6.9a5.453,5.453,0,0,0,3.39-1.188l5.9-4.723a1.325,1.325,0,0,1,.827-.29h.263a1.326,1.326,0,0,1,.836,2.354L18.138,16.987a2.319,2.319,0,0,0-.859,1.805v2.363h-6.2V17.279H9.527v5.426H8.752a1.552,1.552,0,0,1-1.55-1.55ZM39.76,11.853v-3.1h4.651V13.4h-9.3v-1.55Zm-1.55-1.55H28.825l1.346-1.093a2.868,2.868,0,0,0,1.062-2.233,2.838,2.838,0,0,0-.339-1.326h7.316ZM10.3,32.01a3.1,3.1,0,0,1,3.1,3.1H7.2A3.1,3.1,0,0,1,10.3,32.01Zm.775-1.481V22.705H13.4V31.62c0,.012,0,.024,0,.037a4.631,4.631,0,0,0-2.329-1.128ZM4.244,36.659H2.55v-15.5h3.1a3.1,3.1,0,0,0,3.1,3.1h.775v6.274a4.654,4.654,0,0,0-3.876,4.581c0,.047,0,.094.005.141a2.324,2.324,0,0,0-1.412,1.407Zm11.872-3.876a1.164,1.164,0,0,1-1.163-1.163V22.705h2.326v8.916A1.164,1.164,0,0,1,16.116,32.783ZM18.829,19.6v-.812a.772.772,0,0,1,.286-.6l5.14-4.176V19.6Zm28.682,3.1H25.806v-9.95l1.11-.9h6.642v3.1h12.4V7.2h-6.2V4.1H28.094a2.883,2.883,0,0,0-1.8.63l-.491.392V2.55H47.512Z" transform="translate(-1 -1)"/>
        <path id="Trazado_882095" data-name="Trazado 882095" d="M15.847,53.792c0-.047.005-.094.005-.141a4.651,4.651,0,0,0-9.3,0c0,.047,0,.094.005.141A2.321,2.321,0,0,0,5,55.977v3.876H17.4V55.977A2.321,2.321,0,0,0,15.847,53.792ZM11.2,50.55a3.1,3.1,0,0,1,3.1,3.1H8.1A3.1,3.1,0,0,1,11.2,50.55ZM15.853,58.3H6.55V55.977a.776.776,0,0,1,.775-.775h7.752a.776.776,0,0,1,.775.775Z" transform="translate(-1.899 -11.791)"/>
        <path id="Trazado_882096" data-name="Trazado 882096" d="M33.847,53.792c0-.047.005-.094.005-.141a4.651,4.651,0,0,0-9.3,0c0,.047,0,.094.005.141A2.321,2.321,0,0,0,23,55.977v3.876H35.4V55.977A2.321,2.321,0,0,0,33.847,53.792ZM29.2,50.55a3.1,3.1,0,0,1,3.1,3.1H26.1A3.1,3.1,0,0,1,29.2,50.55ZM33.853,58.3h-9.3V55.977a.776.776,0,0,1,.775-.775h7.752a.776.776,0,0,1,.775.775Z" transform="translate(-5.946 -11.791)"/>
        <path id="Trazado_882097" data-name="Trazado 882097" d="M51.847,53.792c0-.047.005-.094.005-.141a4.651,4.651,0,1,0-9.3,0c0,.047,0,.094.005.141A2.321,2.321,0,0,0,41,55.977v3.876H53.4V55.977A2.321,2.321,0,0,0,51.847,53.792ZM47.2,50.55a3.1,3.1,0,0,1,3.1,3.1H44.1A3.1,3.1,0,0,1,47.2,50.55ZM51.853,58.3h-9.3V55.977a.776.776,0,0,1,.775-.775h7.752a.776.776,0,0,1,.775.775Z" transform="translate(-9.992 -11.791)"/>
        <path id="Trazado_882098" data-name="Trazado 882098" d="M33.847,43.8c0-.047.005-.094.005-.141a4.651,4.651,0,1,0-9.3,0c0,.047,0,.094.005.141A2.321,2.321,0,0,0,23,45.98v3.1h1.55v-3.1a.776.776,0,0,1,.775-.775h7.752a.776.776,0,0,1,.775.775v3.1H35.4v-3.1A2.321,2.321,0,0,0,33.847,43.8ZM29.2,40.553a3.1,3.1,0,0,1,3.1,3.1H26.1A3.1,3.1,0,0,1,29.2,40.553Z" transform="translate(-5.946 -9.543)"/>
        <path id="Trazado_882099" data-name="Trazado 882099" d="M35,21h1.55v1.55H35Z" transform="translate(-8.643 -5.496)"/>
        <path id="Trazado_882100" data-name="Trazado 882100" d="M39,21H54.5v1.55H39Z" transform="translate(-9.543 -5.496)"/>
        <path id="Trazado_882101" data-name="Trazado 882101" d="M35,25H53.6v1.55H35Z" transform="translate(-8.643 -6.395)"/>
      </g>
    </g>
  </g>
</svg>
