<svg xmlns="http://www.w3.org/2000/svg" width="84.718" height="87.488" viewBox="0 0 84.718 87.488">
  <g id="Grupo_1102701" data-name="Grupo 1102701" transform="translate(-265 -3873.248)">
    <ellipse id="Elipse_11512" data-name="Elipse 11512" cx="38.5" cy="38" rx="38.5" ry="38" transform="translate(270.051 3884.433)" fill="#fcff9b"/>
    <g id="Elipse_11513" data-name="Elipse 11513" transform="translate(265 3940.908)" fill="none" stroke="#ea3a70" stroke-width="5">
      <circle cx="9.914" cy="9.914" r="9.914" stroke="none"/>
      <circle cx="9.914" cy="9.914" r="7.414" fill="none"/>
    </g>
    <g id="Grupo_1102342" data-name="Grupo 1102342" transform="translate(327.563 3873.248)">
      <path id="Trazado_873233" data-name="Trazado 873233" d="M1.54,0A1.539,1.539,0,0,0,0,1.54V8.335a1.54,1.54,0,0,0,3.081,0V1.54A1.539,1.539,0,0,0,1.54,0" transform="translate(9.536 11.889)" fill="#69ccd1"/>
      <path id="Trazado_873234" data-name="Trazado 873234" d="M1.54,0A1.539,1.539,0,0,0,0,1.54V8.335a1.54,1.54,0,0,0,3.081,0V1.54A1.539,1.539,0,0,0,1.54,0" transform="translate(9.536 0)" fill="#69ccd1"/>
      <path id="Trazado_873235" data-name="Trazado 873235" d="M7.644,0H1.54a1.54,1.54,0,1,0,0,3.081h6.1A1.54,1.54,0,0,0,7.644,0" transform="translate(12.971 9.34)" fill="#69ccd1"/>
      <path id="Trazado_873236" data-name="Trazado 873236" d="M7.644,0H1.54a1.54,1.54,0,0,0,0,3.081h6.1A1.54,1.54,0,1,0,7.644,0" transform="translate(0 9.34)" fill="#69ccd1"/>
    </g>
    <g id="entrevista" transform="translate(284.051 3885.803)">
      <g id="Grupo_1102350" data-name="Grupo 1102350" transform="translate(15.478 30.402)">
        <path id="Trazado_882102" data-name="Trazado 882102" d="M190.306,195.936H162.414a2.773,2.773,0,0,0-2.773,2.773v17.056a2.773,2.773,0,0,0,2.773,2.773H181.04a.863.863,0,0,1,.849.718,7.206,7.206,0,0,0,4.56,5.311.861.861,0,0,0,1.161-1.052,15.681,15.681,0,0,1-.641-4.088.861.861,0,0,1,.862-.889h2.474a2.773,2.773,0,0,0,2.773-2.773V198.709A2.773,2.773,0,0,0,190.306,195.936Z" transform="translate(-159.641 -195.936)" fill="#ffda57"/>
      </g>
      <g id="Grupo_1102351" data-name="Grupo 1102351" transform="translate(40.874 53.004)">
        <path id="Trazado_882103" data-name="Trazado 882103" d="M423.514,429.948a15.721,15.721,0,0,0,.641,4.088.861.861,0,0,1-1.161,1.051c-.263-.113-.54-.245-.823-.4a.839.839,0,0,0,.051-.651,15.726,15.726,0,0,1-.641-4.088.862.862,0,0,1,.862-.889h1.933A.861.861,0,0,0,423.514,429.948Z" transform="translate(-421.58 -429.059)" fill="#ffc03c"/>
      </g>
      <g id="Grupo_1102352" data-name="Grupo 1102352" transform="translate(44.21 30.402)">
        <path id="Trazado_882104" data-name="Trazado 882104" d="M460.7,198.711v17.056a2.773,2.773,0,0,1-2.773,2.773h-1.933a2.773,2.773,0,0,0,2.773-2.773V198.711a2.772,2.772,0,0,0-2.773-2.772h1.933A2.772,2.772,0,0,1,460.7,198.711Z" transform="translate(-455.991 -195.939)" fill="#ffc03c"/>
      </g>
      <g id="Grupo_1102353" data-name="Grupo 1102353" transform="translate(0.725 13.355)">
        <path id="Trazado_882105" data-name="Trazado 882105" d="M38.14,20.106H10.248a2.773,2.773,0,0,0-2.773,2.773V39.935a2.773,2.773,0,0,0,2.773,2.773h2.474a.861.861,0,0,1,.862.889,15.677,15.677,0,0,1-.641,4.088A.861.861,0,0,0,14.1,48.737a7.206,7.206,0,0,0,4.56-5.311.863.863,0,0,1,.849-.718H38.14a2.773,2.773,0,0,0,2.773-2.773V22.879a2.773,2.773,0,0,0-2.773-2.773Z" transform="translate(-7.475 -20.106)" fill="#69ccd1"/>
      </g>
      <g id="Grupo_1102354" data-name="Grupo 1102354" transform="translate(6.237 35.957)">
        <path id="Trazado_882106" data-name="Trazado 882106" d="M68.894,253.227h1.965a.863.863,0,0,0-.849.718,7.2,7.2,0,0,1-4.56,5.311.86.86,0,0,1-1.116-.414,6.891,6.891,0,0,0,3.711-4.9.863.863,0,0,1,.849-.718Z" transform="translate(-64.334 -253.227)" fill="#42b5ba"/>
      </g>
      <g id="Grupo_1102355" data-name="Grupo 1102355" transform="translate(29.424 13.355)">
        <path id="Trazado_882107" data-name="Trazado 882107" d="M308.221,22.881V39.937a2.772,2.772,0,0,1-2.772,2.773h-1.966a2.773,2.773,0,0,0,2.773-2.773V22.881a2.772,2.772,0,0,0-2.773-2.772h1.966A2.772,2.772,0,0,1,308.221,22.881Z" transform="translate(-303.482 -20.109)" fill="#42b5ba"/>
      </g>
      <g id="Grupo_1102356" data-name="Grupo 1102356" transform="translate(0 12.63)">
        <circle id="Elipse_11514" data-name="Elipse 11514" cx="1.039" cy="1.039" r="1.039" transform="translate(11.358 16.733)"/>
        <path id="Trazado_882108" data-name="Trazado 882108" d="M94.738,66.022a3.806,3.806,0,1,0-6.092-3.544,3.861,3.861,0,0,0-.037.53.725.725,0,1,0,1.449,0,2.4,2.4,0,0,1,.023-.33,2.356,2.356,0,1,1,3.771,2.2,5.413,5.413,0,0,0-2.162,4.292v.144a.725.725,0,0,0,1.449,0v-.144A3.975,3.975,0,0,1,94.738,66.022Z" transform="translate(-80.018 -54.686)"/>
        <circle id="Elipse_11515" data-name="Elipse 11515" cx="1.039" cy="1.039" r="1.039" transform="translate(21.452 16.733)"/>
        <path id="Trazado_882109" data-name="Trazado 882109" d="M198.849,66.022a3.806,3.806,0,1,0-6.092-3.544,3.848,3.848,0,0,0-.037.53.725.725,0,1,0,1.449,0,2.391,2.391,0,0,1,.023-.33,2.357,2.357,0,1,1,3.771,2.2,5.413,5.413,0,0,0-2.162,4.292v.144a.725.725,0,1,0,1.449,0v-.144A3.974,3.974,0,0,1,198.849,66.022Z" transform="translate(-174.035 -54.686)"/>
        <path id="Trazado_882110" data-name="Trazado 882110" d="M46.143,29.677H34.887V16.128a3.5,3.5,0,0,0-3.5-3.5H3.5a3.5,3.5,0,0,0-3.5,3.5v3.056a.725.725,0,0,0,1.449,0V16.128A2.05,2.05,0,0,1,3.5,14.08H31.39a2.051,2.051,0,0,1,2.048,2.048V33.183a2.051,2.051,0,0,1-2.048,2.048H12.763a1.584,1.584,0,0,0-1.564,1.32A6.486,6.486,0,0,1,7.067,41.32a.127.127,0,0,1-.146-.025.122.122,0,0,1-.038-.139,16.261,16.261,0,0,0,.675-4.287,1.586,1.586,0,0,0-1.586-1.638H3.5a2.051,2.051,0,0,1-2.048-2.048V22.562a.725.725,0,1,0-1.449,0V33.183a3.5,3.5,0,0,0,3.5,3.5H5.971a.136.136,0,0,1,.1.042.132.132,0,0,1,.038.1,15.124,15.124,0,0,1-.606,3.89,1.609,1.609,0,0,0,2.138,1.939A7.869,7.869,0,0,0,12.628,36.8a.138.138,0,0,1,.135-.117h1.99v13.55a3.5,3.5,0,0,0,3.5,3.5H30.46a.725.725,0,1,0,0-1.449H18.251A2.051,2.051,0,0,1,16.2,50.231V36.681H31.39a3.5,3.5,0,0,0,3.5-3.5V31.127H46.143a2.051,2.051,0,0,1,2.048,2.048V50.231a2.051,2.051,0,0,1-2.048,2.048H43.669a1.586,1.586,0,0,0-1.586,1.638,16.267,16.267,0,0,0,.675,4.287.122.122,0,0,1-.038.139.127.127,0,0,1-.146.025A6.486,6.486,0,0,1,38.441,53.6a1.585,1.585,0,0,0-1.564-1.32h-3.1a.725.725,0,1,0,0,1.449h3.1a.138.138,0,0,1,.135.117A7.869,7.869,0,0,0,42,59.7a1.629,1.629,0,0,0,1.7-.283,1.565,1.565,0,0,0,.443-1.656,15.128,15.128,0,0,1-.606-3.89.133.133,0,0,1,.038-.1.135.135,0,0,1,.1-.042h2.474a3.5,3.5,0,0,0,3.5-3.5V33.175a3.5,3.5,0,0,0-3.5-3.5Z" transform="translate(0 -12.63)"/>
        <circle id="Elipse_11516" data-name="Elipse 11516" cx="0.966" cy="0.966" r="0.966" transform="translate(21.882 28.107)"/>
        <circle id="Elipse_11517" data-name="Elipse 11517" cx="0.966" cy="0.966" r="0.966" transform="translate(28.114 28.107)"/>
        <circle id="Elipse_11518" data-name="Elipse 11518" cx="0.966" cy="0.966" r="0.966" transform="translate(34.347 28.107)"/>
        <circle id="Elipse_11519" data-name="Elipse 11519" cx="0.966" cy="0.966" r="0.966" transform="translate(40.579 28.107)"/>
      </g>
    </g>
  </g>
</svg>
