<svg xmlns="http://www.w3.org/2000/svg" width="84.718" height="87.488" viewBox="0 0 84.718 87.488">
  <g id="Grupo_1102702" data-name="Grupo 1102702" transform="translate(-265 -4252.187)">
    <ellipse id="Elipse_11520" data-name="Elipse 11520" cx="38.5" cy="38" rx="38.5" ry="38" transform="translate(270.051 4263.154)" fill="#fcff9b"/>
    <g id="Elipse_11521" data-name="Elipse 11521" transform="translate(265 4319.847)" fill="none" stroke="#ea3a70" stroke-width="5">
      <circle cx="9.914" cy="9.914" r="9.914" stroke="none"/>
      <circle cx="9.914" cy="9.914" r="7.414" fill="none"/>
    </g>
    <g id="Grupo_1102358" data-name="Grupo 1102358" transform="translate(327.563 4252.187)">
      <path id="Trazado_873233" data-name="Trazado 873233" d="M1.54,0A1.539,1.539,0,0,0,0,1.54V8.335a1.54,1.54,0,0,0,3.081,0V1.54A1.539,1.539,0,0,0,1.54,0" transform="translate(9.536 11.889)" fill="#69ccd1"/>
      <path id="Trazado_873234" data-name="Trazado 873234" d="M1.54,0A1.539,1.539,0,0,0,0,1.54V8.335a1.54,1.54,0,0,0,3.081,0V1.54A1.539,1.539,0,0,0,1.54,0" transform="translate(9.536 0)" fill="#69ccd1"/>
      <path id="Trazado_873235" data-name="Trazado 873235" d="M7.644,0H1.54a1.54,1.54,0,1,0,0,3.081h6.1A1.54,1.54,0,0,0,7.644,0" transform="translate(12.971 9.34)" fill="#69ccd1"/>
      <path id="Trazado_873236" data-name="Trazado 873236" d="M7.644,0H1.54a1.54,1.54,0,0,0,0,3.081h6.1A1.54,1.54,0,1,0,7.644,0" transform="translate(0 9.34)" fill="#69ccd1"/>
    </g>
    <g id="Page-1" transform="translate(285.051 4277.154)">
      <g id="_007---Thoughts" data-name="007---Thoughts">
        <path id="Shape" d="M46.234,32.012c-.6.457-1.828.759-1.975,1.575a1.99,1.99,0,0,0,.139,1.232c.416.89.873,1.363.547,1.64-.318.294-1.2.955-1.2.955s.832,1.077.367,1.4c-.571.408-1.3.6-1.493,1.371-.277,1.118.612,1.632-.033,3.509a2.048,2.048,0,0,1-2.416,1.518,62.817,62.817,0,0,1-6.553-2c-2.016.922-3.15,4.007-3.542,5.288a.816.816,0,0,1-.775.571H13.786a1.626,1.626,0,0,1-1.453-2.367,19.1,19.1,0,0,0,1.714-6.578c.008-.065.008-.122.016-.188a13.665,13.665,0,0,0-1.1-7.19h4.9a2.448,2.448,0,0,0,2.448-2.448V23.777a2.448,2.448,0,0,0-2.448-2.448H8.441A10.219,10.219,0,0,1,9,16.433h8.969l5.6,4.9-.612-4.9h1.428a2.448,2.448,0,0,0,2.448-2.448V5.04C33.576,5.407,41.182,9,42.9,16.2q.122.539.269,1.077c.294,1.012,1.3,2.252,1.151,3.346-.147,1.053-1.706,1.5-1.714,2.587-.008.433.343.816.408,1.175a5.591,5.591,0,0,0,1.257,2.873c3.281,3.583,3.215,3.811,1.959,4.758Z" transform="translate(-1.537 -0.927)" fill="#ffe0b2"/>
        <path id="Shape-2" data-name="Shape" d="M48.44,27.254a5.591,5.591,0,0,1-1.257-2.873c-.065-.359-.416-.743-.408-1.175.008-1.085,1.567-1.534,1.714-2.587.147-1.094-.857-2.334-1.151-3.346q-.147-.539-.269-1.077C45.347,9,37.741,5.407,31,5.04v.274C37.031,6.322,43.105,9.861,44.621,16.2q.122.539.269,1.077c.294,1.012,1.3,2.252,1.151,3.346-.147,1.053-1.706,1.5-1.714,2.587-.008.433.343.816.408,1.175a5.591,5.591,0,0,0,1.257,2.873c3.281,3.583,3.215,3.811,1.959,4.758-.6.457-1.828.759-1.975,1.575a1.99,1.99,0,0,0,.139,1.232c.416.89.873,1.363.547,1.64-.318.294-1.2.955-1.2.955s.832,1.077.367,1.4c-.571.408-1.3.6-1.493,1.371-.277,1.118.612,1.632-.033,3.509a2.4,2.4,0,0,1-.956,1.28c.351.092.689.175.988.238A2.048,2.048,0,0,0,46.751,43.7c.645-1.877-.245-2.391.033-3.509.2-.767.922-.963,1.493-1.371.465-.326-.367-1.4-.367-1.4s.881-.661,1.2-.955c.326-.277-.131-.751-.547-1.64a1.99,1.99,0,0,1-.139-1.232c.147-.816,1.371-1.118,1.975-1.575,1.257-.947,1.322-1.175-1.959-4.758Z" transform="translate(-5.701 -0.927)" fill="#dfc49c"/>
        <path id="Shape-3" data-name="Shape" d="M26.218,3.448v9.793A2.448,2.448,0,0,1,23.77,15.69H22.342l.612,4.9-5.6-4.9H7.448A2.448,2.448,0,0,1,5,13.241V3.448A2.448,2.448,0,0,1,7.448,1H23.77A2.448,2.448,0,0,1,26.218,3.448Z" transform="translate(-0.92 -0.184)" fill="#ea3a70"/>
        <path id="Shape-4" data-name="Shape" d="M27.126,1H24.678a2.448,2.448,0,0,1,2.448,2.448v9.793a2.448,2.448,0,0,1-2.448,2.448H23.25l.312,2.492,2.749,2.4-.612-4.9h1.428a2.448,2.448,0,0,0,2.448-2.448V3.448A2.448,2.448,0,0,0,27.126,1Z" transform="translate(-4.276 -0.184)" fill="#ad1457"/>
        <path id="Shape-5" data-name="Shape" d="M18.954,27.448v6.529a2.448,2.448,0,0,1-2.448,2.448H9.863l-5.6,4.9.612-4.9H3.448A2.448,2.448,0,0,1,1,33.977V27.448A2.448,2.448,0,0,1,3.448,25H16.506A2.448,2.448,0,0,1,18.954,27.448Z" transform="translate(-0.184 -4.598)" fill="#69ccd1"/>
        <path id="Shape-6" data-name="Shape" d="M19.448,25H17a2.448,2.448,0,0,1,2.448,2.448v6.529A2.448,2.448,0,0,1,17,36.425h2.448A2.448,2.448,0,0,0,21.9,33.977V27.448A2.448,2.448,0,0,0,19.448,25Z" transform="translate(-3.126 -4.598)" fill="#0377bc"/>
        <path id="Shape-7" data-name="Shape" d="M5.3,41.492,5,43.9,10.6,39H8.15Z" transform="translate(-0.92 -7.172)" fill="#0377bc"/>
        <path id="Shape-8" data-name="Shape" d="M27,35.874V29.345A2.448,2.448,0,0,1,29.448,26.9h1.428L30.264,22l5.6,4.9h3.379a2.448,2.448,0,0,1,2.448,2.448v6.529a2.448,2.448,0,0,1-2.448,2.448H29.448A2.448,2.448,0,0,1,27,35.874Z" transform="translate(-4.965 -4.046)" fill="#ffda57"/>
        <path id="Shape-9" data-name="Shape" d="M34.15,26.9H36.6L31,22l.3,2.4Z" transform="translate(-5.701 -4.046)" fill="#ffc03c"/>
        <path id="Shape-10" data-name="Shape" d="M41.448,28H39a2.448,2.448,0,0,1,2.448,2.448v6.529A2.448,2.448,0,0,1,39,39.425h2.448A2.448,2.448,0,0,0,43.9,36.977V30.448A2.448,2.448,0,0,0,41.448,28Z" transform="translate(-7.172 -5.149)" fill="#ffc03c"/>
        <g id="Grupo_1102391" data-name="Grupo 1102391">
          <path id="Shape-11" data-name="Shape" d="M45.359,46a3.078,3.078,0,0,1-.637-.068A60.462,60.462,0,0,1,38.068,43.9a.816.816,0,0,1,.539-1.541,59.248,59.248,0,0,0,6.451,1.972,1.259,1.259,0,0,0,1.476-.987,2.768,2.768,0,0,0,.073-1.838,3.14,3.14,0,0,1-.061-1.6,2.575,2.575,0,0,1,1.419-1.6l.113-.066a2.893,2.893,0,0,0-.26-.417.816.816,0,0,1,.156-1.152c.175-.131.586-.445.883-.686-.033-.063-.071-.13-.1-.191-.115-.206-.245-.444-.375-.719a2.8,2.8,0,0,1-.2-1.737c.171-.947,1.061-1.408,1.714-1.744a4.513,4.513,0,0,0,.565-.326,2.969,2.969,0,0,0,.49-.424,18.457,18.457,0,0,0-2.555-3.133,6.25,6.25,0,0,1-1.458-3.28,2.138,2.138,0,0,0-.111-.245,2.316,2.316,0,0,1-.31-1.092,2.686,2.686,0,0,1,1.12-1.928c.283-.262.571-.533.606-.749a3.664,3.664,0,0,0-.571-1.718,7.872,7.872,0,0,1-.553-1.288c-.1-.384-.2-.755-.282-1.125-1.2-5-5.751-8.791-12.175-10.112a.816.816,0,0,1,.326-1.6C42.046,6.03,47.068,10.27,48.418,15.922c.082.357.168.705.262,1.054a7.114,7.114,0,0,0,.442,1,4.728,4.728,0,0,1,.73,2.669,2.952,2.952,0,0,1-1.113,1.724c-.3.282-.592.548-.593.759a1.405,1.405,0,0,0,.139.343,2.469,2.469,0,0,1,.255.681A4.746,4.746,0,0,0,49.6,26.617c2.376,2.594,3.052,3.49,2.965,4.429a2.27,2.27,0,0,1-1.117,1.533,5.468,5.468,0,0,1-.8.47c-.291.15-.832.429-.862.6a1.2,1.2,0,0,0,.069.729c.117.245.231.453.326.63.283.508.756,1.359.015,1.99-.147.135-.4.342-.646.531a1.939,1.939,0,0,1,.227,1.1,1.137,1.137,0,0,1-.474.773c-.163.115-.339.22-.517.326-.43.245-.6.363-.653.581a1.612,1.612,0,0,0,.067.828,4.387,4.387,0,0,1-.119,2.745A2.879,2.879,0,0,1,45.359,46Zm3-7.929,0,0Zm.754-2.294-.018.016Z" transform="translate(-6.257 -0.84)"/>
          <path id="Shape-12" data-name="Shape" d="M29.967,56.69H14.452a2.432,2.432,0,0,1-2.1-1.184,2.4,2.4,0,0,1-.082-2.376,19.035,19.035,0,0,0,1.626-6.3c.007-.095.011-.144.017-.2a12.348,12.348,0,0,0-.1-3.672.817.817,0,1,1,1.609-.282,14.052,14.052,0,0,1,.112,4.168l-.017.185a20.5,20.5,0,0,1-1.8,6.855.78.78,0,0,0,.028.777.806.806,0,0,0,.7.4H29.967a11.991,11.991,0,0,1,2.582-4.79l-.394-.14c-.6-.212-1.05-.374-1.275-.446-.979-.313-3.962-1.268-4.679-3.439a.816.816,0,1,1,1.551-.512c.209.63,1.007,1.558,3.631,2.4.236.078.7.245,1.32.463.525.187,1.16.413,1.851.653a.816.816,0,0,1,.07,1.512c-1.768.809-2.82,3.867-3.1,4.785a1.622,1.622,0,0,1-1.556,1.148Z" transform="translate(-2.206 -7.725)"/>
          <path id="Shape-13" data-name="Shape" d="M22.77,21.218a.816.816,0,0,1-.537-.2l-5.368-4.695h-9.6A3.264,3.264,0,0,1,4,13.057V3.264A3.264,3.264,0,0,1,7.264,0H23.586a3.264,3.264,0,0,1,3.264,3.264v9.793a3.264,3.264,0,0,1-3.264,3.264h-.5l.5,3.979a.816.816,0,0,1-.81.917ZM7.264,1.632A1.632,1.632,0,0,0,5.632,3.264v9.793A1.632,1.632,0,0,0,7.264,14.69h9.907a.816.816,0,0,1,.537.2l3.986,3.486-.346-2.771a.816.816,0,0,1,.81-.917h1.428a1.632,1.632,0,0,0,1.632-1.632V3.264a1.632,1.632,0,0,0-1.632-1.632Z" transform="translate(-0.736)"/>
          <path id="Shape-14" data-name="Shape" d="M10.448,8.632H8.816A.816.816,0,0,1,8.816,7h1.632a.816.816,0,0,1,0,1.632Z" transform="translate(-1.471 -1.287)"/>
          <path id="Shape-15" data-name="Shape" d="M24.609,8.632H14.816a.816.816,0,0,1,0-1.632h9.793a.816.816,0,1,1,0,1.632Z" transform="translate(-2.575 -1.287)"/>
          <path id="Shape-16" data-name="Shape" d="M26.448,12.632H24.816a.816.816,0,0,1,0-1.632h1.632a.816.816,0,1,1,0,1.632Z" transform="translate(-4.414 -2.023)"/>
          <path id="Shape-17" data-name="Shape" d="M18.609,12.632H8.816a.816.816,0,0,1,0-1.632h9.793a.816.816,0,1,1,0,1.632Z" transform="translate(-1.471 -2.023)"/>
          <path id="Shape-18" data-name="Shape" d="M4.08,41.954a.816.816,0,0,1-.81-.917l.5-3.979h-.5A3.264,3.264,0,0,1,0,33.793V27.264A3.264,3.264,0,0,1,3.264,24H16.322a3.264,3.264,0,0,1,3.264,3.264v6.529a3.264,3.264,0,0,1-3.264,3.264H9.986L4.617,41.752A.816.816,0,0,1,4.08,41.954ZM3.264,25.632a1.632,1.632,0,0,0-1.632,1.632v6.529a1.632,1.632,0,0,0,1.632,1.632H4.693a.816.816,0,0,1,.81.917l-.346,2.771L9.14,35.627a.816.816,0,0,1,.539-.2h6.643a1.632,1.632,0,0,0,1.632-1.632V27.264a1.632,1.632,0,0,0-1.632-1.632Z" transform="translate(0 -4.414)"/>
          <path id="Shape-19" data-name="Shape" d="M18.448,30.632H16.816a.816.816,0,0,1,0-1.632h1.632a.816.816,0,1,1,0,1.632Z" transform="translate(-2.943 -5.333)"/>
          <path id="Shape-20" data-name="Shape" d="M11.345,30.632H4.816a.816.816,0,1,1,0-1.632h6.529a.816.816,0,1,1,0,1.632Z" transform="translate(-0.736 -5.333)"/>
          <path id="Shape-21" data-name="Shape" d="M6.448,34.632H4.816a.816.816,0,0,1,0-1.632H6.448a.816.816,0,0,1,0,1.632Z" transform="translate(-0.736 -6.069)"/>
          <path id="Shape-22" data-name="Shape" d="M17.345,34.632H10.816a.816.816,0,0,1,0-1.632h6.529a.816.816,0,0,1,0,1.632Z" transform="translate(-1.839 -6.069)"/>
          <path id="Shape-23" data-name="Shape" d="M39.057,38.954H29.264A3.264,3.264,0,0,1,26,35.69V29.161A3.264,3.264,0,0,1,29.264,25.9h.5l-.5-3.979a.816.816,0,0,1,1.347-.716L35.986,25.9h3.072a3.264,3.264,0,0,1,3.264,3.264V35.69A3.264,3.264,0,0,1,39.057,38.954ZM29.264,27.529a1.632,1.632,0,0,0-1.632,1.632V35.69a1.632,1.632,0,0,0,1.632,1.632h9.793A1.632,1.632,0,0,0,40.69,35.69V29.161a1.632,1.632,0,0,0-1.632-1.632H35.679a.816.816,0,0,1-.537-.2l-3.986-3.486.346,2.771a.816.816,0,0,1-.81.917Z" transform="translate(-4.782 -3.862)"/>
          <path id="Shape-24" data-name="Shape" d="M40.448,37.632H38.816a.816.816,0,1,1,0-1.632h1.632a.816.816,0,1,1,0,1.632Z" transform="translate(-6.988 -6.621)"/>
          <path id="Shape-25" data-name="Shape" d="M34.08,37.632H30.816a.816.816,0,1,1,0-1.632H34.08a.816.816,0,0,1,0,1.632Z" transform="translate(-5.517 -6.621)"/>
          <path id="Shape-26" data-name="Shape" d="M32.448,33.632H30.816a.816.816,0,1,1,0-1.632h1.632a.816.816,0,1,1,0,1.632Z" transform="translate(-5.517 -5.885)"/>
          <path id="Shape-27" data-name="Shape" d="M40.08,33.632H36.816a.816.816,0,1,1,0-1.632H40.08a.816.816,0,1,1,0,1.632Z" transform="translate(-6.621 -5.885)"/>
          <path id="Shape-28" data-name="Shape" d="M44.794,18.5A.816.816,0,0,1,44,17.878c-.966-4.046-4.624-6.073-7.52-7.062a.816.816,0,0,1,.526-1.545c2.693.917,7.382,3.206,8.583,8.227a.816.816,0,0,1-.6.979.845.845,0,0,1-.19.026Z" transform="translate(-6.61 -1.698)"/>
        </g>
      </g>
    </g>
  </g>
</svg>
