<svg xmlns="http://www.w3.org/2000/svg" width="84.718" height="87.488" viewBox="0 0 84.718 87.488">
  <g id="Grupo_1102703" data-name="Grupo 1102703" transform="translate(-265 -4631.125)">
    <ellipse id="Elipse_11522" data-name="Elipse 11522" cx="38.5" cy="38" rx="38.5" ry="38" transform="translate(270.051 4642.154)" fill="#fcff9b"/>
    <g id="Elipse_11523" data-name="Elipse 11523" transform="translate(265 4698.785)" fill="none" stroke="#ea3a70" stroke-width="5">
      <circle cx="9.914" cy="9.914" r="9.914" stroke="none"/>
      <circle cx="9.914" cy="9.914" r="7.414" fill="none"/>
    </g>
    <g id="Grupo_1102389" data-name="Grupo 1102389" transform="translate(327.563 4631.125)">
      <path id="Trazado_873233" data-name="Trazado 873233" d="M1.54,0A1.539,1.539,0,0,0,0,1.54V8.335a1.54,1.54,0,0,0,3.081,0V1.54A1.539,1.539,0,0,0,1.54,0" transform="translate(9.536 11.889)" fill="#69ccd1"/>
      <path id="Trazado_873234" data-name="Trazado 873234" d="M1.54,0A1.539,1.539,0,0,0,0,1.54V8.335a1.54,1.54,0,0,0,3.081,0V1.54A1.539,1.539,0,0,0,1.54,0" transform="translate(9.536 0)" fill="#69ccd1"/>
      <path id="Trazado_873235" data-name="Trazado 873235" d="M7.644,0H1.54a1.54,1.54,0,1,0,0,3.081h6.1A1.54,1.54,0,0,0,7.644,0" transform="translate(12.971 9.34)" fill="#69ccd1"/>
      <path id="Trazado_873236" data-name="Trazado 873236" d="M7.644,0H1.54a1.54,1.54,0,0,0,0,3.081h6.1A1.54,1.54,0,1,0,7.644,0" transform="translate(0 9.34)" fill="#69ccd1"/>
    </g>
    <g id="conferencia-de-prensa" transform="translate(278.72 4649.508)">
      <g id="Grupo_1102392" data-name="Grupo 1102392" transform="translate(10.995 31.921)">
        <path id="Trazado_882112" data-name="Trazado 882112" d="M74.068,134.93v4.258h-.01a4.032,4.032,0,0,0,0,8.064,6.157,6.157,0,0,0-6.156,6.156,6.155,6.155,0,0,0-6.154-6.156,4.032,4.032,0,1,0-4.034-4.032,4.031,4.031,0,0,0,4.034,4.032,6.156,6.156,0,0,0-6.156,6.156,6.156,6.156,0,0,0-6.156-6.156A4.032,4.032,0,1,0,45.4,143.22a4.031,4.031,0,0,0,4.032,4.032,6.155,6.155,0,0,0-6.154,6.156,6.158,6.158,0,0,0-6.156-6.156,4.032,4.032,0,1,0,0-8.064h0V134.93Z" transform="translate(-37.12 -134.93)" fill="#ffda57"/>
      </g>
      <g id="Grupo_1102393" data-name="Grupo 1102393" transform="translate(10.995 31.921)">
        <path id="Trazado_882113" data-name="Trazado 882113" d="M37.12,134.93H74.068v1.423H37.12Z" transform="translate(-37.12 -134.93)" fill="#ffc03c"/>
      </g>
      <g id="Grupo_1102394" data-name="Grupo 1102394" transform="translate(4.839 44.243)">
        <path id="Trazado_882114" data-name="Trazado 882114" d="M19.144,201.716v4.471H6.83v-4.471a6.157,6.157,0,0,1,6.156-6.156h0A6.158,6.158,0,0,1,19.144,201.716Z" transform="translate(-6.83 -195.56)" fill="#ea3a70"/>
      </g>
      <g id="Grupo_1102402" data-name="Grupo 1102402" transform="translate(6.963 36.179)">
        <g id="Grupo_1102395" data-name="Grupo 1102395" transform="translate(0)">
          <path id="Trazado_882115" data-name="Trazado 882115" d="M25.346,159.912a4.033,4.033,0,0,1-4.032,4.032h0a4.032,4.032,0,0,1,0-8.064h0A4.033,4.033,0,0,1,25.346,159.912Z" transform="translate(-17.28 -155.88)" fill="#ea3a70"/>
        </g>
        <g id="Grupo_1102396" data-name="Grupo 1102396" transform="translate(10.19 8.064)">
          <path id="Trazado_882116" data-name="Trazado 882116" d="M79.732,201.716v4.471H67.42v-4.471a6.155,6.155,0,0,1,6.154-6.156h0A6.156,6.156,0,0,1,79.732,201.716Z" transform="translate(-67.42 -195.56)" fill="#ea3a70"/>
        </g>
        <g id="Grupo_1102397" data-name="Grupo 1102397" transform="translate(12.314)">
          <path id="Trazado_882117" data-name="Trazado 882117" d="M85.934,159.912a4.031,4.031,0,0,1-4.032,4.032h0a4.032,4.032,0,1,1,4.034-4.032Z" transform="translate(-77.87 -155.88)" fill="#ea3a70"/>
        </g>
        <g id="Grupo_1102398" data-name="Grupo 1102398" transform="translate(22.502 8.064)">
          <path id="Trazado_882118" data-name="Trazado 882118" d="M140.312,201.716v4.471H128v-4.471a6.156,6.156,0,0,1,6.156-6.156h0A6.155,6.155,0,0,1,140.312,201.716Z" transform="translate(-128 -195.56)" fill="#ea3a70"/>
        </g>
        <g id="Grupo_1102399" data-name="Grupo 1102399" transform="translate(24.626)">
          <path id="Trazado_882119" data-name="Trazado 882119" d="M146.514,159.912a4.031,4.031,0,0,1-4.03,4.032h0a4.032,4.032,0,1,1,4.032-4.032Z" transform="translate(-138.45 -155.88)" fill="#ea3a70"/>
        </g>
        <g id="Grupo_1102400" data-name="Grupo 1102400" transform="translate(34.814 8.064)">
          <path id="Trazado_882120" data-name="Trazado 882120" d="M200.894,201.716v4.471H188.58v-4.471a6.157,6.157,0,0,1,6.156-6.156h.01A6.156,6.156,0,0,1,200.894,201.716Z" transform="translate(-188.58 -195.56)" fill="#ea3a70"/>
        </g>
        <g id="Grupo_1102401" data-name="Grupo 1102401" transform="translate(36.938)">
          <path id="Trazado_882121" data-name="Trazado 882121" d="M207.1,159.912a4.032,4.032,0,0,1-4.024,4.032h-.01a4.032,4.032,0,0,1,0-8.064h.01A4.032,4.032,0,0,1,207.1,159.912Z" transform="translate(-199.03 -155.88)" fill="#ea3a70"/>
        </g>
      </g>
      <g id="Grupo_1102403" data-name="Grupo 1102403" transform="translate(23.309 18.91)">
        <path id="Trazado_882122" data-name="Trazado 882122" d="M110.022,77.067V80.3H97.71v-3.23a6.155,6.155,0,0,1,6.154-6.156h0A6.155,6.155,0,0,1,110.022,77.067Z" transform="translate(-97.71 -70.911)" fill="#69ccd1"/>
      </g>
      <g id="Grupo_1102404" data-name="Grupo 1102404" transform="translate(30.275 20.848)">
        <path id="Trazado_882123" data-name="Trazado 882123" d="M135.114,86.515a.508.508,0,0,1-.508-.508V84.666a3.417,3.417,0,0,0-.521-1.815.508.508,0,1,1,.861-.539,4.432,4.432,0,0,1,.676,2.354v1.342a.508.508,0,0,1-.508.508Zm-2.3-4.865a3.426,3.426,0,0,0-.484-.216.508.508,0,1,1,.341-.957,4.437,4.437,0,0,1,.628.281.508.508,0,1,1-.485.893Z" transform="translate(-131.987 -80.447)" fill="#c4e4fd"/>
      </g>
      <g id="Grupo_1102405" data-name="Grupo 1102405" transform="translate(25.432 10.845)">
        <circle id="Elipse_11524" data-name="Elipse 11524" cx="4.032" cy="4.032" r="4.032" fill="#fdb59f"/>
      </g>
      <g id="Grupo_1102406" data-name="Grupo 1102406" transform="translate(44.49 16.938)">
        <path id="Trazado_882124" data-name="Trazado 882124" d="M204.048,66.886c-.233-1-.387-1.669-1.746-2.118a.541.541,0,0,1,0-1.027c.818-.27,1.358-.449,1.746-2.118a.541.541,0,0,1,1.053,0c.4,1.707.988,1.868,1.746,2.118a.541.541,0,0,1,0,1.027c-.789.261-1.359.449-1.746,2.118A.541.541,0,0,1,204.048,66.886Z" transform="translate(-201.932 -61.207)"/>
      </g>
      <g id="Grupo_1102408" data-name="Grupo 1102408" transform="translate(46.297 19.056)">
        <g id="Grupo_1102407" data-name="Grupo 1102407">
          <path id="Trazado_882125" data-name="Trazado 882125" d="M212.471,72.562a2.684,2.684,0,0,0-.8.9,2.793,2.793,0,0,0-.845-.894,2.688,2.688,0,0,0,.837-.943A2.761,2.761,0,0,0,212.471,72.562Z" transform="translate(-210.825 -71.627)" fill="#f0c020"/>
        </g>
      </g>
      <g id="Grupo_1102409" data-name="Grupo 1102409" transform="translate(9.154 16.938)">
        <path id="Trazado_882126" data-name="Trazado 882126" d="M30.179,66.886c-.233-1-.387-1.669-1.746-2.118a.541.541,0,0,1,0-1.027c.818-.27,1.358-.449,1.746-2.118a.541.541,0,0,1,1.053,0c.4,1.707.988,1.868,1.746,2.118a.541.541,0,0,1,0,1.027c-.789.261-1.359.449-1.746,2.118A.541.541,0,0,1,30.179,66.886Z" transform="translate(-28.063 -61.207)"/>
      </g>
      <g id="Grupo_1102411" data-name="Grupo 1102411" transform="translate(10.961 19.056)">
        <g id="Grupo_1102410" data-name="Grupo 1102410">
          <path id="Trazado_882127" data-name="Trazado 882127" d="M38.6,72.562a2.684,2.684,0,0,0-.8.9,2.794,2.794,0,0,0-.845-.894,2.688,2.688,0,0,0,.837-.943A2.763,2.763,0,0,0,38.6,72.562Z" transform="translate(-36.955 -71.627)" fill="#f0c020"/>
        </g>
      </g>
      <g id="Grupo_1102412" data-name="Grupo 1102412" transform="translate(36.427 6.154)">
        <path id="Trazado_882128" data-name="Trazado 882128" d="M177.13,16.122H162.26l1.426-2.037V8.918a.772.772,0,0,1,.772-.772h12.672a.772.772,0,0,1,.772.772V15.35a.771.771,0,0,1-.772.772Z" transform="translate(-162.26 -8.146)" fill="#69ccd1"/>
      </g>
      <g id="Grupo_1102413" data-name="Grupo 1102413" transform="translate(6.86 6.154)">
        <path id="Trazado_882129" data-name="Trazado 882129" d="M17.549,16.122h14.87l-1.426-2.037V8.918a.772.772,0,0,0-.772-.772H17.549a.772.772,0,0,0-.772.772V15.35A.772.772,0,0,0,17.549,16.122Z" transform="translate(-16.777 -8.146)" fill="#69ccd1"/>
      </g>
      <g id="Grupo_1102414" data-name="Grupo 1102414" transform="translate(8.731 28.297)">
        <path id="Trazado_882130" data-name="Trazado 882130" d="M67.446,118.116v1.591a1.016,1.016,0,0,1-1.014,1.016H27a1.018,1.018,0,0,1-1.018-1.016v-1.591A1.016,1.016,0,0,1,27,117.1H66.429A1.013,1.013,0,0,1,67.446,118.116Z" transform="translate(-25.98 -117.1)" fill="#eee"/>
      </g>
      <g id="Grupo_1102415" data-name="Grupo 1102415" transform="translate(11.806 46.182)">
        <path id="Trazado_882131" data-name="Trazado 882131" d="M44.238,212.663a.508.508,0,0,1-.508-.508v-.61a.508.508,0,1,1,1.016,0v.61A.508.508,0,0,1,44.238,212.663Zm0-2.642a.508.508,0,0,1-.508-.508v-.193a3.44,3.44,0,0,0-2.281-3.232.508.508,0,1,1,.341-.957,4.458,4.458,0,0,1,2.955,4.189v.193A.508.508,0,0,1,44.238,210.021Z" transform="translate(-41.112 -205.1)" fill="#eee"/>
      </g>
      <g id="Grupo_1102416" data-name="Grupo 1102416" transform="translate(24.119 46.182)">
        <path id="Trazado_882132" data-name="Trazado 882132" d="M104.821,212.663a.508.508,0,0,1-.508-.508v-.61a.508.508,0,0,1,1.016,0v.61A.508.508,0,0,1,104.821,212.663Zm0-2.642a.508.508,0,0,1-.508-.508v-.193a3.44,3.44,0,0,0-2.281-3.232.508.508,0,0,1,.341-.957,4.458,4.458,0,0,1,2.955,4.189v.193A.508.508,0,0,1,104.821,210.021Z" transform="translate(-101.695 -205.1)" fill="#eee"/>
      </g>
      <g id="Grupo_1102417" data-name="Grupo 1102417" transform="translate(36.431 46.182)">
        <path id="Trazado_882133" data-name="Trazado 882133" d="M165.405,212.663a.508.508,0,0,1-.508-.508v-.61a.508.508,0,0,1,1.016,0v.61A.508.508,0,0,1,165.405,212.663Zm0-2.642a.508.508,0,0,1-.508-.508v-.193a3.44,3.44,0,0,0-2.281-3.232.508.508,0,1,1,.341-.957,4.458,4.458,0,0,1,2.955,4.189v.193A.508.508,0,0,1,165.405,210.021Z" transform="translate(-162.279 -205.1)" fill="#eee"/>
      </g>
      <g id="Grupo_1102418" data-name="Grupo 1102418" transform="translate(48.744 46.182)">
        <path id="Trazado_882134" data-name="Trazado 882134" d="M225.988,212.663a.508.508,0,0,1-.508-.508v-.61a.508.508,0,1,1,1.016,0v.61A.508.508,0,0,1,225.988,212.663Zm0-2.642a.508.508,0,0,1-.508-.508v-.193a3.44,3.44,0,0,0-2.281-3.232.508.508,0,1,1,.341-.957,4.458,4.458,0,0,1,2.955,4.189v.193A.508.508,0,0,1,225.988,210.021Z" transform="translate(-222.862 -205.1)" fill="#eee"/>
      </g>
      <g id="Grupo_1102419" data-name="Grupo 1102419" transform="translate(15.648 26.283)">
        <path id="Trazado_882135" data-name="Trazado 882135" d="M64.411,109.2H60.016v-1a1.016,1.016,0,0,1,1.016-1.016h2.363a1.016,1.016,0,0,1,1.016,1.016Z" transform="translate(-60.016 -107.189)" fill="#ea3a70"/>
      </g>
      <g id="Grupo_1102420" data-name="Grupo 1102420" transform="translate(38.886 26.283)">
        <path id="Trazado_882136" data-name="Trazado 882136" d="M174.359,109.2h4.395v-1a1.016,1.016,0,0,0-1.016-1.016h-2.363a1.016,1.016,0,0,0-1.016,1.016Z" transform="translate(-174.359 -107.189)" fill="#ea3a70"/>
      </g>
      <g id="Grupo_1102421" data-name="Grupo 1102421" transform="translate(10.995 34.756)">
        <path id="Trazado_882137" data-name="Trazado 882137" d="M74.068,148.88V150.3h-.01a4.032,4.032,0,0,0,0,8.064,6.157,6.157,0,0,0-6.156,6.156,6.155,6.155,0,0,0-6.154-6.156,4.032,4.032,0,1,0-4.034-4.032,4.031,4.031,0,0,0,4.034,4.032,6.156,6.156,0,0,0-6.156,6.156,6.156,6.156,0,0,0-6.156-6.156,4.032,4.032,0,1,0-4.032-4.032,4.031,4.031,0,0,0,4.032,4.032,6.155,6.155,0,0,0-6.154,6.156,6.158,6.158,0,0,0-6.156-6.156,4.032,4.032,0,0,0,0-8.064h0V148.88a5.45,5.45,0,0,1,3.971,9.19,7.672,7.672,0,0,1,2.187,2.04,7.589,7.589,0,0,1,2.187-2.04,5.455,5.455,0,1,1,7.938,0,7.672,7.672,0,0,1,2.187,2.04,7.645,7.645,0,0,1,2.187-2.04,5.455,5.455,0,1,1,7.938,0,7.615,7.615,0,0,1,2.187,2.04,7.643,7.643,0,0,1,2.187-2.04,5.45,5.45,0,0,1,3.969-9.19Z" transform="translate(-37.12 -148.88)" fill="#ffc03c"/>
      </g>
      <g id="Grupo_1102422" data-name="Grupo 1102422" transform="translate(4.331 5.646)">
        <path id="Trazado_882138" data-name="Trazado 882138" d="M160.265,14.64h14.869a1.28,1.28,0,0,0,1.28-1.278V6.93a1.28,1.28,0,0,0-1.28-1.281h-3.89a.508.508,0,0,0,0,1.016h3.89a.264.264,0,0,1,.264.264v6.432a.263.263,0,0,1-.264.262H161.24l.866-1.238a.5.5,0,0,0,.091-.291V6.93a.266.266,0,0,1,.264-.264h4.717a.508.508,0,0,0,0-1.016h-4.717a1.28,1.28,0,0,0-1.278,1.281v5.006l-1.335,1.906A.508.508,0,0,0,160.265,14.64Z" transform="translate(-128.168 -5.648)"/>
        <circle id="Elipse_11525" data-name="Elipse 11525" cx="0.508" cy="0.508" r="0.508" transform="translate(40.535 0.001)"/>
        <path id="Trazado_882139" data-name="Trazado 882139" d="M193.365,19.678h-6.089a.508.508,0,1,0,0,1.016h6.089a.508.508,0,1,0,0-1.016Z" transform="translate(-149.691 -16.826)"/>
        <path id="Trazado_882140" data-name="Trazado 882140" d="M193.365,30.86h-6.089a.508.508,0,1,0,0,1.016h6.089a.508.508,0,1,0,0-1.016Z" transform="translate(-149.691 -25.736)"/>
        <path id="Trazado_882141" data-name="Trazado 882141" d="M15.556,14.638H30.426a.508.508,0,0,0,.416-.8l-1.334-1.906V6.926a1.281,1.281,0,0,0-1.28-1.28H15.556a1.281,1.281,0,0,0-1.28,1.28v6.432a1.282,1.282,0,0,0,1.28,1.28Zm-.264-7.712a.264.264,0,0,1,.264-.264H28.228a.264.264,0,0,1,.264.264v5.167a.508.508,0,0,0,.092.291l.866,1.237H15.556a.264.264,0,0,1-.264-.264Z" transform="translate(-12.255 -5.646)"/>
        <path id="Trazado_882142" data-name="Trazado 882142" d="M34.778,20.694h6.089a.508.508,0,0,0,0-1.016H34.778a.508.508,0,0,0,0,1.016Z" transform="translate(-28.185 -16.826)"/>
        <path id="Trazado_882143" data-name="Trazado 882143" d="M34.778,31.876h6.089a.508.508,0,0,0,0-1.016H34.778a.508.508,0,1,0,0,1.016Z" transform="translate(-28.185 -25.736)"/>
        <circle id="Elipse_11526" data-name="Elipse 11526" cx="0.508" cy="0.508" r="0.508" transform="translate(17.047 25.767)"/>
        <path id="Trazado_882144" data-name="Trazado 882144" d="M7.787,210.8a.52.52,0,0,0-.673.248v0a.508.508,0,0,0,.923.427v0A.509.509,0,0,0,7.787,210.8Z" transform="translate(-6.511 -169.07)"/>
        <path id="Trazado_882145" data-name="Trazado 882145" d="M4.918,220.361a.506.506,0,0,0-.555.455,6.409,6.409,0,0,0-.033.658v4.471a.508.508,0,0,0,1.016,0v-4.471c0-.185.008-.372.026-.559A.507.507,0,0,0,4.918,220.361Z" transform="translate(-4.331 -176.722)"/>
        <path id="Trazado_882146" data-name="Trazado 882146" d="M56.834,62.527a4.536,4.536,0,0,0-1.757-8.434V50.819h.732a1.533,1.533,0,0,0,1.524-1.524V47.7a1.533,1.533,0,0,0-1.524-1.524H50.416v-.488a1.526,1.526,0,0,0-1.524-1.524h-.674v-3.7a.509.509,0,0,0-.149-.359l-1.662-1.663a.508.508,0,0,0-.718.718L47.2,40.673v3.492h-.672A1.526,1.526,0,0,0,45,45.689v.488h-2.25V43.456a6.674,6.674,0,0,0-4.387-6.263,4.54,4.54,0,1,0-4.555,0,6.675,6.675,0,0,0-4.386,6.263v2.721H27.178v-.488a1.526,1.526,0,0,0-1.524-1.524h-.672V40.673l1.513-1.514a.508.508,0,0,0-.718-.718L24.114,40.1a.508.508,0,0,0-.149.359v3.7h-.674a1.526,1.526,0,0,0-1.524,1.524v.488H16.375A1.53,1.53,0,0,0,14.851,47.7V49.3a1.529,1.529,0,0,0,1.524,1.524h.738V54.09a4.537,4.537,0,0,0-1.767,8.435c-.134.049-.268.1-.4.158a6.668,6.668,0,0,0-2.16,1.518.51.51,0,0,0,.02.719.523.523,0,0,0,.717-.018,0,0,0,0,1,0,0,5.6,5.6,0,0,1,4.093-1.76h.008a5.668,5.668,0,0,1,5.644,5.648V73.26a.508.508,0,1,0,1.016,0V68.789a5.648,5.648,0,0,1,11.3,0V73.26a.508.508,0,1,0,1.016,0V68.789a5.648,5.648,0,0,1,11.3,0V73.26a.508.508,0,1,0,1.016,0V68.789a5.649,5.649,0,0,1,11.3,0V73.26a.508.508,0,1,0,1.016,0V68.789a6.674,6.674,0,0,0-4.391-6.262ZM58.085,58.6a3.525,3.525,0,1,1-3.517-3.524A3.534,3.534,0,0,1,58.085,58.6ZM46.021,45.689a.509.509,0,0,1,.508-.508h2.363a.509.509,0,0,1,.508.508v.488H46.021ZM32.567,33.268a3.524,3.524,0,1,1,3.524,3.524A3.528,3.528,0,0,1,32.567,33.268ZM30.443,43.456a5.648,5.648,0,0,1,11.3,0v2.721h-11.3Zm-7.66,2.233a.509.509,0,0,1,.508-.508h2.363a.509.509,0,0,1,.508.508v.488H22.783ZM14.1,58.6a3.525,3.525,0,1,1,3.527,3.524h-.005A3.531,3.531,0,0,1,14.1,58.6Zm12.314,0a3.524,3.524,0,1,1,3.523,3.524A3.528,3.528,0,0,1,26.411,58.6ZM48.4,66.239a6.7,6.7,0,0,0-3.879-3.713,4.54,4.54,0,1,0-4.554,0,6.7,6.7,0,0,0-3.879,3.713,6.7,6.7,0,0,0-3.879-3.713,4.541,4.541,0,1,0-4.553,0,6.7,6.7,0,0,0-3.877,3.707A6.7,6.7,0,0,0,19.9,62.524a4.538,4.538,0,0,0-1.774-8.435V50.819H26.48a.508.508,0,0,0,0-1.016H16.375a.5.5,0,0,1-.508-.508V47.7a.509.509,0,0,1,.508-.508H55.809a.516.516,0,0,1,.508.508v1.593a.516.516,0,0,1-.508.508H30.545a.508.508,0,1,0,0,1.016H54.061v3.269a4.537,4.537,0,0,0-1.777,8.437A6.7,6.7,0,0,0,48.4,66.239Zm-6.156-4.114A3.524,3.524,0,1,1,45.771,58.6,3.528,3.528,0,0,1,42.247,62.125Z" transform="translate(-10.957 -24.036)"/>
      </g>
    </g>
  </g>
</svg>
