<svg xmlns="http://www.w3.org/2000/svg" width="84.718" height="87.488" viewBox="0 0 84.718 87.488">
  <g id="Grupo_1102705" data-name="Grupo 1102705" transform="translate(-265 -5389.002)">
    <ellipse id="Elipse_11531" data-name="Elipse 11531" cx="38.5" cy="38" rx="38.5" ry="38" transform="translate(270.051 5400.154)" fill="#fcff9b"/>
    <g id="Elipse_11532" data-name="Elipse 11532" transform="translate(265 5456.662)" fill="none" stroke="#ea3a70" stroke-width="5">
      <circle cx="9.914" cy="9.914" r="9.914" stroke="none"/>
      <circle cx="9.914" cy="9.914" r="7.414" fill="none"/>
    </g>
    <g id="Grupo_1102439" data-name="Grupo 1102439" transform="translate(327.563 5389.002)">
      <path id="Trazado_873233" data-name="Trazado 873233" d="M1.54,0A1.539,1.539,0,0,0,0,1.54V8.335a1.54,1.54,0,0,0,3.081,0V1.54A1.539,1.539,0,0,0,1.54,0" transform="translate(9.536 11.889)" fill="#69ccd1"/>
      <path id="Trazado_873234" data-name="Trazado 873234" d="M1.54,0A1.539,1.539,0,0,0,0,1.54V8.335a1.54,1.54,0,0,0,3.081,0V1.54A1.539,1.539,0,0,0,1.54,0" transform="translate(9.536 0)" fill="#69ccd1"/>
      <path id="Trazado_873235" data-name="Trazado 873235" d="M7.644,0H1.54a1.54,1.54,0,1,0,0,3.081h6.1A1.54,1.54,0,0,0,7.644,0" transform="translate(12.971 9.34)" fill="#69ccd1"/>
      <path id="Trazado_873236" data-name="Trazado 873236" d="M7.644,0H1.54a1.54,1.54,0,0,0,0,3.081h6.1A1.54,1.54,0,1,0,7.644,0" transform="translate(0 9.34)" fill="#69ccd1"/>
    </g>
    <g id="ocurrencia" transform="translate(284.051 5413.154)">
      <path id="Trazado_882160" data-name="Trazado 882160" d="M84.924,8a17.926,17.926,0,0,0-7.94,34A4.975,4.975,0,0,1,79.67,45.61a44.559,44.559,0,0,1,.074,5.284,5.18,5.18,0,0,0,10.361,0c.022-4.408-.053-4.562.075-5.284a4.986,4.986,0,0,1,2.694-3.617A17.926,17.926,0,0,0,84.924,8Z" transform="translate(-60.058 -7.171)" fill="#ffda57"/>
      <path id="Trazado_882161" data-name="Trazado 882161" d="M70.108,27.989a17.88,17.88,0,0,0,1.185,6.461.913.913,0,0,1-1.628.81A17.929,17.929,0,0,1,88.587,8.3a.913.913,0,0,1-.219,1.8,17.888,17.888,0,0,0-18.26,17.883Z" transform="translate(-60.058 -7.098)" fill="#ffc03c"/>
      <path id="Trazado_882162" data-name="Trazado 882162" d="M199.8,371c-.1.593-.075.522-.075,5.284a5.18,5.18,0,0,1-10.361,0c0-4.756.025-4.715-.074-5.284Z" transform="translate(-169.678 -332.561)" fill="#55babf"/>
      <path id="Trazado_882163" data-name="Trazado 882163" d="M192.472,378.492a1.211,1.211,0,0,1-2.2.727,5.151,5.151,0,0,1-.911-2.934c0-4.84.022-4.743-.074-5.284H190.8a1.214,1.214,0,0,1,1.066.634,5.009,5.009,0,0,1,.536,1.542A46.366,46.366,0,0,1,192.472,378.492Z" transform="translate(-169.678 -332.561)" fill="#69ccd1"/>
      <path id="Trazado_882164" data-name="Trazado 882164" d="M149.989,79.827a3.95,3.95,0,0,0-2.186-7.051c.832-4.594-6.406-5.241-6.406-.578,0-4.662-7.238-4.016-6.406.578a3.95,3.95,0,0,0-2.186,7.051,5.243,5.243,0,0,0,2.214,9.879,3.231,3.231,0,0,0,6.378-.716,3.231,3.231,0,0,0,6.378.716,5.243,5.243,0,0,0,2.214-9.879Z" transform="translate(-116.531 -61.852)" fill="#f7759d"/>
      <path id="Trazado_882165" data-name="Trazado 882165" d="M242.473,69.49a.917.917,0,0,1,.744,1.622,3.058,3.058,0,0,0-1.145,2.543s0,16.81,0,16.819a.918.918,0,0,1-1.739.425A3.306,3.306,0,0,1,240,89.412V72.62a2.98,2.98,0,0,1,2.473-3.13Z" transform="translate(-215.134 -62.274)" fill="#ea3a70"/>
      <path id="Trazado_882166" data-name="Trazado 882166" d="M138.912,70.6a2.9,2.9,0,0,0-1.706,2.718.822.822,0,0,1-.619.806,3.955,3.955,0,0,0-2.155,6.3.825.825,0,0,1-.138,1.162,5.24,5.24,0,0,0-1.908,5.176.829.829,0,0,1-1.507.613,5.245,5.245,0,0,1,1.928-7.545,3.95,3.95,0,0,1,2.186-7.051,3.147,3.147,0,0,1,3.683-3.747A.828.828,0,0,1,138.912,70.6Z" transform="translate(-116.533 -61.854)" fill="#ea3a70"/>
      <g id="Grupo_1102450" data-name="Grupo 1102450">
        <path id="Trazado_882167" data-name="Trazado 882167" d="M137.01,85.782a3.952,3.952,0,0,0,4.224-2.531,6.072,6.072,0,0,0,2.889-10.79,4.787,4.787,0,0,0-2.6-7.612,3.96,3.96,0,0,0-4.512-3.889.829.829,0,0,0,.142,1.652,2.681,2.681,0,0,1,2.187.781,2.068,2.068,0,0,1,.526,1.475,3.045,3.045,0,0,0-2.1,2.033.829.829,0,1,0,1.582.495,1.511,1.511,0,0,1,1.3-1.014,3.12,3.12,0,0,1,1.648,5.565.829.829,0,0,0,.126,1.385,4.413,4.413,0,0,1-1.863,8.317.829.829,0,0,0-.774.645,2.285,2.285,0,0,1-2.6,1.841,2.317,2.317,0,0,1-2.143-2.374V64.968a3.831,3.831,0,0,0-2.083-3.584c-2.515-1.259-6.05.209-6.046,3.465a4.787,4.787,0,0,0-2.6,7.612,6.072,6.072,0,0,0,2.888,10.79,3.906,3.906,0,0,0,4.127,2.541.829.829,0,0,0-.147-1.651,2.287,2.287,0,0,1-2.537-1.847.829.829,0,0,0-.774-.645,4.413,4.413,0,0,1-1.863-8.317.829.829,0,0,0,.126-1.385,3.12,3.12,0,0,1,1.648-5.565,1.511,1.511,0,0,1,1.3,1.014.829.829,0,1,0,1.582-.495,3.044,3.044,0,0,0-2.094-2.033,2.05,2.05,0,0,1,.825-1.748c1.324-.991,3.988-.664,3.988,1.849V81.761a3.965,3.965,0,0,0,3.616,4.021Z" transform="translate(-109.356 -54.623)"/>
        <path id="Trazado_882168" data-name="Trazado 882168" d="M267.716,195.257a.829.829,0,0,0-.843.814.823.823,0,0,1-.128.427,2.743,2.743,0,0,0-2.387-.026.829.829,0,0,0,.687,1.509,1.148,1.148,0,0,1,.747-.081,1.383,1.383,0,0,1,.836.863.829.829,0,1,0,1.585-.484,3.14,3.14,0,0,0-.276-.614,2.479,2.479,0,0,0,.592-1.566A.829.829,0,0,0,267.716,195.257Z" transform="translate(-236.534 -175.027)"/>
        <path id="Trazado_882169" data-name="Trazado 882169" d="M176.034,190.769a.832.832,0,0,0,1.038-.543,1.384,1.384,0,0,1,.837-.866.829.829,0,0,0-.409-1.607,2.625,2.625,0,0,0-.545.205.834.834,0,0,1,.275-1.155.829.829,0,1,0-.864-1.415,2.492,2.492,0,0,0-.6,3.74,3.137,3.137,0,0,0-.274.611A.826.826,0,0,0,176.034,190.769Z" transform="translate(-157.022 -166.072)"/>
        <path id="Trazado_882170" data-name="Trazado 882170" d="M77.753,0a18.755,18.755,0,0,0-8.307,35.569,4.155,4.155,0,0,1,2.236,3.011.829.829,0,0,0,.817.687h6.427a.829.829,0,1,0,0-1.658H73.152a5.812,5.812,0,0,0-2.971-3.526,17.1,17.1,0,1,1,15.152,0A5.786,5.786,0,0,0,82.1,39.3c0,4.747.022,4.653-.062,5.149H79.2a.829.829,0,1,0,0,1.658h2.188a4.35,4.35,0,0,1-7.99-2.383V43.1h2.8a.829.829,0,1,0,0-1.658H72.572a.829.829,0,0,0-.829.829v1.451a6.009,6.009,0,1,0,12.019,0V39.3a4.138,4.138,0,0,1,2.307-3.734A18.755,18.755,0,0,0,77.753,0Z" transform="translate(-52.887)"/>
        <path id="Trazado_882171" data-name="Trazado 882171" d="M3.315,173H.829a.829.829,0,0,0,0,1.658H3.315a.829.829,0,0,0,0-1.658Z" transform="translate(0 -155.076)"/>
        <path id="Trazado_882172" data-name="Trazado 882172" d="M69.952,12.125a.829.829,0,0,0,1.172-1.172L69.366,9.194a.829.829,0,0,0-1.172,1.172Z" transform="translate(-60.911 -8.024)"/>
        <path id="Trazado_882173" data-name="Trazado 882173" d="M69.952,320.321l-1.758,1.758a.829.829,0,0,0,1.172,1.172l1.758-1.758a.829.829,0,0,0-1.172-1.172Z" transform="translate(-60.911 -286.916)"/>
        <path id="Trazado_882174" data-name="Trazado 882174" d="M443.315,173h-2.487a.829.829,0,0,0,0,1.658h2.487a.829.829,0,0,0,0-1.658Z" transform="translate(-394.412 -155.076)"/>
        <path id="Trazado_882175" data-name="Trazado 882175" d="M379.9,12.368a.826.826,0,0,0,.586-.243l1.758-1.758a.829.829,0,0,0-1.172-1.172l-1.758,1.758A.83.83,0,0,0,379.9,12.368Z" transform="translate(-339.794 -8.024)"/>
        <path id="Trazado_882176" data-name="Trazado 882176" d="M380.493,320.321a.829.829,0,0,0-1.172,1.172l1.758,1.758a.829.829,0,0,0,1.172-1.172Z" transform="translate(-339.802 -286.916)"/>
      </g>
    </g>
  </g>
</svg>
