<svg xmlns="http://www.w3.org/2000/svg" xmlns:xlink="http://www.w3.org/1999/xlink" width="84.718" height="87.488" viewBox="0 0 84.718 87.488">
  <defs>
    <clipPath id="clip-path">
      <rect id="Rectángulo_401306" data-name="Rectángulo 401306" width="57" height="57" transform="translate(-0.427 -0.158)" fill="#fff" stroke="#707070" stroke-width="1"/>
    </clipPath>
  </defs>
  <g id="Grupo_1099406" data-name="Grupo 1099406" transform="translate(-233 -5171.926)">
    <g id="Grupo_1099361" data-name="Grupo 1099361" transform="translate(238.194 5183.318)">
      <ellipse id="Elipse_11493" data-name="Elipse 11493" cx="38.5" cy="38" rx="38.5" ry="38" transform="translate(-0.144 0.096)" fill="#fcff9b"/>
      <g id="Enmascarar_grupo_1098665" data-name="Enmascarar grupo 1098665" transform="translate(10.283 9.255)" clip-path="url(#clip-path)">
        <g id="innovacion" transform="translate(1.111 0.374)">
          <g id="Grupo_1099353" data-name="Grupo 1099353" transform="translate(0 0)">
            <g id="Grupo_1099350" data-name="Grupo 1099350">
              <path id="Trazado_873275" data-name="Trazado 873275" d="M52.84,37.379c.149.222.418.871.537,1.113a5.143,5.143,0,0,1,.3.776,5.254,5.254,0,0,1,.26,1.721,5.861,5.861,0,0,1-4.812,5.862.455.455,0,0,0-.343.317,3.685,3.685,0,0,1-3.049,2.7c-.162.021-.655-.362-.823-.362-.415,0-.774.222-1.147.1.007.133.011.265.011.4A6.744,6.744,0,0,1,36.9,56.991,6.826,6.826,0,0,1,31.046,54h0a5.8,5.8,0,0,1-1.167-2.019,7.019,7.019,0,0,1-.144-.837,7.019,7.019,0,0,1-.144.837,7.209,7.209,0,0,1-14.23-1.64c0-.135,0-.267.011-.4-.374.122-.625-.33-1.039-.33-.169,0-.483.508-.645.488a3.828,3.828,0,0,1-3.169-2.7.455.455,0,0,0-.343-.316A6.124,6.124,0,0,1,5.528,39.22c.083-.262.523-.516.639-.762.128-.27-.065-.53.1-.777A7.783,7.783,0,0,1,5.823,24.73c-.12-.255,0-.86-.082-1.133-.091-.293-.387-.255-.432-.565a6,6,0,0,1-.068-.909,6.123,6.123,0,0,1,3.672-5.612A.455.455,0,0,0,9.178,16a3.829,3.829,0,0,1,3.81-4.662,3.715,3.715,0,0,1,.679.074c0-.026.093-.043.093-.068,0-.247.259-.5.287-.736.035-.3-.247-.592-.17-.877A6.132,6.132,0,0,1,18.5,5.347c.415-.089.412.529.853.529.157,0,.746-.658.9-.646a5.657,5.657,0,0,1,8.634-2.971c.307.214.591,1.459.85,1.729.258-.27.543-1.515.85-1.729a5.657,5.657,0,0,1,8.634,2.971c.153-.011.45.528.608.528.442,0,.731-.5,1.147-.409a6.13,6.13,0,0,1,4.62,4.38c.069.254-.444.515-.409.781s.536.545.536.825c0,.025.083.049.083.075.22-.045.414.239.645.235a3.3,3.3,0,0,1,3.5,3.317,5.092,5.092,0,0,1,0,1.26.455.455,0,0,0,.266.514A5.862,5.862,0,0,1,53.976,22.1a6.145,6.145,0,0,1-.067.909,9.075,9.075,0,0,1-.374.933,7.139,7.139,0,0,1-.282.993,7.21,7.21,0,0,1,3.2,6.043A7.325,7.325,0,0,1,52.84,37.379Z" transform="translate(-2.571 -1.245)" fill="#fe93bb"/>
              <path id="Trazado_873276" data-name="Trazado 873276" d="M66.375,42.372c.168.251-.024.75.106,1.026.114.241.553.256.634.513a6.125,6.125,0,0,1-4.648,7.864.451.451,0,0,0-.343.316,3.83,3.83,0,0,1-3.169,2.7c-.162.02-.78-.818-.949-.818-.415,0-.362.783-.736.661.007.133.011.265.011.4a7.209,7.209,0,0,1-13.2,4.012h0l1.449-3.4c2.6-.165,5.378-2.834,7.291-4.674a.436.436,0,0,1,.061-.06c6-5.807,7.574-14.092,7.662-21.112h0a56.318,56.318,0,0,0-1.569-13.7,3.751,3.751,0,0,1,.678-.074,3.827,3.827,0,0,1,3.81,4.663.454.454,0,0,0,.266.514A6.123,6.123,0,0,1,67.4,26.813a6,6,0,0,1-.068.909c-.042.287-.9.063-.985.335-.088.3.6,1.087.47,1.363a7.783,7.783,0,0,1-.445,12.952Z" transform="translate(-15.744 -5.934)" fill="#fe76a8"/>
            </g>
            <g id="Grupo_1099352" data-name="Grupo 1099352" transform="translate(13.761 11.499)">
              <g id="Grupo_1099351" data-name="Grupo 1099351">
                <path id="Trazado_873277" data-name="Trazado 873277" d="M41.142,77.119h0c-.522,0-1.008.188-1.417-.075a2.621,2.621,0,0,1-1.207-2.209V73.112h5.02l-.113,1.723A2.081,2.081,0,0,1,41.142,77.119Z" transform="translate(-27.739 -35.549)" fill="#918291"/>
                <path id="Trazado_873278" data-name="Trazado 873278" d="M43.022,71.611l-2.606.227h-2.88A1.738,1.738,0,0,1,35.8,70.1V67.055h8.734V70.1A1.376,1.376,0,0,1,43.022,71.611Z" transform="translate(-26.876 -33.628)" fill="#7a6d79"/>
                <path id="Trazado_873279" data-name="Trazado 873279" d="M41.494,73.112v1.723a2.621,2.621,0,0,1-1.207,2.208,2.611,2.611,0,0,0,1.416.416h0a2.624,2.624,0,0,0,2.624-2.624V73.112Z" transform="translate(-28.301 -35.549)" fill="#7a6d79"/>
                <path id="Trazado_873280" data-name="Trazado 873280" d="M43.968,67.384V70.2a1.738,1.738,0,0,1-1.737,1.738h2.832A1.738,1.738,0,0,0,46.8,70.2V67.384Z" transform="translate(-28.917 -33.732)" fill="#685e68"/>
                <path id="Trazado_873281" data-name="Trazado 873281" d="M43.952,66.364l-2.606.227H34.991a1.737,1.737,0,0,1-1.737-1.737V62.178H45.463v2.675A1.376,1.376,0,0,1,43.952,66.364Z" transform="translate(-26.069 -32.08)" fill="#918291"/>
                <path id="Trazado_873282" data-name="Trazado 873282" d="M46.513,62.589v2.395a1.737,1.737,0,0,1-1.737,1.737h2.832a1.737,1.737,0,0,0,1.737-1.737V62.589Z" transform="translate(-29.725 -32.21)" fill="#7a6d79"/>
                <path id="Trazado_873283" data-name="Trazado 873283" d="M48.7,31.524c0-7.248-4.923-12.919-12.111-13.162a13.786,13.786,0,0,0-1.979-.153,13.4,13.4,0,0,0-7.986,22.765,7.058,7.058,0,0,1,2.077,4.972v2.147a.876.876,0,0,0,.876.876H39.843l2.507-.341a.876.876,0,0,0,.876-.876l-.115-2.058a7.5,7.5,0,0,1,2.077-5.163A12.022,12.022,0,0,0,48.7,31.524Z" transform="translate(-22.729 -18.122)" fill="#ffe177"/>
                <path id="Trazado_873284" data-name="Trazado 873284" d="M42.118,18.1a13.325,13.325,0,0,0-1.979.081A13.4,13.4,0,0,1,48.1,40.942a7.068,7.068,0,0,0-2.084,4.979V48.06a.876.876,0,0,1-.876.876H48.2a.876.876,0,0,0,.876-.876V45.92a7.068,7.068,0,0,1,2.084-4.979A13.4,13.4,0,0,0,42.118,18.1Z" transform="translate(-28.254 -18.089)" fill="#ffd15b"/>
              </g>
            </g>
          </g>
          <g id="Grupo_1099360" data-name="Grupo 1099360" transform="translate(0.164 0)">
            <g id="Grupo_1099356" data-name="Grupo 1099356">
              <path id="Trazado_873285" data-name="Trazado 873285" d="M34.8,1.3a5.66,5.66,0,0,0-4.889,1.682,5.655,5.655,0,0,0-9.483,2.244c-.153-.011-.308-.018-.466-.018a6.123,6.123,0,0,0-6.122,6.123c0,.025,0,.048,0,.074h0a3.762,3.762,0,0,0-.754-.075,3.828,3.828,0,0,0-3.632,5.03,6.126,6.126,0,0,0-3.459,8.364s0,0,0,0a7.808,7.808,0,0,0-2.883,3.957" transform="translate(-2.907 -1.245)" fill="none" stroke="#000" stroke-linecap="round" stroke-linejoin="round" stroke-miterlimit="10" stroke-width="2.489"/>
              <path id="Trazado_873286" data-name="Trazado 873286" d="M33.7,82.265a7.205,7.205,0,0,0,4.526-2.786" transform="translate(-12.613 -26.071)" fill="none" stroke="#000" stroke-linecap="round" stroke-linejoin="round" stroke-miterlimit="10" stroke-width="2.489"/>
              <path id="Trazado_873287" data-name="Trazado 873287" d="M19.932,71.618a7.21,7.21,0,0,1-4.494-6.68c0-.135,0-.267.011-.4a3.826,3.826,0,0,1-4.923-2.807,6.123,6.123,0,0,1-4.183-9.448,0,0,0,0,0,0,0,7.792,7.792,0,0,1-3.532-5.03" transform="translate(-2.812 -15.844)" fill="none" stroke="#000" stroke-linecap="round" stroke-linejoin="round" stroke-miterlimit="10" stroke-width="2.489"/>
              <path id="Trazado_873288" data-name="Trazado 873288" d="M51.353,4.125a5.624,5.624,0,0,1,1.118,2.018c.153-.011.308-.018.466-.018a6.123,6.123,0,0,1,6.122,6.123c0,.025,0,.048,0,.074h0a3.762,3.762,0,0,1,.754-.075,3.828,3.828,0,0,1,3.632,5.03A6.126,6.126,0,0,1,66.9,25.642s0,0,0,0A7.783,7.783,0,0,1,66.455,38.6a0,0,0,0,0,0,0,6.123,6.123,0,0,1-4.183,9.448,3.826,3.826,0,0,1-4.923,2.807c.007.133.011.265.011.4a7.21,7.21,0,0,1-13.026,4.261" transform="translate(-15.989 -2.159)" fill="none" stroke="#000" stroke-linecap="round" stroke-linejoin="round" stroke-miterlimit="10" stroke-width="2.489"/>
              <path id="Trazado_873289" data-name="Trazado 873289" d="M7.332,34.994A7.744,7.744,0,0,1,10.9,33.6" transform="translate(-4.246 -11.511)" fill="none" stroke="#000" stroke-linecap="round" stroke-linejoin="round" stroke-miterlimit="10" stroke-width="2.489"/>
              <path id="Trazado_873290" data-name="Trazado 873290" d="M18.824,16.132a3.833,3.833,0,0,1,2.784,2.294" transform="translate(-7.893 -5.969)" fill="none" stroke="#000" stroke-linecap="round" stroke-linejoin="round" stroke-miterlimit="10" stroke-width="2.489"/>
              <g id="Grupo_1099354" data-name="Grupo 1099354" transform="translate(3.531 36.439)">
                <path id="Trazado_873291" data-name="Trazado 873291" d="M11.11,55.722a7.739,7.739,0,0,1-3.126-1.1" transform="translate(-7.984 -54.621)" fill="none" stroke="#000" stroke-linecap="round" stroke-linejoin="round" stroke-miterlimit="10" stroke-width="2.489"/>
              </g>
              <line id="Línea_563" data-name="Línea 563" y2="9.57" transform="translate(26.999 1.74)" fill="none" stroke="#000" stroke-linecap="round" stroke-linejoin="round" stroke-miterlimit="10" stroke-width="2.489"/>
              <path id="Trazado_873292" data-name="Trazado 873292" d="M28.4,7.081l-.009.036a4.674,4.674,0,0,0,.552,3.551h0" transform="translate(-10.888 -3.097)" fill="none" stroke="#000" stroke-linecap="round" stroke-linejoin="round" stroke-miterlimit="10" stroke-width="2.489"/>
              <path id="Trazado_873293" data-name="Trazado 873293" d="M31.969,12.389a2.956,2.956,0,0,0-4.394,2.375" transform="translate(-10.67 -4.661)" fill="none" stroke="#000" stroke-linecap="round" stroke-linejoin="round" stroke-miterlimit="10" stroke-width="2.489"/>
              <path id="Trazado_873294" data-name="Trazado 873294" d="M14.047,30.02A2.956,2.956,0,0,0,15.1,34.9" transform="translate(-6.097 -10.376)" fill="none" stroke="#000" stroke-linecap="round" stroke-linejoin="round" stroke-miterlimit="10" stroke-width="2.489"/>
              <path id="Trazado_873295" data-name="Trazado 873295" d="M75.731,34.994a7.743,7.743,0,0,0-3.571-1.4" transform="translate(-24.818 -11.511)" fill="none" stroke="#000" stroke-linecap="round" stroke-linejoin="round" stroke-miterlimit="10" stroke-width="2.489"/>
              <path id="Trazado_873296" data-name="Trazado 873296" d="M64.6,16.132a3.833,3.833,0,0,0-2.784,2.294" transform="translate(-21.537 -5.969)" fill="none" stroke="#000" stroke-linecap="round" stroke-linejoin="round" stroke-miterlimit="10" stroke-width="2.489"/>
              <g id="Grupo_1099355" data-name="Grupo 1099355" transform="translate(47.342 36.439)">
                <path id="Trazado_873297" data-name="Trazado 873297" d="M72.16,55.722a7.739,7.739,0,0,0,3.126-1.1" transform="translate(-72.16 -54.621)" fill="none" stroke="#000" stroke-linecap="round" stroke-linejoin="round" stroke-miterlimit="10" stroke-width="2.489"/>
              </g>
              <path id="Trazado_873298" data-name="Trazado 873298" d="M56,7.081l.009.036a4.674,4.674,0,0,1-.552,3.551h0" transform="translate(-19.518 -3.097)" fill="none" stroke="#000" stroke-linecap="round" stroke-linejoin="round" stroke-miterlimit="10" stroke-width="2.489"/>
              <path id="Trazado_873299" data-name="Trazado 873299" d="M50.712,12.389a2.956,2.956,0,0,1,4.394,2.375" transform="translate(-18.012 -4.661)" fill="none" stroke="#000" stroke-linecap="round" stroke-linejoin="round" stroke-miterlimit="10" stroke-width="2.489"/>
              <path id="Trazado_873300" data-name="Trazado 873300" d="M69.774,30.02A2.956,2.956,0,0,1,68.717,34.9" transform="translate(-23.726 -10.376)" fill="none" stroke="#000" stroke-linecap="round" stroke-linejoin="round" stroke-miterlimit="10" stroke-width="2.489"/>
              <path id="Trazado_873301" data-name="Trazado 873301" d="M22.34,63.6a2.956,2.956,0,0,0,3.968,3.034" transform="translate(-9.005 -21.032)" fill="none" stroke="#000" stroke-linecap="round" stroke-linejoin="round" stroke-miterlimit="10" stroke-width="2.489"/>
            </g>
            <g id="Grupo_1099359" data-name="Grupo 1099359" transform="translate(13.596 11.499)">
              <g id="Grupo_1099358" data-name="Grupo 1099358">
                <path id="Trazado_873302" data-name="Trazado 873302" d="M49.394,29.547A13.4,13.4,0,1,0,26.628,40.941,7.055,7.055,0,0,1,28.7,45.912V48.06a.877.877,0,0,0,.877.876H42.675a.876.876,0,0,0,.876-.876V45.92a7.07,7.07,0,0,1,2.083-4.979,13.368,13.368,0,0,0,3.75-7.429" transform="translate(-22.728 -18.088)" fill="none" stroke="#000" stroke-linecap="round" stroke-linejoin="round" stroke-miterlimit="10" stroke-width="2.489"/>
                <g id="Grupo_1099357" data-name="Grupo 1099357" transform="translate(8.213 12.9)">
                  <path id="Trazado_873303" data-name="Trazado 873303" d="M45.139,36.985l-5.19,5.025-5.19-5.025" transform="translate(-34.759 -36.985)" fill="none" stroke="#000" stroke-linecap="round" stroke-linejoin="round" stroke-miterlimit="10" stroke-width="2.489"/>
                </g>
                <path id="Trazado_873304" data-name="Trazado 873304" d="M45.689,63.6v1.7a1.737,1.737,0,0,1-1.737,1.737H34.991A1.737,1.737,0,0,1,33.254,65.3V63.6" transform="translate(-26.068 -32.531)" fill="none" stroke="#000" stroke-linecap="round" stroke-linejoin="round" stroke-miterlimit="10" stroke-width="2.489"/>
                <path id="Trazado_873305" data-name="Trazado 873305" d="M44.759,68.984V70.7a1.738,1.738,0,0,1-1.737,1.738H37.536A1.738,1.738,0,0,1,35.8,70.7V68.946" transform="translate(-26.876 -34.227)" fill="none" stroke="#000" stroke-linecap="round" stroke-linejoin="round" stroke-miterlimit="10" stroke-width="2.489"/>
                <path id="Trazado_873306" data-name="Trazado 873306" d="M43.766,74.385v.838a2.624,2.624,0,0,1-2.624,2.624h0a2.624,2.624,0,0,1-2.624-2.624v-.888" transform="translate(-27.739 -35.937)" fill="none" stroke="#000" stroke-linecap="round" stroke-linejoin="round" stroke-miterlimit="10" stroke-width="2.489"/>
              </g>
              <line id="Línea_564" data-name="Línea 564" y2="12.61" transform="translate(13.403 17.926)" fill="none" stroke="#000" stroke-linecap="round" stroke-linejoin="round" stroke-miterlimit="10" stroke-width="2.489"/>
            </g>
            <path id="Trazado_873307" data-name="Trazado 873307" d="M21.323,70.926h0a4.637,4.637,0,0,1,.7-2.446l.681-1.1" transform="translate(-8.686 -22.232)" fill="none" stroke="#000" stroke-linecap="round" stroke-linejoin="round" stroke-miterlimit="10" stroke-width="2.489"/>
            <path id="Trazado_873308" data-name="Trazado 873308" d="M60.533,63.6a2.956,2.956,0,0,1-3.968,3.034" transform="translate(-19.87 -21.032)" fill="none" stroke="#000" stroke-linecap="round" stroke-linejoin="round" stroke-miterlimit="10" stroke-width="2.489"/>
            <path id="Trazado_873309" data-name="Trazado 873309" d="M62.759,70.926h0a4.637,4.637,0,0,0-.7-2.446l-.681-1.1" transform="translate(-21.397 -22.232)" fill="none" stroke="#000" stroke-linecap="round" stroke-linejoin="round" stroke-miterlimit="10" stroke-width="2.489"/>
          </g>
        </g>
      </g>
    </g>
    <g id="Elipse_11494" data-name="Elipse 11494" transform="translate(233 5239.587)" fill="none" stroke="#ea3a70" stroke-width="5">
      <circle cx="9.914" cy="9.914" r="9.914" stroke="none"/>
      <circle cx="9.914" cy="9.914" r="7.414" fill="none"/>
    </g>
    <g id="Grupo_1099377" data-name="Grupo 1099377" transform="translate(295.563 5171.926)">
      <path id="Trazado_873233" data-name="Trazado 873233" d="M1.54,0A1.539,1.539,0,0,0,0,1.54V8.335a1.54,1.54,0,0,0,3.081,0V1.54A1.539,1.539,0,0,0,1.54,0" transform="translate(9.536 11.889)" fill="#69ccd1"/>
      <path id="Trazado_873234" data-name="Trazado 873234" d="M1.54,0A1.539,1.539,0,0,0,0,1.54V8.335a1.54,1.54,0,0,0,3.081,0V1.54A1.539,1.539,0,0,0,1.54,0" transform="translate(9.536 0)" fill="#69ccd1"/>
      <path id="Trazado_873235" data-name="Trazado 873235" d="M7.644,0H1.54a1.54,1.54,0,1,0,0,3.081h6.1A1.54,1.54,0,0,0,7.644,0" transform="translate(12.971 9.34)" fill="#69ccd1"/>
      <path id="Trazado_873236" data-name="Trazado 873236" d="M7.644,0H1.54a1.54,1.54,0,0,0,0,3.081h6.1A1.54,1.54,0,1,0,7.644,0" transform="translate(0 9.34)" fill="#69ccd1"/>
    </g>
  </g>
</svg>
